<?xml version="1.0" encoding="UTF-8"?>
<svg id="Layer_1" xmlns="http://www.w3.org/2000/svg" version="1.1" viewBox="0 0 252 144">
  <!-- Generator: Adobe Illustrator 29.3.1, SVG Export Plug-In . SVG Version: 2.1.0 Build 151)  -->
  <defs>
    <style>
      .st0 {
        font-size: 4.6px;
      }

      .st0, .st1, .st2, .st3, .st4, .st5 {
        fill: #2e2664;
      }

      .st0, .st2, .st3, .st6, .st7 {
        font-family: Qugan-Regular, Qugan;
      }

      .st8 {
        fill: #f37423;
      }

      .st1, .st2, .st4 {
        font-size: 4.6px;
      }

      .st9, .st10 {
        fill: none;
      }

      .st11 {
        fill: #f37321;
      }

      .st10 {
        stroke: #7562ab;
        stroke-miterlimit: 10;
        stroke-width: .2px;
      }

      .st12 {
        fill: #7562ab;
      }

      .st3 {
        font-size: 16.8px;
      }

      .st13 {
        letter-spacing: 0em;
      }

      .st14 {
        fill: #fff7ee;
      }

      .st15, .st4, .st16 {
        font-family: Rinter-Regular, Rinter;
      }

      .st6 {
        font-size: 5.2px;
      }

      .st17 {
        letter-spacing: 0em;
      }

      .st16 {
        letter-spacing: 0em;
      }
    </style>
  </defs>
  <rect class="st14" x=".2" y=".6" width="251.8" height="143.4"/>
  <text class="st6" transform="translate(10.2 75.2)"><tspan class="st12" x="0" y="0">Founder </tspan><tspan class="st8" x="21.8" y="0">&amp;</tspan><tspan class="st12" x="25.3" y="0" xml:space="preserve"> Chief Executive Officer</tspan></text>
  <text class="st3" transform="translate(9.2 67)"><tspan x="0" y="0">Colin D. White, Ph.D.</tspan></text>
  <text class="st4" transform="translate(18.5 118.9)"><tspan x="0" y="0">+1-617-798-7181</tspan></text>
  <text class="st2" transform="translate(18.5 125.8)"><tspan x="0" y="0">cwhite@middlesexcg.com</tspan></text>
  <text class="st2" transform="translate(18.5 132.8)"><tspan x="0" y="0">middlesexcg.com</tspan></text>
  <text class="st1" transform="translate(183.7 118.8)"><tspan class="st15" x="0" y="0">203</tspan><tspan class="st7" x="8.3" y="0" xml:space="preserve"> Lowell Street, Suite </tspan><tspan class="st16" x="51.3" y="0">214</tspan></text>
  <text class="st1" transform="translate(183.7 125.8)"><tspan class="st7" x="0" y="0">Wilmington, MA </tspan><tspan class="st15" x="34.8" y="0">01887</tspan></text>
  <text class="st2" transform="translate(183.7 132.8)"><tspan x="0" y="0">USA</tspan></text>
  <path class="st8" d="M19.1,14.8c.1.1.2.3.2.5s0,.4-.2.5c0,0,0,0,0,0-.1.1-.3.2-.5.2s-.4,0-.5-.2c0,0,0,0,0,0-.1-.1-.2-.3-.2-.5s0-.4.2-.5c0,0,0,0,0,0,.2-.2.4-.6.4-1s-.2-.7-.4-1c0,0,0,0,0,0-.2-.2-.6-.4-1-.4s-.7.2-1,.4c0,0,0,0,0,0-.2.2-.4.6-.4,1s.1.7.4,1c0,0,0,0,0,0,.1.1.2.3.2.5s0,.4-.2.5c0,0,0,0,0,0-.1.1-.3.2-.5.2s-.4,0-.5-.2c0,0,0,0,0,0-.1-.1-.2-.3-.2-.5s0-.4.2-.5c0,0,0,0,0,0,.2-.2.4-.6.4-1s-.1-.7-.4-1c0,0,0,0,0,0-.2-.2-.6-.4-1-.4s-.7.2-1,.4c0,0,0,0,0,0-.2.2-.4.6-.4,1s.2.7.4,1c0,0,0,0,0,0,.1.1.2.3.2.5s0,.4-.2.5c0,0,0,0,0,0-.1.1-.3.2-.5.2s-.4,0-.5-.2c0,0,0,0,0,0-.1-.1-.2-.3-.2-.5s0-.4.2-.5c0,0,0,0,0,0,.2-.2.4-.6.4-1s-.1-.7-.4-1c0,0,0,0,0,0-.1-.1-.2-.3-.2-.5s0-.4.2-.5c0,0,0,0,0,0,.1-.1.3-.2.5-.2s.4,0,.5.2c0,0,0,0,0,0,.2.2.6.4,1,.4s.7-.2,1-.4c0,0,0,0,0,0,.1-.1.3-.2.5-.2s.4,0,.5.2c0,0,0,0,0,0,.2.2.6.4,1,.4s.7-.2,1-.4c0,0,0,0,0,0,.1-.1.3-.2.5-.2s.4,0,.5.2c0,0,0,0,0,0,.1.1.2.3.2.5s0,.4-.2.5c0,0,0,0,0,0-.2.2-.4.6-.4,1s.1.7.4,1c0,0,0,0,0,0"/>
  <path class="st5" d="M19.1,17.8c.1.1.2.3.2.5s0,.4-.2.5c0,0,0,0,0,0-.1.1-.3.2-.5.2s-.4,0-.5-.2c0,0,0,0,0,0-.2-.2-.6-.4-1-.4s-.7.2-1,.4c0,0,0,0,0,0-.1.1-.3.2-.5.2s-.4,0-.5-.2c0,0,0,0,0,0-.2-.2-.6-.4-1-.4s-.7.2-1,.4c0,0,0,0,0,0-.1.1-.3.2-.5.2s-.4,0-.5-.2c0,0,0,0,0,0-.2-.2-.6-.4-1-.4s-.7.2-1,.4h0c-.1.1-.3.2-.5.2s-.4,0-.5-.2c0,0,0,0,0,0-.1-.1-.2-.3-.2-.5s0-.4.2-.5c0,0,0,0,0,0,.2-.2.4-.6.4-1s-.1-.7-.4-1c0,0,0,0,0,0-.1-.1-.2-.3-.2-.5s0-.4.2-.5c0,0,0,0,0,0,.2-.2.4-.6.4-1s-.1-.7-.4-1c0,0,0,0,0,0-.1-.1-.2-.3-.2-.5s0-.4.2-.5c0,0,0,0,0,0,.2-.2.4-.6.4-1s-.1-.7-.4-1c0,0,0,0,0,0-.1-.1-.2-.3-.2-.5s0-.4.2-.5c0,0,0,0,0,0,.1-.1.3-.2.5-.2s.4,0,.5.2c0,0,0,0,0,0,.2.2.6.4,1,.4s.7-.2,1-.4c0,0,0,0,0,0,.1-.1.3-.2.5-.2s.4,0,.5.2c0,0,0,0,0,0,.2.2.6.4,1,.4s.7-.2,1-.4c0,0,0,0,0,0,.1-.1.3-.2.5-.2s.4,0,.5.2c0,0,0,0,0,0,.2.2.6.4,1,.4s.7-.2,1-.4c0,0,0,0,0,0,.1-.1.3-.2.5-.2s.4,0,.5.2c0,0,0,0,0,0,.1.1.2.3.2.5s0,.4-.2.5c0,0,0,0,0,0-.1.1-.3.2-.5.2s-.4,0-.5-.2c0,0,0,0,0,0-.2-.2-.6-.4-1-.4s-.7.2-1,.4c0,0,0,0,0,0-.1.1-.3.2-.5.2s-.4,0-.5-.2c0,0,0,0,0,0-.2-.2-.6-.4-1-.4s-.7.2-1,.4c0,0,0,0,0,0-.1.1-.3.2-.5.2s-.4,0-.5-.2c0,0,0,0,0,0-.2-.2-.6-.4-1-.4s-.7.2-1,.4h0c-.2.3-.4.6-.4,1s.2.7.4,1c0,0,0,0,0,0,.1.1.2.3.2.5s0,.4-.2.5c0,0,0,0,0,0-.2.2-.4.6-.4,1s.2.7.4,1h0s0,0,0,0c.1.1.2.3.2.5s0,.4-.2.5c0,0,0,0,0,0-.2.2-.4.6-.4,1s.2.7.4,1h0s0,0,0,0h0c.2.2.6.4,1,.4s.7-.2,1-.4h0s0,0,0,0h0c.1-.1.3-.2.5-.2s.4,0,.5.2h0s0,0,0,0h0c.2.2.6.4,1,.4s.7-.2,1-.4h0s0,0,0,0h0c.1-.1.3-.2.5-.2s.4,0,.5.2h0s0,0,0,0h0c.2.2.6.4,1,.4s.7-.2,1-.4h0s0,0,0,0h0c.1-.1.3-.2.5-.2s.4,0,.5.2h0s0,0,0,0h0"/>
  <g>
    <path class="st11" d="M229.8,55.1c0,0,.1.2.1.3s0,.2-.1.3c0,0,0,0,0,0,0,0-.2.1-.3.1s-.2,0-.3-.1c0,0,0,0,0,0,0,0-.1-.2-.1-.3s0-.2.1-.3c0,0,0,0,0,0,.1-.1.2-.3.2-.5s0-.4-.2-.5c0,0,0,0,0,0-.1-.1-.3-.2-.5-.2s-.4,0-.5.2c0,0,0,0,0,0-.1.1-.2.3-.2.5s0,.4.2.5c0,0,0,0,0,0,0,0,.1.2.1.3s0,.2-.1.3c0,0,0,0,0,0,0,0-.2.1-.3.1s-.2,0-.3-.1c0,0,0,0,0,0,0,0-.1-.2-.1-.3s0-.2.1-.3c0,0,0,0,0,0,.1-.1.2-.3.2-.5s0-.4-.2-.5c0,0,0,0,0,0-.1-.1-.3-.2-.5-.2s-.4,0-.5.2c0,0,0,0,0,0-.1.1-.2.3-.2.5s0,.4.2.5c0,0,0,0,0,0,0,0,.1.2.1.3s0,.2-.1.3c0,0,0,0,0,0,0,0-.2.1-.3.1s-.2,0-.3-.1c0,0,0,0,0,0,0,0-.1-.2-.1-.3s0-.2.1-.3c0,0,0,0,0,0,.1-.1.2-.3.2-.5s0-.4-.2-.5c0,0,0,0,0,0,0,0-.1-.2-.1-.3s0-.2.1-.3c0,0,0,0,0,0,0,0,.2-.1.3-.1s.2,0,.3.1c0,0,0,0,0,0,.1.1.3.2.5.2s.4,0,.5-.2c0,0,0,0,0,0,0,0,.2-.1.3-.1s.2,0,.3.1c0,0,0,0,0,0,.1.1.3.2.5.2s.4,0,.5-.2c0,0,0,0,0,0,0,0,.2-.1.3-.1s.2,0,.3.1c0,0,0,0,0,0,0,0,.1.2.1.3s0,.2-.1.3c0,0,0,0,0,0-.1.1-.2.3-.2.5s0,.4.2.5c0,0,0,0,0,0"/>
    <path class="st5" d="M229.8,56.7c0,0,.1.2.1.3s0,.2-.1.3c0,0,0,0,0,0,0,0-.2.1-.3.1s-.2,0-.3-.1c0,0,0,0,0,0-.1-.1-.3-.2-.5-.2s-.4,0-.5.2c0,0,0,0,0,0,0,0-.2.1-.3.1s-.2,0-.3-.1c0,0,0,0,0,0-.1-.1-.3-.2-.5-.2s-.4,0-.5.2c0,0,0,0,0,0,0,0-.2.1-.3.1s-.2,0-.3-.1c0,0,0,0,0,0-.1-.1-.3-.2-.5-.2s-.4,0-.5.2h0c0,0-.2.1-.3.1s-.2,0-.3-.1c0,0,0,0,0,0,0,0-.1-.2-.1-.3s0-.2.1-.3c0,0,0,0,0,0,.1-.1.2-.3.2-.5s0-.4-.2-.5c0,0,0,0,0,0,0,0-.1-.2-.1-.3s0-.2.1-.3c0,0,0,0,0,0,.1-.1.2-.3.2-.5s0-.4-.2-.5c0,0,0,0,0,0,0,0-.1-.2-.1-.3s0-.2.1-.3c0,0,0,0,0,0,.1-.1.2-.3.2-.5s0-.4-.2-.5c0,0,0,0,0,0,0,0-.1-.2-.1-.3s0-.2.1-.3c0,0,0,0,0,0,0,0,.2-.1.3-.1s.2,0,.3.1c0,0,0,0,0,0,.1.1.3.2.5.2s.4,0,.5-.2c0,0,0,0,0,0,0,0,.2-.1.3-.1s.2,0,.3.1c0,0,0,0,0,0,.1.1.3.2.5.2s.4,0,.5-.2c0,0,0,0,0,0,0,0,.2-.1.3-.1s.2,0,.3.1c0,0,0,0,0,0,.1.1.3.2.5.2s.4,0,.5-.2c0,0,0,0,0,0,0,0,.2-.1.3-.1s.2,0,.3.1c0,0,0,0,0,0,0,0,.1.2.1.3s0,.2-.1.3c0,0,0,0,0,0,0,0-.2.1-.3.1s-.2,0-.3-.1c0,0,0,0,0,0-.1-.1-.3-.2-.5-.2s-.4,0-.5.2c0,0,0,0,0,0,0,0-.2.1-.3.1s-.2,0-.3-.1c0,0,0,0,0,0-.1-.1-.3-.2-.5-.2s-.4,0-.5.2c0,0,0,0,0,0,0,0-.2.1-.3.1s-.2,0-.3-.1c0,0,0,0,0,0-.1-.1-.3-.2-.5-.2s-.4,0-.5.2h0c-.1.1-.2.3-.2.5s0,.4.2.5c0,0,0,0,0,0,0,0,.1.2.1.3s0,.2-.1.3c0,0,0,0,0,0-.1.1-.2.3-.2.5s0,.4.2.5h0s0,0,0,0h0c0,0,.1.2.1.3s0,.2-.1.3c0,0,0,0,0,0-.1.1-.2.3-.2.5s0,.4.2.5h0s0,0,0,0h0c.1.1.3.2.5.2s.4,0,.5-.2h0s0,0,0,0h0c0,0,.2-.1.3-.1s.2,0,.3.1c0,0,0,0,0,0,.1.1.3.2.5.2s.4,0,.5-.2c0,0,0,0,0,0,0,0,.2-.1.3-.1s.2,0,.3.1c0,0,0,0,0,0,.1.1.3.2.5.2s.4,0,.5-.2c0,0,0,0,0,0,0,0,.2-.1.3-.1s.2,0,.3.1c0,0,0,0,0,0"/>
    <path class="st11" d="M236.2,55.1c0,0,.1.2.1.3s0,.2-.1.3c0,0,0,0,0,0,0,0-.2.1-.3.1s-.2,0-.3-.1c0,0,0,0,0,0,0,0-.1-.2-.1-.3s0-.2.1-.3c0,0,0,0,0,0,.1-.1.2-.3.2-.5s0-.4-.2-.5c0,0,0,0,0,0-.1-.1-.3-.2-.5-.2s-.4,0-.5.2c0,0,0,0,0,0-.1.1-.2.3-.2.5s0,.4.2.5c0,0,0,0,0,0,0,0,.1.2.1.3s0,.2-.1.3c0,0,0,0,0,0,0,0-.2.1-.3.1s-.2,0-.3-.1c0,0,0,0,0,0,0,0-.1-.2-.1-.3s0-.2.1-.3c0,0,0,0,0,0,.1-.1.2-.3.2-.5s0-.4-.2-.5c0,0,0,0,0,0-.1-.1-.3-.2-.5-.2s-.4,0-.5.2c0,0,0,0,0,0-.1.1-.2.3-.2.5s0,.4.2.5c0,0,0,0,0,0,0,0,.1.2.1.3s0,.2-.1.3c0,0,0,0,0,0,0,0-.2.1-.3.1s-.2,0-.3-.1c0,0,0,0,0,0,0,0-.1-.2-.1-.3s0-.2.1-.3c0,0,0,0,0,0,.1-.1.2-.3.2-.5s0-.4-.2-.5c0,0,0,0,0,0,0,0-.1-.2-.1-.3s0-.2.1-.3c0,0,0,0,0,0,0,0,.2-.1.3-.1s.2,0,.3.1c0,0,0,0,0,0,.1.1.3.2.5.2s.4,0,.5-.2c0,0,0,0,0,0,0,0,.2-.1.3-.1s.2,0,.3.1c0,0,0,0,0,0,.1.1.3.2.5.2s.4,0,.5-.2c0,0,0,0,0,0,0,0,.2-.1.3-.1s.2,0,.3.1c0,0,0,0,0,0,0,0,.1.2.1.3s0,.2-.1.3c0,0,0,0,0,0-.1.1-.2.3-.2.5s0,.4.2.5c0,0,0,0,0,0"/>
    <path class="st5" d="M236.2,56.7c0,0,.1.2.1.3s0,.2-.1.3c0,0,0,0,0,0,0,0-.2.1-.3.1s-.2,0-.3-.1c0,0,0,0,0,0-.1-.1-.3-.2-.5-.2s-.4,0-.5.2c0,0,0,0,0,0,0,0-.2.1-.3.1s-.2,0-.3-.1c0,0,0,0,0,0-.1-.1-.3-.2-.5-.2s-.4,0-.5.2c0,0,0,0,0,0,0,0-.2.1-.3.1s-.2,0-.3-.1c0,0,0,0,0,0-.1-.1-.3-.2-.5-.2s-.4,0-.5.2h0c0,0-.2.1-.3.1s-.2,0-.3-.1c0,0,0,0,0,0,0,0-.1-.2-.1-.3s0-.2.1-.3c0,0,0,0,0,0,.1-.1.2-.3.2-.5s0-.4-.2-.5c0,0,0,0,0,0,0,0-.1-.2-.1-.3s0-.2.1-.3c0,0,0,0,0,0,.1-.1.2-.3.2-.5s0-.4-.2-.5c0,0,0,0,0,0,0,0-.1-.2-.1-.3s0-.2.1-.3c0,0,0,0,0,0,.1-.1.2-.3.2-.5s0-.4-.2-.5c0,0,0,0,0,0,0,0-.1-.2-.1-.3s0-.2.1-.3c0,0,0,0,0,0,0,0,.2-.1.3-.1s.2,0,.3.1c0,0,0,0,0,0,.1.1.3.2.5.2s.4,0,.5-.2c0,0,0,0,0,0,0,0,.2-.1.3-.1s.2,0,.3.1c0,0,0,0,0,0,.1.1.3.2.5.2s.4,0,.5-.2c0,0,0,0,0,0,0,0,.2-.1.3-.1s.2,0,.3.1c0,0,0,0,0,0,.1.1.3.2.5.2s.4,0,.5-.2c0,0,0,0,0,0,0,0,.2-.1.3-.1s.2,0,.3.1c0,0,0,0,0,0,0,0,.1.2.1.3s0,.2-.1.3c0,0,0,0,0,0,0,0-.2.1-.3.1s-.2,0-.3-.1c0,0,0,0,0,0-.1-.1-.3-.2-.5-.2s-.4,0-.5.2c0,0,0,0,0,0,0,0-.2.1-.3.1s-.2,0-.3-.1c0,0,0,0,0,0-.1-.1-.3-.2-.5-.2s-.4,0-.5.2c0,0,0,0,0,0,0,0-.2.1-.3.1s-.2,0-.3-.1c0,0,0,0,0,0-.1-.1-.3-.2-.5-.2s-.4,0-.5.2h0c-.1.1-.2.3-.2.5s0,.4.2.5c0,0,0,0,0,0,0,0,.1.2.1.3s0,.2-.1.3c0,0,0,0,0,0-.1.1-.2.3-.2.5s0,.4.2.5h0s0,0,0,0h0c0,0,.1.2.1.3s0,.2-.1.3c0,0,0,0,0,0-.1.1-.2.3-.2.5s0,.4.2.5h0s0,0,0,0h0c.1.1.3.2.5.2s.4,0,.5-.2h0s0,0,0,0h0c0,0,.2-.1.3-.1s.2,0,.3.1c0,0,0,0,0,0,.1.1.3.2.5.2s.4,0,.5-.2c0,0,0,0,0,0,0,0,.2-.1.3-.1s.2,0,.3.1c0,0,0,0,0,0,.1.1.3.2.5.2s.4,0,.5-.2c0,0,0,0,0,0,0,0,.2-.1.3-.1s.2,0,.3.1c0,0,0,0,0,0"/>
    <path class="st11" d="M229.8,61.5c0,0,.1.2.1.3s0,.2-.1.3c0,0,0,0,0,0,0,0-.2.1-.3.1s-.2,0-.3-.1c0,0,0,0,0,0,0,0-.1-.2-.1-.3s0-.2.1-.3c0,0,0,0,0,0,.1-.1.2-.3.2-.5s0-.4-.2-.5c0,0,0,0,0,0-.1-.1-.3-.2-.5-.2s-.4,0-.5.2c0,0,0,0,0,0-.1.1-.2.3-.2.5s0,.4.2.5c0,0,0,0,0,0,0,0,.1.2.1.3s0,.2-.1.3c0,0,0,0,0,0,0,0-.2.1-.3.1s-.2,0-.3-.1c0,0,0,0,0,0,0,0-.1-.2-.1-.3s0-.2.1-.3c0,0,0,0,0,0,.1-.1.2-.3.2-.5s0-.4-.2-.5c0,0,0,0,0,0-.1-.1-.3-.2-.5-.2s-.4,0-.5.2c0,0,0,0,0,0-.1.1-.2.3-.2.5s0,.4.2.5c0,0,0,0,0,0,0,0,.1.2.1.3s0,.2-.1.3c0,0,0,0,0,0,0,0-.2.1-.3.1s-.2,0-.3-.1c0,0,0,0,0,0,0,0-.1-.2-.1-.3s0-.2.1-.3c0,0,0,0,0,0,.1-.1.2-.3.2-.5s0-.4-.2-.5c0,0,0,0,0,0,0,0-.1-.2-.1-.3s0-.2.1-.3c0,0,0,0,0,0,0,0,.2-.1.3-.1s.2,0,.3.1c0,0,0,0,0,0,.1.1.3.2.5.2s.4,0,.5-.2c0,0,0,0,0,0,0,0,.2-.1.3-.1s.2,0,.3.1c0,0,0,0,0,0,.1.1.3.2.5.2s.4,0,.5-.2c0,0,0,0,0,0,0,0,.2-.1.3-.1s.2,0,.3.1c0,0,0,0,0,0,0,0,.1.2.1.3s0,.2-.1.3c0,0,0,0,0,0-.1.1-.2.3-.2.5s0,.4.2.5c0,0,0,0,0,0"/>
    <path class="st5" d="M229.8,63.1c0,0,.1.2.1.3s0,.2-.1.3c0,0,0,0,0,0,0,0-.2.1-.3.1s-.2,0-.3-.1c0,0,0,0,0,0-.1-.1-.3-.2-.5-.2s-.4,0-.5.2c0,0,0,0,0,0,0,0-.2.1-.3.1s-.2,0-.3-.1c0,0,0,0,0,0-.1-.1-.3-.2-.5-.2s-.4,0-.5.2c0,0,0,0,0,0,0,0-.2.1-.3.1s-.2,0-.3-.1c0,0,0,0,0,0-.1-.1-.3-.2-.5-.2s-.4,0-.5.2h0c0,0-.2.1-.3.1s-.2,0-.3-.1c0,0,0,0,0,0,0,0-.1-.2-.1-.3s0-.2.1-.3c0,0,0,0,0,0,.1-.1.2-.3.2-.5s0-.4-.2-.5c0,0,0,0,0,0,0,0-.1-.2-.1-.3s0-.2.1-.3c0,0,0,0,0,0,.1-.1.2-.3.2-.5s0-.4-.2-.5c0,0,0,0,0,0,0,0-.1-.2-.1-.3s0-.2.1-.3c0,0,0,0,0,0,.1-.1.2-.3.2-.5s0-.4-.2-.5c0,0,0,0,0,0,0,0-.1-.2-.1-.3s0-.2.1-.3c0,0,0,0,0,0,0,0,.2-.1.3-.1s.2,0,.3.1c0,0,0,0,0,0,.1.1.3.2.5.2s.4,0,.5-.2c0,0,0,0,0,0,0,0,.2-.1.3-.1s.2,0,.3.1c0,0,0,0,0,0,.1.1.3.2.5.2s.4,0,.5-.2c0,0,0,0,0,0,0,0,.2-.1.3-.1s.2,0,.3.1c0,0,0,0,0,0,.1.1.3.2.5.2s.4,0,.5-.2c0,0,0,0,0,0,0,0,.2-.1.3-.1s.2,0,.3.1c0,0,0,0,0,0,0,0,.1.2.1.3s0,.2-.1.3c0,0,0,0,0,0,0,0-.2.1-.3.1s-.2,0-.3-.1c0,0,0,0,0,0-.1-.1-.3-.2-.5-.2s-.4,0-.5.2c0,0,0,0,0,0,0,0-.2.1-.3.1s-.2,0-.3-.1c0,0,0,0,0,0-.1-.1-.3-.2-.5-.2s-.4,0-.5.2c0,0,0,0,0,0,0,0-.2.1-.3.1s-.2,0-.3-.1c0,0,0,0,0,0-.1-.1-.3-.2-.5-.2s-.4,0-.5.2h0c-.1.1-.2.3-.2.5s0,.4.2.5c0,0,0,0,0,0,0,0,.1.2.1.3s0,.2-.1.3c0,0,0,0,0,0-.1.1-.2.3-.2.5s0,.4.2.5h0s0,0,0,0h0c0,0,.1.2.1.3s0,.2-.1.3c0,0,0,0,0,0-.1.1-.2.3-.2.5s0,.4.2.5h0s0,0,0,0h0c.1.1.3.2.5.2s.4,0,.5-.2h0s0,0,0,0h0c0,0,.2-.1.3-.1s.2,0,.3.1c0,0,0,0,0,0,.1.1.3.2.5.2s.4,0,.5-.2c0,0,0,0,0,0,0,0,.2-.1.3-.1s.2,0,.3.1c0,0,0,0,0,0,.1.1.3.2.5.2s.4,0,.5-.2c0,0,0,0,0,0,0,0,.2-.1.3-.1s.2,0,.3.1h0"/>
    <path class="st11" d="M236.2,61.5c0,0,.1.2.1.3s0,.2-.1.3c0,0,0,0,0,0,0,0-.2.1-.3.1s-.2,0-.3-.1c0,0,0,0,0,0,0,0-.1-.2-.1-.3s0-.2.1-.3c0,0,0,0,0,0,.1-.1.2-.3.2-.5s0-.4-.2-.5c0,0,0,0,0,0-.1-.1-.3-.2-.5-.2s-.4,0-.5.2c0,0,0,0,0,0-.1.1-.2.3-.2.5s0,.4.2.5c0,0,0,0,0,0,0,0,.1.2.1.3s0,.2-.1.3c0,0,0,0,0,0,0,0-.2.1-.3.1s-.2,0-.3-.1c0,0,0,0,0,0,0,0-.1-.2-.1-.3s0-.2.1-.3c0,0,0,0,0,0,.1-.1.2-.3.2-.5s0-.4-.2-.5c0,0,0,0,0,0-.1-.1-.3-.2-.5-.2s-.4,0-.5.2c0,0,0,0,0,0-.1.1-.2.3-.2.5s0,.4.2.5c0,0,0,0,0,0,0,0,.1.2.1.3s0,.2-.1.3c0,0,0,0,0,0,0,0-.2.1-.3.1s-.2,0-.3-.1c0,0,0,0,0,0,0,0-.1-.2-.1-.3s0-.2.1-.3c0,0,0,0,0,0,.1-.1.2-.3.2-.5s0-.4-.2-.5c0,0,0,0,0,0,0,0-.1-.2-.1-.3s0-.2.1-.3c0,0,0,0,0,0,0,0,.2-.1.3-.1s.2,0,.3.1c0,0,0,0,0,0,.1.1.3.2.5.2s.4,0,.5-.2c0,0,0,0,0,0,0,0,.2-.1.3-.1s.2,0,.3.1c0,0,0,0,0,0,.1.1.3.2.5.2s.4,0,.5-.2c0,0,0,0,0,0,0,0,.2-.1.3-.1s.2,0,.3.1c0,0,0,0,0,0,0,0,.1.2.1.3s0,.2-.1.3c0,0,0,0,0,0-.1.1-.2.3-.2.5s0,.4.2.5c0,0,0,0,0,0"/>
    <path class="st5" d="M236.2,63.1c0,0,.1.2.1.3s0,.2-.1.3c0,0,0,0,0,0,0,0-.2.1-.3.1s-.2,0-.3-.1c0,0,0,0,0,0-.1-.1-.3-.2-.5-.2s-.4,0-.5.2c0,0,0,0,0,0,0,0-.2.1-.3.1s-.2,0-.3-.1c0,0,0,0,0,0-.1-.1-.3-.2-.5-.2s-.4,0-.5.2c0,0,0,0,0,0,0,0-.2.1-.3.1s-.2,0-.3-.1c0,0,0,0,0,0-.1-.1-.3-.2-.5-.2s-.4,0-.5.2h0c0,0-.2.1-.3.1s-.2,0-.3-.1c0,0,0,0,0,0,0,0-.1-.2-.1-.3s0-.2.1-.3c0,0,0,0,0,0,.1-.1.2-.3.2-.5s0-.4-.2-.5c0,0,0,0,0,0,0,0-.1-.2-.1-.3s0-.2.1-.3c0,0,0,0,0,0,.1-.1.2-.3.2-.5s0-.4-.2-.5c0,0,0,0,0,0,0,0-.1-.2-.1-.3s0-.2.1-.3c0,0,0,0,0,0,.1-.1.2-.3.2-.5s0-.4-.2-.5c0,0,0,0,0,0,0,0-.1-.2-.1-.3s0-.2.1-.3c0,0,0,0,0,0,0,0,.2-.1.3-.1s.2,0,.3.1c0,0,0,0,0,0,.1.1.3.2.5.2s.4,0,.5-.2c0,0,0,0,0,0,0,0,.2-.1.3-.1s.2,0,.3.1c0,0,0,0,0,0,.1.1.3.2.5.2s.4,0,.5-.2c0,0,0,0,0,0,0,0,.2-.1.3-.1s.2,0,.3.1c0,0,0,0,0,0,.1.1.3.2.5.2s.4,0,.5-.2c0,0,0,0,0,0,0,0,.2-.1.3-.1s.2,0,.3.1c0,0,0,0,0,0,0,0,.1.2.1.3s0,.2-.1.3c0,0,0,0,0,0,0,0-.2.1-.3.1s-.2,0-.3-.1c0,0,0,0,0,0-.1-.1-.3-.2-.5-.2s-.4,0-.5.2c0,0,0,0,0,0,0,0-.2.1-.3.1s-.2,0-.3-.1c0,0,0,0,0,0-.1-.1-.3-.2-.5-.2s-.4,0-.5.2c0,0,0,0,0,0,0,0-.2.1-.3.1s-.2,0-.3-.1c0,0,0,0,0,0-.1-.1-.3-.2-.5-.2s-.4,0-.5.2h0c-.1.1-.2.3-.2.5s0,.4.2.5c0,0,0,0,0,0,0,0,.1.2.1.3s0,.2-.1.3c0,0,0,0,0,0-.1.1-.2.3-.2.5s0,.4.2.5h0s0,0,0,0h0c0,0,.1.2.1.3s0,.2-.1.3c0,0,0,0,0,0-.1.1-.2.3-.2.5s0,.4.2.5h0s0,0,0,0h0c.1.1.3.2.5.2s.4,0,.5-.2h0s0,0,0,0h0c0,0,.2-.1.3-.1s.2,0,.3.1c0,0,0,0,0,0,.1.1.3.2.5.2s.4,0,.5-.2c0,0,0,0,0,0,0,0,.2-.1.3-.1s.2,0,.3.1c0,0,0,0,0,0,.1.1.3.2.5.2s.4,0,.5-.2c0,0,0,0,0,0,0,0,.2-.1.3-.1s.2,0,.3.1c0,0,0,0,0,0"/>
    <path class="st11" d="M242.6,61.5c0,0,.1.2.1.3s0,.2-.1.3c0,0,0,0,0,0,0,0-.2.1-.3.1s-.2,0-.3-.1c0,0,0,0,0,0,0,0-.1-.2-.1-.3s0-.2.1-.3c0,0,0,0,0,0,.1-.1.2-.3.2-.5s0-.4-.2-.5c0,0,0,0,0,0-.1-.1-.3-.2-.5-.2s-.4,0-.5.2c0,0,0,0,0,0-.1.1-.2.3-.2.5s0,.4.2.5c0,0,0,0,0,0,0,0,.1.2.1.3s0,.2-.1.3c0,0,0,0,0,0,0,0-.2.1-.3.1s-.2,0-.3-.1c0,0,0,0,0,0,0,0-.1-.2-.1-.3s0-.2.1-.3c0,0,0,0,0,0,.1-.1.2-.3.2-.5s0-.4-.2-.5c0,0,0,0,0,0-.1-.1-.3-.2-.5-.2s-.4,0-.5.2c0,0,0,0,0,0-.1.1-.2.3-.2.5s0,.4.2.5c0,0,0,0,0,0,0,0,.1.2.1.3s0,.2-.1.3c0,0,0,0,0,0,0,0-.2.1-.3.1s-.2,0-.3-.1c0,0,0,0,0,0,0,0-.1-.2-.1-.3s0-.2.1-.3c0,0,0,0,0,0,.1-.1.2-.3.2-.5s0-.4-.2-.5c0,0,0,0,0,0,0,0-.1-.2-.1-.3s0-.2.1-.3c0,0,0,0,0,0,0,0,.2-.1.3-.1s.2,0,.3.1c0,0,0,0,0,0,.1.1.3.2.5.2s.4,0,.5-.2c0,0,0,0,0,0,0,0,.2-.1.3-.1s.2,0,.3.1c0,0,0,0,0,0,.1.1.3.2.5.2s.4,0,.5-.2c0,0,0,0,0,0,0,0,.2-.1.3-.1s.2,0,.3.1c0,0,0,0,0,0,0,0,.1.2.1.3s0,.2-.1.3c0,0,0,0,0,0-.1.1-.2.3-.2.5s0,.4.2.5c0,0,0,0,0,0"/>
    <path class="st5" d="M242.6,63.1c0,0,.1.2.1.3s0,.2-.1.3c0,0,0,0,0,0,0,0-.2.1-.3.1s-.2,0-.3-.1c0,0,0,0,0,0-.1-.1-.3-.2-.5-.2s-.4,0-.5.2c0,0,0,0,0,0,0,0-.2.1-.3.1s-.2,0-.3-.1c0,0,0,0,0,0-.1-.1-.3-.2-.5-.2s-.4,0-.5.2c0,0,0,0,0,0,0,0-.2.1-.3.1s-.2,0-.3-.1c0,0,0,0,0,0-.1-.1-.3-.2-.5-.2s-.4,0-.5.2h0c0,0-.2.1-.3.1s-.2,0-.3-.1c0,0,0,0,0,0,0,0-.1-.2-.1-.3s0-.2.1-.3c0,0,0,0,0,0,.1-.1.2-.3.2-.5s0-.4-.2-.5c0,0,0,0,0,0,0,0-.1-.2-.1-.3s0-.2.1-.3c0,0,0,0,0,0,.1-.1.2-.3.2-.5s0-.4-.2-.5c0,0,0,0,0,0,0,0-.1-.2-.1-.3s0-.2.1-.3c0,0,0,0,0,0,.1-.1.2-.3.2-.5s0-.4-.2-.5c0,0,0,0,0,0,0,0-.1-.2-.1-.3s0-.2.1-.3c0,0,0,0,0,0,0,0,.2-.1.3-.1s.2,0,.3.1c0,0,0,0,0,0,.1.1.3.2.5.2s.4,0,.5-.2c0,0,0,0,0,0,0,0,.2-.1.3-.1s.2,0,.3.1c0,0,0,0,0,0,.1.1.3.2.5.2s.4,0,.5-.2c0,0,0,0,0,0,0,0,.2-.1.3-.1s.2,0,.3.1c0,0,0,0,0,0,.1.1.3.2.5.2s.4,0,.5-.2c0,0,0,0,0,0,0,0,.2-.1.3-.1s.2,0,.3.1c0,0,0,0,0,0,0,0,.1.2.1.3s0,.2-.1.3c0,0,0,0,0,0,0,0-.2.1-.3.1s-.2,0-.3-.1c0,0,0,0,0,0-.1-.1-.3-.2-.5-.2s-.4,0-.5.2c0,0,0,0,0,0,0,0-.2.1-.3.1s-.2,0-.3-.1c0,0,0,0,0,0-.1-.1-.3-.2-.5-.2s-.4,0-.5.2c0,0,0,0,0,0,0,0-.2.1-.3.1s-.2,0-.3-.1c0,0,0,0,0,0-.1-.1-.3-.2-.5-.2s-.4,0-.5.2h0c-.1.1-.2.3-.2.5s0,.4.2.5c0,0,0,0,0,0,0,0,.1.2.1.3s0,.2-.1.3c0,0,0,0,0,0-.1.1-.2.3-.2.5s0,.4.2.5h0s0,0,0,0h0c0,0,.1.2.1.3s0,.2-.1.3c0,0,0,0,0,0-.1.1-.2.3-.2.5s0,.4.2.5h0s0,0,0,0h0c.1.1.3.2.5.2s.4,0,.5-.2h0s0,0,0,0h0c0,0,.2-.1.3-.1s.2,0,.3.1c0,0,0,0,0,0,.1.1.3.2.5.2s.4,0,.5-.2c0,0,0,0,0,0,0,0,.2-.1.3-.1s.2,0,.3.1c0,0,0,0,0,0,.1.1.3.2.5.2s.4,0,.5-.2c0,0,0,0,0,0,0,0,.2-.1.3-.1s.2,0,.3.1h0"/>
    <path class="st11" d="M236.2,68c0,0,.1.2.1.3s0,.2-.1.3c0,0,0,0,0,0,0,0-.2.1-.3.1s-.2,0-.3-.1c0,0,0,0,0,0,0,0-.1-.2-.1-.3s0-.2.1-.3c0,0,0,0,0,0,.1-.1.2-.3.2-.5s0-.4-.2-.5c0,0,0,0,0,0-.1-.1-.3-.2-.5-.2s-.4,0-.5.2c0,0,0,0,0,0-.1.1-.2.3-.2.5s0,.4.2.5c0,0,0,0,0,0,0,0,.1.2.1.3s0,.2-.1.3c0,0,0,0,0,0,0,0-.2.1-.3.1s-.2,0-.3-.1c0,0,0,0,0,0,0,0-.1-.2-.1-.3s0-.2.1-.3c0,0,0,0,0,0,.1-.1.2-.3.2-.5s0-.4-.2-.5c0,0,0,0,0,0-.1-.1-.3-.2-.5-.2s-.4,0-.5.2c0,0,0,0,0,0-.1.1-.2.3-.2.5s0,.4.2.5c0,0,0,0,0,0,0,0,.1.2.1.3s0,.2-.1.3c0,0,0,0,0,0,0,0-.2.1-.3.1s-.2,0-.3-.1c0,0,0,0,0,0,0,0-.1-.2-.1-.3s0-.2.1-.3c0,0,0,0,0,0,.1-.1.2-.3.2-.5s0-.4-.2-.5c0,0,0,0,0,0,0,0-.1-.2-.1-.3s0-.2.1-.3c0,0,0,0,0,0,0,0,.2-.1.3-.1s.2,0,.3.1c0,0,0,0,0,0,.1.1.3.2.5.2s.4,0,.5-.2c0,0,0,0,0,0,0,0,.2-.1.3-.1s.2,0,.3.1c0,0,0,0,0,0,.1.1.3.2.5.2s.4,0,.5-.2c0,0,0,0,0,0,0,0,.2-.1.3-.1s.2,0,.3.1c0,0,0,0,0,0,0,0,.1.2.1.3s0,.2-.1.3c0,0,0,0,0,0-.1.1-.2.3-.2.5s0,.4.2.5c0,0,0,0,0,0"/>
    <path class="st5" d="M236.2,69.6c0,0,.1.2.1.3s0,.2-.1.3c0,0,0,0,0,0,0,0-.2.1-.3.1s-.2,0-.3-.1c0,0,0,0,0,0-.1-.1-.3-.2-.5-.2s-.4,0-.5.2c0,0,0,0,0,0,0,0-.2.1-.3.1s-.2,0-.3-.1c0,0,0,0,0,0-.1-.1-.3-.2-.5-.2s-.4,0-.5.2c0,0,0,0,0,0,0,0-.2.1-.3.1s-.2,0-.3-.1c0,0,0,0,0,0-.1-.1-.3-.2-.5-.2s-.4,0-.5.2h0c0,0-.2.1-.3.1s-.2,0-.3-.1c0,0,0,0,0,0,0,0-.1-.2-.1-.3s0-.2.1-.3c0,0,0,0,0,0,.1-.1.2-.3.2-.5s0-.4-.2-.5c0,0,0,0,0,0,0,0-.1-.2-.1-.3s0-.2.1-.3c0,0,0,0,0,0,.1-.1.2-.3.2-.5s0-.4-.2-.5c0,0,0,0,0,0,0,0-.1-.2-.1-.3s0-.2.1-.3c0,0,0,0,0,0,.1-.1.2-.3.2-.5s0-.4-.2-.5c0,0,0,0,0,0,0,0-.1-.2-.1-.3s0-.2.1-.3c0,0,0,0,0,0,0,0,.2-.1.3-.1s.2,0,.3.1c0,0,0,0,0,0,.1.1.3.2.5.2s.4,0,.5-.2c0,0,0,0,0,0,0,0,.2-.1.3-.1s.2,0,.3.1c0,0,0,0,0,0,.1.1.3.2.5.2s.4,0,.5-.2c0,0,0,0,0,0,0,0,.2-.1.3-.1s.2,0,.3.1c0,0,0,0,0,0,.1.1.3.2.5.2s.4,0,.5-.2c0,0,0,0,0,0,0,0,.2-.1.3-.1s.2,0,.3.1c0,0,0,0,0,0,0,0,.1.2.1.3s0,.2-.1.3c0,0,0,0,0,0,0,0-.2.1-.3.1s-.2,0-.3-.1c0,0,0,0,0,0-.1-.1-.3-.2-.5-.2s-.4,0-.5.2c0,0,0,0,0,0,0,0-.2.1-.3.1s-.2,0-.3-.1c0,0,0,0,0,0-.1-.1-.3-.2-.5-.2s-.4,0-.5.2c0,0,0,0,0,0,0,0-.2.1-.3.1s-.2,0-.3-.1c0,0,0,0,0,0-.1-.1-.3-.2-.5-.2s-.4,0-.5.2h0c-.1.1-.2.3-.2.5s0,.4.2.5c0,0,0,0,0,0,0,0,.1.2.1.3s0,.2-.1.3c0,0,0,0,0,0-.1.1-.2.3-.2.5s0,.4.2.5h0s0,0,0,0h0c0,0,.1.2.1.3s0,.2-.1.3c0,0,0,0,0,0-.1.1-.2.3-.2.5s0,.4.2.5h0s0,0,0,0h0c.1.1.3.2.5.2s.4,0,.5-.2h0s0,0,0,0h0c0,0,.2-.1.3-.1s.2,0,.3.1c0,0,0,0,0,0,.1.1.3.2.5.2s.4,0,.5-.2c0,0,0,0,0,0,0,0,.2-.1.3-.1s.2,0,.3.1c0,0,0,0,0,0,.1.1.3.2.5.2s.4,0,.5-.2c0,0,0,0,0,0,0,0,.2-.1.3-.1s.2,0,.3.1c0,0,0,0,0,0"/>
    <path class="st11" d="M242.6,68c0,0,.1.2.1.3s0,.2-.1.3c0,0,0,0,0,0,0,0-.2.1-.3.1s-.2,0-.3-.1c0,0,0,0,0,0,0,0-.1-.2-.1-.3s0-.2.1-.3c0,0,0,0,0,0,.1-.1.2-.3.2-.5s0-.4-.2-.5c0,0,0,0,0,0-.1-.1-.3-.2-.5-.2s-.4,0-.5.2c0,0,0,0,0,0-.1.1-.2.3-.2.5s0,.4.2.5c0,0,0,0,0,0,0,0,.1.2.1.3s0,.2-.1.3c0,0,0,0,0,0,0,0-.2.1-.3.1s-.2,0-.3-.1c0,0,0,0,0,0,0,0-.1-.2-.1-.3s0-.2.1-.3c0,0,0,0,0,0,.1-.1.2-.3.2-.5s0-.4-.2-.5c0,0,0,0,0,0-.1-.1-.3-.2-.5-.2s-.4,0-.5.2c0,0,0,0,0,0-.1.1-.2.3-.2.5s0,.4.2.5c0,0,0,0,0,0,0,0,.1.2.1.3s0,.2-.1.3c0,0,0,0,0,0,0,0-.2.1-.3.1s-.2,0-.3-.1c0,0,0,0,0,0,0,0-.1-.2-.1-.3s0-.2.1-.3c0,0,0,0,0,0,.1-.1.2-.3.2-.5s0-.4-.2-.5c0,0,0,0,0,0,0,0-.1-.2-.1-.3s0-.2.1-.3c0,0,0,0,0,0,0,0,.2-.1.3-.1s.2,0,.3.1c0,0,0,0,0,0,.1.1.3.2.5.2s.4,0,.5-.2c0,0,0,0,0,0,0,0,.2-.1.3-.1s.2,0,.3.1c0,0,0,0,0,0,.1.1.3.2.5.2s.4,0,.5-.2c0,0,0,0,0,0,0,0,.2-.1.3-.1s.2,0,.3.1c0,0,0,0,0,0,0,0,.1.2.1.3s0,.2-.1.3c0,0,0,0,0,0-.1.1-.2.3-.2.5s0,.4.2.5c0,0,0,0,0,0"/>
    <path class="st5" d="M242.6,69.6c0,0,.1.2.1.3s0,.2-.1.3c0,0,0,0,0,0,0,0-.2.1-.3.1s-.2,0-.3-.1c0,0,0,0,0,0-.1-.1-.3-.2-.5-.2s-.4,0-.5.2c0,0,0,0,0,0,0,0-.2.1-.3.1s-.2,0-.3-.1c0,0,0,0,0,0-.1-.1-.3-.2-.5-.2s-.4,0-.5.2c0,0,0,0,0,0,0,0-.2.1-.3.1s-.2,0-.3-.1c0,0,0,0,0,0-.1-.1-.3-.2-.5-.2s-.4,0-.5.2h0c0,0-.2.1-.3.1s-.2,0-.3-.1c0,0,0,0,0,0,0,0-.1-.2-.1-.3s0-.2.1-.3c0,0,0,0,0,0,.1-.1.2-.3.2-.5s0-.4-.2-.5c0,0,0,0,0,0,0,0-.1-.2-.1-.3s0-.2.1-.3c0,0,0,0,0,0,.1-.1.2-.3.2-.5s0-.4-.2-.5c0,0,0,0,0,0,0,0-.1-.2-.1-.3s0-.2.1-.3c0,0,0,0,0,0,.1-.1.2-.3.2-.5s0-.4-.2-.5c0,0,0,0,0,0,0,0-.1-.2-.1-.3s0-.2.1-.3c0,0,0,0,0,0,0,0,.2-.1.3-.1s.2,0,.3.1c0,0,0,0,0,0,.1.1.3.2.5.2s.4,0,.5-.2c0,0,0,0,0,0,0,0,.2-.1.3-.1s.2,0,.3.1c0,0,0,0,0,0,.1.1.3.2.5.2s.4,0,.5-.2c0,0,0,0,0,0,0,0,.2-.1.3-.1s.2,0,.3.1c0,0,0,0,0,0,.1.1.3.2.5.2s.4,0,.5-.2c0,0,0,0,0,0,0,0,.2-.1.3-.1s.2,0,.3.1c0,0,0,0,0,0,0,0,.1.2.1.3s0,.2-.1.3c0,0,0,0,0,0,0,0-.2.1-.3.1s-.2,0-.3-.1c0,0,0,0,0,0-.1-.1-.3-.2-.5-.2s-.4,0-.5.2c0,0,0,0,0,0,0,0-.2.1-.3.1s-.2,0-.3-.1c0,0,0,0,0,0-.1-.1-.3-.2-.5-.2s-.4,0-.5.2c0,0,0,0,0,0,0,0-.2.1-.3.1s-.2,0-.3-.1c0,0,0,0,0,0-.1-.1-.3-.2-.5-.2s-.4,0-.5.2h0c-.1.1-.2.3-.2.5s0,.4.2.5c0,0,0,0,0,0,0,0,.1.2.1.3s0,.2-.1.3c0,0,0,0,0,0-.1.1-.2.3-.2.5s0,.4.2.5h0s0,0,0,0h0c0,0,.1.2.1.3s0,.2-.1.3c0,0,0,0,0,0-.1.1-.2.3-.2.5s0,.4.2.5h0s0,0,0,0h0c.1.1.3.2.5.2s.4,0,.5-.2h0s0,0,0,0h0c0,0,.2-.1.3-.1s.2,0,.3.1c0,0,0,0,0,0,.1.1.3.2.5.2s.4,0,.5-.2c0,0,0,0,0,0,0,0,.2-.1.3-.1s.2,0,.3.1c0,0,0,0,0,0,.1.1.3.2.5.2s.4,0,.5-.2c0,0,0,0,0,0,0,0,.2-.1.3-.1s.2,0,.3.1c0,0,0,0,0,0"/>
  </g>
  <rect class="st9" width="252" height="144"/>
  <text class="st0" transform="translate(201.3 15.5)"><tspan x="0" y="0">D</tspan></text>
  <text class="st0" transform="translate(204.7 15.5)"><tspan class="st17" x="0" y="0">e</tspan><tspan x="2.8" y="0">v</tspan></text>
  <text class="st0" transform="translate(210 15.5)"><tspan class="st13" x="0" y="0">elo</tspan><tspan x="7" y="0">p</tspan></text>
  <text class="st0" transform="translate(223.2 15.5)"><tspan x="0" y="0">T</tspan></text>
  <text class="st0" transform="translate(225.9 15.5)"><tspan x="0" y="0">r</tspan></text>
  <text class="st0" transform="translate(227.9 15.5)"><tspan x="0" y="0">a</tspan></text>
  <text class="st0" transform="translate(230.9 15.5)"><tspan x="0" y="0">n</tspan></text>
  <text class="st0" transform="translate(233.9 15.5)"><tspan x="0" y="0">s</tspan></text>
  <text class="st0" transform="translate(236.5 15.5)"><tspan x="0" y="0">f</tspan></text>
  <text class="st0" transform="translate(238.2 15.5)"><tspan x="0" y="0">e</tspan></text>
  <text class="st0" transform="translate(241.1 15.5)"><tspan x="0" y="0">r</tspan></text>
  <text class="st0" transform="translate(180 15.5)"><tspan class="st13" x="0" y="0">Desi</tspan><tspan x="10.2" y="0">g</tspan></text>
  <text class="st0" transform="translate(193.2 15.5)"><tspan x="0" y="0">n</tspan></text>
  <path class="st12" d="M198.6,14.1c0,.2-.2.4-.4.4s-.4-.2-.4-.4.2-.4.4-.4.4.2.4.4"/>
  <path class="st8" d="M222.3,14.1c0,.2-.2.4-.4.4s-.4-.2-.4-.4.2-.4.4-.4.4.2.4.4"/>
  <rect class="st9" width="252" height="144"/>
  <g id="Layer_2">
    <path class="st10" d="M9.2,123.5l2,1.6c.2.1.4.1.6,0l2-1.6"/>
    <path class="st10" d="M13.7,125.9v-2.6c0-.1,0-.2-.2-.2h-4.1c-.1,0-.2,0-.2.2v2.9c0,.1,0,.2.2.2h4.3"/>
  </g>
  <g id="Layer_21" data-name="Layer_2">
    <ellipse class="st10" cx="11.4" cy="131.4" rx="1" ry="2.5"/>
    <line class="st10" x1="9.1" y1="130.6" x2="13.7" y2="130.6"/>
    <line class="st10" x1="13" y1="132.3" x2="9.1" y2="132.3"/>
    <circle class="st10" cx="11.4" cy="131.4" r="2.5"/>
  </g>
  <g id="Layer_22" data-name="Layer_2">
    <path class="st10" d="M177.2,120.2s-2-2-2-3.5.9-2,2-2,2,.9,2,2-.9,2.2-1.5,2.9"/>
    <circle class="st10" cx="177.2" cy="116.7" r=".9"/>
  </g>
  <path class="st12" d="M13.4,117.6s0,0,0,0c0,0,0,0,0,0,0-.4-.2-.8-.6-1.1-.3-.3-.7-.5-1.1-.6,0,0,0,0,0,0,0,0,0,0,0,0s0,0,0,0c0,0,0,0,0,0,.5,0,1,.3,1.3.6.4.4.6.8.6,1.3,0,0,0,0,0,0,0,0,0,0,0,0ZM12.3,117.6s0,0,0,0c0,0,0,0,0,0,0-.2-.1-.3-.2-.4-.1-.1-.3-.2-.4-.2,0,0,0,0,0,0,0,0,0,0,0,0,0,0,0,0,0,0,0,0,0,0,0,0,.2,0,.4.2.6.3.2.2.3.3.3.6,0,0,0,0,0,0,0,0,0,0,0,0ZM13.2,119.9c-.4,0-.9-.1-1.3-.3-.5-.2-.9-.5-1.3-.9-.4-.4-.7-.8-.9-1.3-.2-.5-.3-.9-.3-1.3s0-.1,0-.2c0,0,.1,0,.2,0h.6c0,0,.1,0,.2,0,0,0,0,.1.1.2v.6c.1,0,.1.1.1.2,0,0,0,.1,0,.1l-.6.5c.1.2.2.4.4.6.1.2.3.3.4.5.2.2.3.3.5.4.2.1.4.3.6.4l.6-.6s0,0,.1,0c0,0,.1,0,.2,0h.5c0,.1.1.2.2.2,0,0,0,.1,0,.2v.6c0,0,0,.1,0,.2,0,0-.1,0-.2,0ZM9.9,117.2l.5-.5s0,0,0,0c0,0,0,0,0,0v-.6c-.1,0-.1,0-.2,0,0,0,0,0,0,0h-.5s0,0,0,0c0,0,0,0,0,0,0,.2,0,.4,0,.6,0,.2.1.4.2.6ZM12.1,119.4c.2,0,.4.2.6.2.2,0,.4,0,.5,0,0,0,0,0,0,0,0,0,0,0,0,0v-.5s0,0,0,0c0,0,0,0,0,0h-.5c0-.1,0-.1,0-.1,0,0,0,0,0,0l-.5.5Z"/>
</svg>