<?xml version="1.0" encoding="UTF-8"?>
<svg id="Layer_1" xmlns="http://www.w3.org/2000/svg" version="1.1" viewBox="0 0 252 144">
  <!-- Generator: Adobe Illustrator 29.3.1, SVG Export Plug-In . SVG Version: 2.1.0 Build 151)  -->
  <defs>
    <style>
      .st0 {
        letter-spacing: 0em;
      }

      .st0, .st1, .st2, .st3, .st4 {
        fill: #302364;
      }

      .st0, .st2, .st5, .st4 {
        font-family: Qugan-Regular, Qugan;
      }

      .st0, .st4 {
        font-size: 2.8px;
      }

      .st1 {
        font-family: Arial-BoldMT, Arial;
        font-size: 1.6px;
        font-weight: 700;
      }

      .st2 {
        font-size: 7.8px;
      }

      .st5 {
        font-size: 4.6px;
      }

      .st5, .st6 {
        fill: #fff7ee;
      }

      .st7 {
        fill: #f37321;
      }

      .st8, .st9 {
        fill-rule: evenodd;
      }

      .st8, .st10 {
        fill: #2e2664;
      }

      .st9 {
        fill: #f37423;
      }

      .st11 {
        fill: #7562ab;
      }

      .st12 {
        letter-spacing: 0em;
      }

      .st4 {
        letter-spacing: 0em;
      }

      .st13 {
        letter-spacing: 0em;
      }
    </style>
  </defs>
  <rect class="st10" width="251.7" height="91.3"/>
  <rect class="st6" y="40.7" width="252" height="103.3"/>
  <path class="st10" d="M59.6,125.6c0,.1-.1.2-.2.2s-.2-.1-.2-.2.1-.2.2-.2.2.1.2.2"/>
  <path class="st10" d="M73.3,125.6c0,.1-.1.2-.2.2s-.2-.1-.2-.2.1-.2.2-.2.2.1.2.2"/>
  <g>
    <path class="st8" d="M235.7,109.7c.2-.2.6-.2.8,0,2.6,2.6,2.6,6.9,0,9.6-.2.2-.6.2-.8,0-.2-.2-.2-.6,0-.8,2.2-2.2,2.2-5.8,0-8-.2-.2-.2-.6,0-.8Z"/>
    <path class="st8" d="M233.9,110.9c.2-.2.6-.2.8,0,2,2,2,5.2,0,7.2-.2.2-.6.2-.8,0-.2-.2-.2-.6,0-.8,1.5-1.5,1.5-4,0-5.6-.2-.2-.2-.6,0-.8Z"/>
    <path class="st8" d="M232.2,112c.2-.2.6-.2.8,0,1.3,1.3,1.3,3.5,0,4.8-.2.2-.6.2-.8,0-.2-.2-.2-.6,0-.8.9-.9.9-2.3,0-3.2-.2-.2-.2-.6,0-.8Z"/>
    <path class="st9" d="M230.4,113.1c.2-.2.6-.2.8,0,.7.7.7,1.7,0,2.4-.2.2-.6.2-.8,0-.2-.2-.2-.6,0-.8.2-.2.2-.6,0-.8-.2-.2-.2-.6,0-.8Z"/>
  </g>
  <path class="st6" d="M13.2,3.1c0,0,.1.2.1.3s0,.2-.1.3c0,0,0,0,0,0,0,0-.2.1-.3.1s-.2,0-.3-.1c0,0,0,0,0,0,0,0-.1-.2-.1-.3s0-.2.1-.3c0,0,0,0,0,0,.1-.1.2-.3.2-.5s0-.4-.2-.5c0,0,0,0,0,0-.1-.1-.3-.2-.5-.2s-.4,0-.5.2c0,0,0,0,0,0-.1.1-.2.3-.2.5s0,.4.2.5c0,0,0,0,0,0,0,0,.1.2.1.3s0,.2-.1.3c0,0,0,0,0,0,0,0-.2.1-.3.1s-.2,0-.3-.1c0,0,0,0,0,0,0,0-.1-.2-.1-.3s0-.2.1-.3c0,0,0,0,0,0,.1-.1.2-.3.2-.5s0-.4-.2-.5c0,0,0,0,0,0-.1-.1-.3-.2-.5-.2s-.4,0-.5.2c0,0,0,0,0,0-.1.1-.2.3-.2.5s0,.4.2.5c0,0,0,0,0,0,0,0,.1.2.1.3s0,.2-.1.3c0,0,0,0,0,0,0,0-.2.1-.3.1s-.2,0-.3-.1c0,0,0,0,0,0,0,0-.1-.2-.1-.3s0-.2.1-.3c0,0,0,0,0,0,.1-.1.2-.3.2-.5s0-.4-.2-.5c0,0,0,0,0,0,0,0-.1-.2-.1-.3s0-.2.1-.3c0,0,0,0,0,0,0,0,.2-.1.3-.1s.2,0,.3.1c0,0,0,0,0,0,.1.1.3.2.5.2s.4,0,.5-.2c0,0,0,0,0,0,0,0,.2-.1.3-.1s.2,0,.3.1c0,0,0,0,0,0,.1.1.3.2.5.2s.4,0,.5-.2c0,0,0,0,0,0,0,0,.2-.1.3-.1s.2,0,.3.1c0,0,0,0,0,0,0,0,.1.2.1.3s0,.2-.1.3c0,0,0,0,0,0-.1.1-.2.3-.2.5s0,.4.2.5c0,0,0,0,0,0"/>
  <path class="st6" d="M13.2,4.7c0,0,.1.2.1.3s0,.2-.1.3c0,0,0,0,0,0,0,0-.2.1-.3.1s-.2,0-.3-.1c0,0,0,0,0,0-.1-.1-.3-.2-.5-.2s-.4,0-.5.2c0,0,0,0,0,0,0,0-.2.1-.3.1s-.2,0-.3-.1c0,0,0,0,0,0-.1-.1-.3-.2-.5-.2s-.4,0-.5.2c0,0,0,0,0,0,0,0-.2.1-.3.1s-.2,0-.3-.1c0,0,0,0,0,0-.1-.1-.3-.2-.5-.2s-.4,0-.5.2h0c0,0-.2.1-.3.1s-.2,0-.3-.1c0,0,0,0,0,0,0,0-.1-.2-.1-.3s0-.2.1-.3c0,0,0,0,0,0,.1-.1.2-.3.2-.5s0-.4-.2-.5c0,0,0,0,0,0,0,0-.1-.2-.1-.3s0-.2.1-.3c0,0,0,0,0,0,.1-.1.2-.3.2-.5s0-.4-.2-.5c0,0,0,0,0,0,0,0-.1-.2-.1-.3s0-.2.1-.3c0,0,0,0,0,0,.1-.1.2-.3.2-.5s0-.4-.2-.5c0,0,0,0,0,0,0,0-.1-.2-.1-.3s0-.2.1-.3c0,0,0,0,0,0,0,0,.2-.1.3-.1s.2,0,.3.1c0,0,0,0,0,0,.1.1.3.2.5.2s.4,0,.5-.2c0,0,0,0,0,0,0,0,.2-.1.3-.1s.2,0,.3.1c0,0,0,0,0,0,.1.1.3.2.5.2s.4,0,.5-.2c0,0,0,0,0,0,0,0,.2-.1.3-.1s.2,0,.3.1c0,0,0,0,0,0,.1.1.3.2.5.2s.4,0,.5-.2c0,0,0,0,0,0,0,0,.2-.1.3-.1s.2,0,.3.1c0,0,0,0,0,0,0,0,.1.2.1.3s0,.2-.1.3c0,0,0,0,0,0,0,0-.2.1-.3.1s-.2,0-.3-.1c0,0,0,0,0,0-.1-.1-.3-.2-.5-.2s-.4,0-.5.2c0,0,0,0,0,0,0,0-.2.1-.3.1s-.2,0-.3-.1c0,0,0,0,0,0-.1-.1-.3-.2-.5-.2s-.4,0-.5.2c0,0,0,0,0,0,0,0-.2.1-.3.1s-.2,0-.3-.1c0,0,0,0,0,0-.1-.1-.3-.2-.5-.2s-.4,0-.5.2h0c-.1.1-.2.3-.2.5s0,.4.2.5c0,0,0,0,0,0,0,0,.1.2.1.3s0,.2-.1.3c0,0,0,0,0,0-.1.1-.2.3-.2.5s0,.4.2.5h0s0,0,0,0h0c0,0,.1.2.1.3s0,.2-.1.3c0,0,0,0,0,0-.1.1-.2.3-.2.5s0,.4.2.5h0s0,0,0,0h0c.1.1.3.2.5.2s.4,0,.5-.2h0s0,0,0,0h0c0,0,.2-.1.3-.1s.2,0,.3.1c0,0,0,0,0,0,.1.1.3.2.5.2s.4,0,.5-.2c0,0,0,0,0,0,0,0,.2-.1.3-.1s.2,0,.3.1c0,0,0,0,0,0,.1.1.3.2.5.2s.4,0,.5-.2c0,0,0,0,0,0,0,0,.2-.1.3-.1s.2,0,.3.1c0,0,0,0,0,0"/>
  <path class="st6" d="M19.6,3.1c0,0,.1.2.1.3s0,.2-.1.3c0,0,0,0,0,0,0,0-.2.1-.3.1s-.2,0-.3-.1c0,0,0,0,0,0,0,0-.1-.2-.1-.3s0-.2.1-.3c0,0,0,0,0,0,.1-.1.2-.3.2-.5s0-.4-.2-.5c0,0,0,0,0,0-.1-.1-.3-.2-.5-.2s-.4,0-.5.2c0,0,0,0,0,0-.1.1-.2.3-.2.5s0,.4.2.5c0,0,0,0,0,0,0,0,.1.2.1.3s0,.2-.1.3c0,0,0,0,0,0,0,0-.2.1-.3.1s-.2,0-.3-.1c0,0,0,0,0,0,0,0-.1-.2-.1-.3s0-.2.1-.3c0,0,0,0,0,0,.1-.1.2-.3.2-.5s0-.4-.2-.5c0,0,0,0,0,0-.1-.1-.3-.2-.5-.2s-.4,0-.5.2c0,0,0,0,0,0-.1.1-.2.3-.2.5s0,.4.2.5c0,0,0,0,0,0,0,0,.1.2.1.3s0,.2-.1.3c0,0,0,0,0,0,0,0-.2.1-.3.1s-.2,0-.3-.1c0,0,0,0,0,0,0,0-.1-.2-.1-.3s0-.2.1-.3c0,0,0,0,0,0,.1-.1.2-.3.2-.5s0-.4-.2-.5c0,0,0,0,0,0,0,0-.1-.2-.1-.3s0-.2.1-.3c0,0,0,0,0,0,0,0,.2-.1.3-.1s.2,0,.3.1c0,0,0,0,0,0,.1.1.3.2.5.2s.4,0,.5-.2c0,0,0,0,0,0,0,0,.2-.1.3-.1s.2,0,.3.1c0,0,0,0,0,0,.1.1.3.2.5.2s.4,0,.5-.2c0,0,0,0,0,0,0,0,.2-.1.3-.1s.2,0,.3.1c0,0,0,0,0,0,0,0,.1.2.1.3s0,.2-.1.3c0,0,0,0,0,0-.1.1-.2.3-.2.5s0,.4.2.5c0,0,0,0,0,0"/>
  <path class="st6" d="M19.6,4.7c0,0,.1.2.1.3s0,.2-.1.3c0,0,0,0,0,0,0,0-.2.1-.3.1s-.2,0-.3-.1c0,0,0,0,0,0-.1-.1-.3-.2-.5-.2s-.4,0-.5.2c0,0,0,0,0,0,0,0-.2.1-.3.1s-.2,0-.3-.1c0,0,0,0,0,0-.1-.1-.3-.2-.5-.2s-.4,0-.5.2c0,0,0,0,0,0,0,0-.2.1-.3.1s-.2,0-.3-.1c0,0,0,0,0,0-.1-.1-.3-.2-.5-.2s-.4,0-.5.2h0c0,0-.2.1-.3.1s-.2,0-.3-.1c0,0,0,0,0,0,0,0-.1-.2-.1-.3s0-.2.1-.3c0,0,0,0,0,0,.1-.1.2-.3.2-.5s0-.4-.2-.5c0,0,0,0,0,0,0,0-.1-.2-.1-.3s0-.2.1-.3c0,0,0,0,0,0,.1-.1.2-.3.2-.5s0-.4-.2-.5c0,0,0,0,0,0,0,0-.1-.2-.1-.3s0-.2.1-.3c0,0,0,0,0,0,.1-.1.2-.3.2-.5s0-.4-.2-.5c0,0,0,0,0,0,0,0-.1-.2-.1-.3s0-.2.1-.3c0,0,0,0,0,0,0,0,.2-.1.3-.1s.2,0,.3.1c0,0,0,0,0,0,.1.1.3.2.5.2s.4,0,.5-.2c0,0,0,0,0,0,0,0,.2-.1.3-.1s.2,0,.3.1c0,0,0,0,0,0,.1.1.3.2.5.2s.4,0,.5-.2c0,0,0,0,0,0,0,0,.2-.1.3-.1s.2,0,.3.1c0,0,0,0,0,0,.1.1.3.2.5.2s.4,0,.5-.2c0,0,0,0,0,0,0,0,.2-.1.3-.1s.2,0,.3.1c0,0,0,0,0,0,0,0,.1.2.1.3s0,.2-.1.3c0,0,0,0,0,0,0,0-.2.1-.3.1s-.2,0-.3-.1c0,0,0,0,0,0-.1-.1-.3-.2-.5-.2s-.4,0-.5.2c0,0,0,0,0,0,0,0-.2.1-.3.1s-.2,0-.3-.1c0,0,0,0,0,0-.1-.1-.3-.2-.5-.2s-.4,0-.5.2c0,0,0,0,0,0,0,0-.2.1-.3.1s-.2,0-.3-.1c0,0,0,0,0,0-.1-.1-.3-.2-.5-.2s-.4,0-.5.2h0c-.1.1-.2.3-.2.5s0,.4.2.5c0,0,0,0,0,0,0,0,.1.2.1.3s0,.2-.1.3c0,0,0,0,0,0-.1.1-.2.3-.2.5s0,.4.2.5h0s0,0,0,0h0c0,0,.1.2.1.3s0,.2-.1.3c0,0,0,0,0,0-.1.1-.2.3-.2.5s0,.4.2.5h0s0,0,0,0h0c.1.1.3.2.5.2s.4,0,.5-.2h0s0,0,0,0h0c0,0,.2-.1.3-.1s.2,0,.3.1c0,0,0,0,0,0,.1.1.3.2.5.2s.4,0,.5-.2c0,0,0,0,0,0,0,0,.2-.1.3-.1s.2,0,.3.1c0,0,0,0,0,0,.1.1.3.2.5.2s.4,0,.5-.2c0,0,0,0,0,0,0,0,.2-.1.3-.1s.2,0,.3.1c0,0,0,0,0,0"/>
  <path class="st6" d="M26,3.1c0,0,.1.2.1.3s0,.2-.1.3c0,0,0,0,0,0,0,0-.2.1-.3.1s-.2,0-.3-.1c0,0,0,0,0,0,0,0-.1-.2-.1-.3s0-.2.1-.3c0,0,0,0,0,0,.1-.1.2-.3.2-.5s0-.4-.2-.5c0,0,0,0,0,0-.1-.1-.3-.2-.5-.2s-.4,0-.5.2c0,0,0,0,0,0-.1.1-.2.3-.2.5s0,.4.2.5c0,0,0,0,0,0,0,0,.1.2.1.3s0,.2-.1.3c0,0,0,0,0,0,0,0-.2.1-.3.1s-.2,0-.3-.1c0,0,0,0,0,0,0,0-.1-.2-.1-.3s0-.2.1-.3c0,0,0,0,0,0,.1-.1.2-.3.2-.5s0-.4-.2-.5c0,0,0,0,0,0-.1-.1-.3-.2-.5-.2s-.4,0-.5.2c0,0,0,0,0,0-.1.1-.2.3-.2.5s0,.4.2.5c0,0,0,0,0,0,0,0,.1.2.1.3s0,.2-.1.3c0,0,0,0,0,0,0,0-.2.1-.3.1s-.2,0-.3-.1c0,0,0,0,0,0,0,0-.1-.2-.1-.3s0-.2.1-.3c0,0,0,0,0,0,.1-.1.2-.3.2-.5s0-.4-.2-.5c0,0,0,0,0,0,0,0-.1-.2-.1-.3s0-.2.1-.3c0,0,0,0,0,0,0,0,.2-.1.3-.1s.2,0,.3.1c0,0,0,0,0,0,.1.1.3.2.5.2s.4,0,.5-.2c0,0,0,0,0,0,0,0,.2-.1.3-.1s.2,0,.3.1c0,0,0,0,0,0,.1.1.3.2.5.2s.4,0,.5-.2c0,0,0,0,0,0,0,0,.2-.1.3-.1s.2,0,.3.1c0,0,0,0,0,0,0,0,.1.2.1.3s0,.2-.1.3c0,0,0,0,0,0-.1.1-.2.3-.2.5s0,.4.2.5c0,0,0,0,0,0"/>
  <path class="st6" d="M26,4.7c0,0,.1.2.1.3s0,.2-.1.3c0,0,0,0,0,0,0,0-.2.1-.3.1s-.2,0-.3-.1c0,0,0,0,0,0-.1-.1-.3-.2-.5-.2s-.4,0-.5.2c0,0,0,0,0,0,0,0-.2.1-.3.1s-.2,0-.3-.1c0,0,0,0,0,0-.1-.1-.3-.2-.5-.2s-.4,0-.5.2c0,0,0,0,0,0,0,0-.2.1-.3.1s-.2,0-.3-.1c0,0,0,0,0,0-.1-.1-.3-.2-.5-.2s-.4,0-.5.2h0c0,0-.2.1-.3.1s-.2,0-.3-.1c0,0,0,0,0,0,0,0-.1-.2-.1-.3s0-.2.1-.3c0,0,0,0,0,0,.1-.1.2-.3.2-.5s0-.4-.2-.5c0,0,0,0,0,0,0,0-.1-.2-.1-.3s0-.2.1-.3c0,0,0,0,0,0,.1-.1.2-.3.2-.5s0-.4-.2-.5c0,0,0,0,0,0,0,0-.1-.2-.1-.3s0-.2.1-.3c0,0,0,0,0,0,.1-.1.2-.3.2-.5s0-.4-.2-.5c0,0,0,0,0,0,0,0-.1-.2-.1-.3s0-.2.1-.3c0,0,0,0,0,0,0,0,.2-.1.3-.1s.2,0,.3.1c0,0,0,0,0,0,.1.1.3.2.5.2s.4,0,.5-.2c0,0,0,0,0,0,0,0,.2-.1.3-.1s.2,0,.3.1c0,0,0,0,0,0,.1.1.3.2.5.2s.4,0,.5-.2c0,0,0,0,0,0,0,0,.2-.1.3-.1s.2,0,.3.1c0,0,0,0,0,0,.1.1.3.2.5.2s.4,0,.5-.2c0,0,0,0,0,0,0,0,.2-.1.3-.1s.2,0,.3.1c0,0,0,0,0,0,0,0,.1.2.1.3s0,.2-.1.3c0,0,0,0,0,0,0,0-.2.1-.3.1s-.2,0-.3-.1c0,0,0,0,0,0-.1-.1-.3-.2-.5-.2s-.4,0-.5.2c0,0,0,0,0,0,0,0-.2.1-.3.1s-.2,0-.3-.1c0,0,0,0,0,0-.1-.1-.3-.2-.5-.2s-.4,0-.5.2c0,0,0,0,0,0,0,0-.2.1-.3.1s-.2,0-.3-.1c0,0,0,0,0,0-.1-.1-.3-.2-.5-.2s-.4,0-.5.2h0c-.1.1-.2.3-.2.5s0,.4.2.5c0,0,0,0,0,0,0,0,.1.2.1.3s0,.2-.1.3c0,0,0,0,0,0-.1.1-.2.3-.2.5s0,.4.2.5h0s0,0,0,0h0c0,0,.1.2.1.3s0,.2-.1.3c0,0,0,0,0,0-.1.1-.2.3-.2.5s0,.4.2.5h0s0,0,0,0h0c.1.1.3.2.5.2s.4,0,.5-.2h0s0,0,0,0h0c0,0,.2-.1.3-.1s.2,0,.3.1c0,0,0,0,0,0,.1.1.3.2.5.2s.4,0,.5-.2c0,0,0,0,0,0,0,0,.2-.1.3-.1s.2,0,.3.1c0,0,0,0,0,0,.1.1.3.2.5.2s.4,0,.5-.2c0,0,0,0,0,0,0,0,.2-.1.3-.1s.2,0,.3.1c0,0,0,0,0,0"/>
  <path class="st6" d="M32.4,3.1c0,0,.1.2.1.3s0,.2-.1.3c0,0,0,0,0,0,0,0-.2.1-.3.1s-.2,0-.3-.1c0,0,0,0,0,0,0,0-.1-.2-.1-.3s0-.2.1-.3c0,0,0,0,0,0,.1-.1.2-.3.2-.5s0-.4-.2-.5c0,0,0,0,0,0-.1-.1-.3-.2-.5-.2s-.4,0-.5.2c0,0,0,0,0,0-.1.1-.2.3-.2.5s0,.4.2.5c0,0,0,0,0,0,0,0,.1.2.1.3s0,.2-.1.3c0,0,0,0,0,0,0,0-.2.1-.3.1s-.2,0-.3-.1c0,0,0,0,0,0,0,0-.1-.2-.1-.3s0-.2.1-.3c0,0,0,0,0,0,.1-.1.2-.3.2-.5s0-.4-.2-.5c0,0,0,0,0,0-.1-.1-.3-.2-.5-.2s-.4,0-.5.2c0,0,0,0,0,0-.1.1-.2.3-.2.5s0,.4.2.5c0,0,0,0,0,0,0,0,.1.2.1.3s0,.2-.1.3c0,0,0,0,0,0,0,0-.2.1-.3.1s-.2,0-.3-.1c0,0,0,0,0,0,0,0-.1-.2-.1-.3s0-.2.1-.3c0,0,0,0,0,0,.1-.1.2-.3.2-.5s0-.4-.2-.5c0,0,0,0,0,0,0,0-.1-.2-.1-.3s0-.2.1-.3c0,0,0,0,0,0,0,0,.2-.1.3-.1s.2,0,.3.1c0,0,0,0,0,0,.1.1.3.2.5.2s.4,0,.5-.2c0,0,0,0,0,0,0,0,.2-.1.3-.1s.2,0,.3.1c0,0,0,0,0,0,.1.1.3.2.5.2s.4,0,.5-.2c0,0,0,0,0,0,0,0,.2-.1.3-.1s.2,0,.3.1c0,0,0,0,0,0,0,0,.1.2.1.3s0,.2-.1.3c0,0,0,0,0,0-.1.1-.2.3-.2.5s0,.4.2.5c0,0,0,0,0,0"/>
  <path class="st6" d="M32.4,4.7c0,0,.1.2.1.3s0,.2-.1.3c0,0,0,0,0,0,0,0-.2.1-.3.1s-.2,0-.3-.1c0,0,0,0,0,0-.1-.1-.3-.2-.5-.2s-.4,0-.5.2c0,0,0,0,0,0,0,0-.2.1-.3.1s-.2,0-.3-.1c0,0,0,0,0,0-.1-.1-.3-.2-.5-.2s-.4,0-.5.2c0,0,0,0,0,0,0,0-.2.1-.3.1s-.2,0-.3-.1c0,0,0,0,0,0-.1-.1-.3-.2-.5-.2s-.4,0-.5.2h0c0,0-.2.1-.3.1s-.2,0-.3-.1c0,0,0,0,0,0,0,0-.1-.2-.1-.3s0-.2.1-.3c0,0,0,0,0,0,.1-.1.2-.3.2-.5s0-.4-.2-.5c0,0,0,0,0,0,0,0-.1-.2-.1-.3s0-.2.1-.3c0,0,0,0,0,0,.1-.1.2-.3.2-.5s0-.4-.2-.5c0,0,0,0,0,0,0,0-.1-.2-.1-.3s0-.2.1-.3c0,0,0,0,0,0,.1-.1.2-.3.2-.5s0-.4-.2-.5c0,0,0,0,0,0,0,0-.1-.2-.1-.3s0-.2.1-.3c0,0,0,0,0,0,0,0,.2-.1.3-.1s.2,0,.3.1c0,0,0,0,0,0,.1.1.3.2.5.2s.4,0,.5-.2c0,0,0,0,0,0,0,0,.2-.1.3-.1s.2,0,.3.1c0,0,0,0,0,0,.1.1.3.2.5.2s.4,0,.5-.2c0,0,0,0,0,0,0,0,.2-.1.3-.1s.2,0,.3.1c0,0,0,0,0,0,.1.1.3.2.5.2s.4,0,.5-.2c0,0,0,0,0,0,0,0,.2-.1.3-.1s.2,0,.3.1c0,0,0,0,0,0,0,0,.1.2.1.3s0,.2-.1.3c0,0,0,0,0,0,0,0-.2.1-.3.1s-.2,0-.3-.1c0,0,0,0,0,0-.1-.1-.3-.2-.5-.2s-.4,0-.5.2c0,0,0,0,0,0,0,0-.2.1-.3.1s-.2,0-.3-.1c0,0,0,0,0,0-.1-.1-.3-.2-.5-.2s-.4,0-.5.2c0,0,0,0,0,0,0,0-.2.1-.3.1s-.2,0-.3-.1c0,0,0,0,0,0-.1-.1-.3-.2-.5-.2s-.4,0-.5.2h0c-.1.1-.2.3-.2.5s0,.4.2.5c0,0,0,0,0,0,0,0,.1.2.1.3s0,.2-.1.3c0,0,0,0,0,0-.1.1-.2.3-.2.5s0,.4.2.5h0s0,0,0,0h0c0,0,.1.2.1.3s0,.2-.1.3c0,0,0,0,0,0-.1.1-.2.3-.2.5s0,.4.2.5h0s0,0,0,0h0c.1.1.3.2.5.2s.4,0,.5-.2h0s0,0,0,0h0c0,0,.2-.1.3-.1s.2,0,.3.1c0,0,0,0,0,0,.1.1.3.2.5.2s.4,0,.5-.2c0,0,0,0,0,0,0,0,.2-.1.3-.1s.2,0,.3.1c0,0,0,0,0,0,.1.1.3.2.5.2s.4,0,.5-.2c0,0,0,0,0,0,0,0,.2-.1.3-.1s.2,0,.3.1c0,0,0,0,0,0"/>
  <path class="st6" d="M38.7,3.1c0,0,.1.2.1.3s0,.2-.1.3c0,0,0,0,0,0,0,0-.2.1-.3.1s-.2,0-.3-.1c0,0,0,0,0,0,0,0-.1-.2-.1-.3s0-.2.1-.3c0,0,0,0,0,0,.1-.1.2-.3.2-.5s0-.4-.2-.5c0,0,0,0,0,0-.1-.1-.3-.2-.5-.2s-.4,0-.5.2c0,0,0,0,0,0-.1.1-.2.3-.2.5s0,.4.2.5c0,0,0,0,0,0,0,0,.1.2.1.3s0,.2-.1.3c0,0,0,0,0,0,0,0-.2.1-.3.1s-.2,0-.3-.1c0,0,0,0,0,0,0,0-.1-.2-.1-.3s0-.2.1-.3c0,0,0,0,0,0,.1-.1.2-.3.2-.5s0-.4-.2-.5c0,0,0,0,0,0-.1-.1-.3-.2-.5-.2s-.4,0-.5.2c0,0,0,0,0,0-.1.1-.2.3-.2.5s0,.4.2.5c0,0,0,0,0,0,0,0,.1.2.1.3s0,.2-.1.3c0,0,0,0,0,0,0,0-.2.1-.3.1s-.2,0-.3-.1c0,0,0,0,0,0,0,0-.1-.2-.1-.3s0-.2.1-.3c0,0,0,0,0,0,.1-.1.2-.3.2-.5s0-.4-.2-.5c0,0,0,0,0,0,0,0-.1-.2-.1-.3s0-.2.1-.3c0,0,0,0,0,0,0,0,.2-.1.3-.1s.2,0,.3.1c0,0,0,0,0,0,.1.1.3.2.5.2s.4,0,.5-.2c0,0,0,0,0,0,0,0,.2-.1.3-.1s.2,0,.3.1c0,0,0,0,0,0,.1.1.3.2.5.2s.4,0,.5-.2c0,0,0,0,0,0,0,0,.2-.1.3-.1s.2,0,.3.1c0,0,0,0,0,0,0,0,.1.2.1.3s0,.2-.1.3c0,0,0,0,0,0-.1.1-.2.3-.2.5s0,.4.2.5c0,0,0,0,0,0"/>
  <path class="st6" d="M38.7,4.7c0,0,.1.2.1.3s0,.2-.1.3c0,0,0,0,0,0,0,0-.2.1-.3.1s-.2,0-.3-.1c0,0,0,0,0,0-.1-.1-.3-.2-.5-.2s-.4,0-.5.2c0,0,0,0,0,0,0,0-.2.1-.3.1s-.2,0-.3-.1c0,0,0,0,0,0-.1-.1-.3-.2-.5-.2s-.4,0-.5.2c0,0,0,0,0,0,0,0-.2.1-.3.1s-.2,0-.3-.1c0,0,0,0,0,0-.1-.1-.3-.2-.5-.2s-.4,0-.5.2h0c0,0-.2.1-.3.1s-.2,0-.3-.1c0,0,0,0,0,0,0,0-.1-.2-.1-.3s0-.2.1-.3c0,0,0,0,0,0,.1-.1.2-.3.2-.5s0-.4-.2-.5c0,0,0,0,0,0,0,0-.1-.2-.1-.3s0-.2.1-.3c0,0,0,0,0,0,.1-.1.2-.3.2-.5s0-.4-.2-.5c0,0,0,0,0,0,0,0-.1-.2-.1-.3s0-.2.1-.3c0,0,0,0,0,0,.1-.1.2-.3.2-.5s0-.4-.2-.5c0,0,0,0,0,0,0,0-.1-.2-.1-.3s0-.2.1-.3c0,0,0,0,0,0,0,0,.2-.1.3-.1s.2,0,.3.1c0,0,0,0,0,0,.1.1.3.2.5.2s.4,0,.5-.2c0,0,0,0,0,0,0,0,.2-.1.3-.1s.2,0,.3.1c0,0,0,0,0,0,.1.1.3.2.5.2s.4,0,.5-.2c0,0,0,0,0,0,0,0,.2-.1.3-.1s.2,0,.3.1c0,0,0,0,0,0,.1.1.3.2.5.2s.4,0,.5-.2c0,0,0,0,0,0,0,0,.2-.1.3-.1s.2,0,.3.1c0,0,0,0,0,0,0,0,.1.2.1.3s0,.2-.1.3c0,0,0,0,0,0,0,0-.2.1-.3.1s-.2,0-.3-.1c0,0,0,0,0,0-.1-.1-.3-.2-.5-.2s-.4,0-.5.2c0,0,0,0,0,0,0,0-.2.1-.3.1s-.2,0-.3-.1c0,0,0,0,0,0-.1-.1-.3-.2-.5-.2s-.4,0-.5.2c0,0,0,0,0,0,0,0-.2.1-.3.1s-.2,0-.3-.1c0,0,0,0,0,0-.1-.1-.3-.2-.5-.2s-.4,0-.5.2h0c-.1.1-.2.3-.2.5s0,.4.2.5c0,0,0,0,0,0,0,0,.1.2.1.3s0,.2-.1.3c0,0,0,0,0,0-.1.1-.2.3-.2.5s0,.4.2.5h0s0,0,0,0h0c0,0,.1.2.1.3s0,.2-.1.3c0,0,0,0,0,0-.1.1-.2.3-.2.5s0,.4.2.5h0s0,0,0,0h0c.1.1.3.2.5.2s.4,0,.5-.2h0s0,0,0,0h0c0,0,.2-.1.3-.1s.2,0,.3.1c0,0,0,0,0,0,.1.1.3.2.5.2s.4,0,.5-.2c0,0,0,0,0,0,0,0,.2-.1.3-.1s.2,0,.3.1c0,0,0,0,0,0,.1.1.3.2.5.2s.4,0,.5-.2c0,0,0,0,0,0,0,0,.2-.1.3-.1s.2,0,.3.1c0,0,0,0,0,0"/>
  <path class="st6" d="M45.1,3.1c0,0,.1.2.1.3s0,.2-.1.3c0,0,0,0,0,0,0,0-.2.1-.3.1s-.2,0-.3-.1c0,0,0,0,0,0,0,0-.1-.2-.1-.3s0-.2.1-.3c0,0,0,0,0,0,.1-.1.2-.3.2-.5s0-.4-.2-.5c0,0,0,0,0,0-.1-.1-.3-.2-.5-.2s-.4,0-.5.2c0,0,0,0,0,0-.1.1-.2.3-.2.5s0,.4.2.5c0,0,0,0,0,0,0,0,.1.2.1.3s0,.2-.1.3c0,0,0,0,0,0,0,0-.2.1-.3.1s-.2,0-.3-.1c0,0,0,0,0,0,0,0-.1-.2-.1-.3s0-.2.1-.3c0,0,0,0,0,0,.1-.1.2-.3.2-.5s0-.4-.2-.5c0,0,0,0,0,0-.1-.1-.3-.2-.5-.2s-.4,0-.5.2c0,0,0,0,0,0-.1.1-.2.3-.2.5s0,.4.2.5c0,0,0,0,0,0,0,0,.1.2.1.3s0,.2-.1.3c0,0,0,0,0,0,0,0-.2.1-.3.1s-.2,0-.3-.1c0,0,0,0,0,0,0,0-.1-.2-.1-.3s0-.2.1-.3c0,0,0,0,0,0,.1-.1.2-.3.2-.5s0-.4-.2-.5c0,0,0,0,0,0,0,0-.1-.2-.1-.3s0-.2.1-.3c0,0,0,0,0,0,0,0,.2-.1.3-.1s.2,0,.3.1c0,0,0,0,0,0,.1.1.3.2.5.2s.4,0,.5-.2c0,0,0,0,0,0,0,0,.2-.1.3-.1s.2,0,.3.1c0,0,0,0,0,0,.1.1.3.2.5.2s.4,0,.5-.2c0,0,0,0,0,0,0,0,.2-.1.3-.1s.2,0,.3.1c0,0,0,0,0,0,0,0,.1.2.1.3s0,.2-.1.3c0,0,0,0,0,0-.1.1-.2.3-.2.5s0,.4.2.5c0,0,0,0,0,0"/>
  <path class="st6" d="M45.1,4.7c0,0,.1.2.1.3s0,.2-.1.3c0,0,0,0,0,0,0,0-.2.1-.3.1s-.2,0-.3-.1c0,0,0,0,0,0-.1-.1-.3-.2-.5-.2s-.4,0-.5.2c0,0,0,0,0,0,0,0-.2.1-.3.1s-.2,0-.3-.1c0,0,0,0,0,0-.1-.1-.3-.2-.5-.2s-.4,0-.5.2c0,0,0,0,0,0,0,0-.2.1-.3.1s-.2,0-.3-.1c0,0,0,0,0,0-.1-.1-.3-.2-.5-.2s-.4,0-.5.2h0c0,0-.2.1-.3.1s-.2,0-.3-.1c0,0,0,0,0,0,0,0-.1-.2-.1-.3s0-.2.1-.3c0,0,0,0,0,0,.1-.1.2-.3.2-.5s0-.4-.2-.5c0,0,0,0,0,0,0,0-.1-.2-.1-.3s0-.2.1-.3c0,0,0,0,0,0,.1-.1.2-.3.2-.5s0-.4-.2-.5c0,0,0,0,0,0,0,0-.1-.2-.1-.3s0-.2.1-.3c0,0,0,0,0,0,.1-.1.2-.3.2-.5s0-.4-.2-.5c0,0,0,0,0,0,0,0-.1-.2-.1-.3s0-.2.1-.3c0,0,0,0,0,0,0,0,.2-.1.3-.1s.2,0,.3.1c0,0,0,0,0,0,.1.1.3.2.5.2s.4,0,.5-.2c0,0,0,0,0,0,0,0,.2-.1.3-.1s.2,0,.3.1c0,0,0,0,0,0,.1.1.3.2.5.2s.4,0,.5-.2c0,0,0,0,0,0,0,0,.2-.1.3-.1s.2,0,.3.1c0,0,0,0,0,0,.1.1.3.2.5.2s.4,0,.5-.2c0,0,0,0,0,0,0,0,.2-.1.3-.1s.2,0,.3.1c0,0,0,0,0,0,0,0,.1.2.1.3s0,.2-.1.3c0,0,0,0,0,0,0,0-.2.1-.3.1s-.2,0-.3-.1c0,0,0,0,0,0-.1-.1-.3-.2-.5-.2s-.4,0-.5.2c0,0,0,0,0,0,0,0-.2.1-.3.1s-.2,0-.3-.1c0,0,0,0,0,0-.1-.1-.3-.2-.5-.2s-.4,0-.5.2c0,0,0,0,0,0,0,0-.2.1-.3.1s-.2,0-.3-.1c0,0,0,0,0,0-.1-.1-.3-.2-.5-.2s-.4,0-.5.2h0c-.1.1-.2.3-.2.5s0,.4.2.5c0,0,0,0,0,0,0,0,.1.2.1.3s0,.2-.1.3c0,0,0,0,0,0-.1.1-.2.3-.2.5s0,.4.2.5h0s0,0,0,0h0c0,0,.1.2.1.3s0,.2-.1.3c0,0,0,0,0,0-.1.1-.2.3-.2.5s0,.4.2.5h0s0,0,0,0h0c.1.1.3.2.5.2s.4,0,.5-.2h0s0,0,0,0h0c0,0,.2-.1.3-.1s.2,0,.3.1c0,0,0,0,0,0,.1.1.3.2.5.2s.4,0,.5-.2c0,0,0,0,0,0,0,0,.2-.1.3-.1s.2,0,.3.1c0,0,0,0,0,0,.1.1.3.2.5.2s.4,0,.5-.2c0,0,0,0,0,0,0,0,.2-.1.3-.1s.2,0,.3.1c0,0,0,0,0,0"/>
  <path class="st6" d="M51.5,3.1c0,0,.1.2.1.3s0,.2-.1.3c0,0,0,0,0,0,0,0-.2.1-.3.1s-.2,0-.3-.1c0,0,0,0,0,0,0,0-.1-.2-.1-.3s0-.2.1-.3c0,0,0,0,0,0,.1-.1.2-.3.2-.5s0-.4-.2-.5c0,0,0,0,0,0-.1-.1-.3-.2-.5-.2s-.4,0-.5.2c0,0,0,0,0,0-.1.1-.2.3-.2.5s0,.4.2.5c0,0,0,0,0,0,0,0,.1.2.1.3s0,.2-.1.3c0,0,0,0,0,0,0,0-.2.1-.3.1s-.2,0-.3-.1c0,0,0,0,0,0,0,0-.1-.2-.1-.3s0-.2.1-.3c0,0,0,0,0,0,.1-.1.2-.3.2-.5s0-.4-.2-.5c0,0,0,0,0,0-.1-.1-.3-.2-.5-.2s-.4,0-.5.2c0,0,0,0,0,0-.1.1-.2.3-.2.5s0,.4.2.5c0,0,0,0,0,0,0,0,.1.2.1.3s0,.2-.1.3c0,0,0,0,0,0,0,0-.2.1-.3.1s-.2,0-.3-.1c0,0,0,0,0,0,0,0-.1-.2-.1-.3s0-.2.1-.3c0,0,0,0,0,0,.1-.1.2-.3.2-.5s0-.4-.2-.5c0,0,0,0,0,0,0,0-.1-.2-.1-.3s0-.2.1-.3c0,0,0,0,0,0,0,0,.2-.1.3-.1s.2,0,.3.1c0,0,0,0,0,0,.1.1.3.2.5.2s.4,0,.5-.2c0,0,0,0,0,0,0,0,.2-.1.3-.1s.2,0,.3.1c0,0,0,0,0,0,.1.1.3.2.5.2s.4,0,.5-.2c0,0,0,0,0,0,0,0,.2-.1.3-.1s.2,0,.3.1c0,0,0,0,0,0,0,0,.1.2.1.3s0,.2-.1.3c0,0,0,0,0,0-.1.1-.2.3-.2.5s0,.4.2.5c0,0,0,0,0,0"/>
  <path class="st6" d="M51.5,4.7c0,0,.1.2.1.3s0,.2-.1.3c0,0,0,0,0,0,0,0-.2.1-.3.1s-.2,0-.3-.1c0,0,0,0,0,0-.1-.1-.3-.2-.5-.2s-.4,0-.5.2c0,0,0,0,0,0,0,0-.2.1-.3.1s-.2,0-.3-.1c0,0,0,0,0,0-.1-.1-.3-.2-.5-.2s-.4,0-.5.2c0,0,0,0,0,0,0,0-.2.1-.3.1s-.2,0-.3-.1c0,0,0,0,0,0-.1-.1-.3-.2-.5-.2s-.4,0-.5.2h0c0,0-.2.1-.3.1s-.2,0-.3-.1c0,0,0,0,0,0,0,0-.1-.2-.1-.3s0-.2.1-.3c0,0,0,0,0,0,.1-.1.2-.3.2-.5s0-.4-.2-.5c0,0,0,0,0,0,0,0-.1-.2-.1-.3s0-.2.1-.3c0,0,0,0,0,0,.1-.1.2-.3.2-.5s0-.4-.2-.5c0,0,0,0,0,0,0,0-.1-.2-.1-.3s0-.2.1-.3c0,0,0,0,0,0,.1-.1.2-.3.2-.5s0-.4-.2-.5c0,0,0,0,0,0,0,0-.1-.2-.1-.3s0-.2.1-.3c0,0,0,0,0,0,0,0,.2-.1.3-.1s.2,0,.3.1c0,0,0,0,0,0,.1.1.3.2.5.2s.4,0,.5-.2c0,0,0,0,0,0,0,0,.2-.1.3-.1s.2,0,.3.1c0,0,0,0,0,0,.1.1.3.2.5.2s.4,0,.5-.2c0,0,0,0,0,0,0,0,.2-.1.3-.1s.2,0,.3.1c0,0,0,0,0,0,.1.1.3.2.5.2s.4,0,.5-.2c0,0,0,0,0,0,0,0,.2-.1.3-.1s.2,0,.3.1c0,0,0,0,0,0,0,0,.1.2.1.3s0,.2-.1.3c0,0,0,0,0,0,0,0-.2.1-.3.1s-.2,0-.3-.1c0,0,0,0,0,0-.1-.1-.3-.2-.5-.2s-.4,0-.5.2c0,0,0,0,0,0,0,0-.2.1-.3.1s-.2,0-.3-.1c0,0,0,0,0,0-.1-.1-.3-.2-.5-.2s-.4,0-.5.2c0,0,0,0,0,0,0,0-.2.1-.3.1s-.2,0-.3-.1c0,0,0,0,0,0-.1-.1-.3-.2-.5-.2s-.4,0-.5.2h0c-.1.1-.2.3-.2.5s0,.4.2.5c0,0,0,0,0,0,0,0,.1.2.1.3s0,.2-.1.3c0,0,0,0,0,0-.1.1-.2.3-.2.5s0,.4.2.5h0s0,0,0,0h0c0,0,.1.2.1.3s0,.2-.1.3c0,0,0,0,0,0-.1.1-.2.3-.2.5s0,.4.2.5h0s0,0,0,0h0c.1.1.3.2.5.2s.4,0,.5-.2h0s0,0,0,0h0c0,0,.2-.1.3-.1s.2,0,.3.1c0,0,0,0,0,0,.1.1.3.2.5.2s.4,0,.5-.2c0,0,0,0,0,0,0,0,.2-.1.3-.1s.2,0,.3.1c0,0,0,0,0,0,.1.1.3.2.5.2s.4,0,.5-.2c0,0,0,0,0,0,0,0,.2-.1.3-.1s.2,0,.3.1c0,0,0,0,0,0"/>
  <path class="st6" d="M57.9,3.1c0,0,.1.2.1.3s0,.2-.1.3c0,0,0,0,0,0,0,0-.2.1-.3.1s-.2,0-.3-.1c0,0,0,0,0,0,0,0-.1-.2-.1-.3s0-.2.1-.3c0,0,0,0,0,0,.1-.1.2-.3.2-.5s0-.4-.2-.5c0,0,0,0,0,0-.1-.1-.3-.2-.5-.2s-.4,0-.5.2c0,0,0,0,0,0-.1.1-.2.3-.2.5s0,.4.2.5c0,0,0,0,0,0,0,0,.1.2.1.3s0,.2-.1.3c0,0,0,0,0,0,0,0-.2.1-.3.1s-.2,0-.3-.1c0,0,0,0,0,0,0,0-.1-.2-.1-.3s0-.2.1-.3c0,0,0,0,0,0,.1-.1.2-.3.2-.5s0-.4-.2-.5c0,0,0,0,0,0-.1-.1-.3-.2-.5-.2s-.4,0-.5.2c0,0,0,0,0,0-.1.1-.2.3-.2.5s0,.4.2.5c0,0,0,0,0,0,0,0,.1.2.1.3s0,.2-.1.3c0,0,0,0,0,0,0,0-.2.1-.3.1s-.2,0-.3-.1c0,0,0,0,0,0,0,0-.1-.2-.1-.3s0-.2.1-.3c0,0,0,0,0,0,.1-.1.2-.3.2-.5s0-.4-.2-.5c0,0,0,0,0,0,0,0-.1-.2-.1-.3s0-.2.1-.3c0,0,0,0,0,0,0,0,.2-.1.3-.1s.2,0,.3.1c0,0,0,0,0,0,.1.1.3.2.5.2s.4,0,.5-.2c0,0,0,0,0,0,0,0,.2-.1.3-.1s.2,0,.3.1c0,0,0,0,0,0,.1.1.3.2.5.2s.4,0,.5-.2c0,0,0,0,0,0,0,0,.2-.1.3-.1s.2,0,.3.1c0,0,0,0,0,0,0,0,.1.2.1.3s0,.2-.1.3c0,0,0,0,0,0-.1.1-.2.3-.2.5s0,.4.2.5c0,0,0,0,0,0"/>
  <path class="st6" d="M57.9,4.7c0,0,.1.2.1.3s0,.2-.1.3c0,0,0,0,0,0,0,0-.2.1-.3.1s-.2,0-.3-.1c0,0,0,0,0,0-.1-.1-.3-.2-.5-.2s-.4,0-.5.2c0,0,0,0,0,0,0,0-.2.1-.3.1s-.2,0-.3-.1c0,0,0,0,0,0-.1-.1-.3-.2-.5-.2s-.4,0-.5.2c0,0,0,0,0,0,0,0-.2.1-.3.1s-.2,0-.3-.1c0,0,0,0,0,0-.1-.1-.3-.2-.5-.2s-.4,0-.5.2h0c0,0-.2.1-.3.1s-.2,0-.3-.1c0,0,0,0,0,0,0,0-.1-.2-.1-.3s0-.2.1-.3c0,0,0,0,0,0,.1-.1.2-.3.2-.5s0-.4-.2-.5c0,0,0,0,0,0,0,0-.1-.2-.1-.3s0-.2.1-.3c0,0,0,0,0,0,.1-.1.2-.3.2-.5s0-.4-.2-.5c0,0,0,0,0,0,0,0-.1-.2-.1-.3s0-.2.1-.3c0,0,0,0,0,0,.1-.1.2-.3.2-.5s0-.4-.2-.5c0,0,0,0,0,0,0,0-.1-.2-.1-.3s0-.2.1-.3c0,0,0,0,0,0,0,0,.2-.1.3-.1s.2,0,.3.1c0,0,0,0,0,0,.1.1.3.2.5.2s.4,0,.5-.2c0,0,0,0,0,0,0,0,.2-.1.3-.1s.2,0,.3.1c0,0,0,0,0,0,.1.1.3.2.5.2s.4,0,.5-.2c0,0,0,0,0,0,0,0,.2-.1.3-.1s.2,0,.3.1c0,0,0,0,0,0,.1.1.3.2.5.2s.4,0,.5-.2c0,0,0,0,0,0,0,0,.2-.1.3-.1s.2,0,.3.1c0,0,0,0,0,0,0,0,.1.2.1.3s0,.2-.1.3c0,0,0,0,0,0,0,0-.2.1-.3.1s-.2,0-.3-.1c0,0,0,0,0,0-.1-.1-.3-.2-.5-.2s-.4,0-.5.2c0,0,0,0,0,0,0,0-.2.1-.3.1s-.2,0-.3-.1c0,0,0,0,0,0-.1-.1-.3-.2-.5-.2s-.4,0-.5.2c0,0,0,0,0,0,0,0-.2.1-.3.1s-.2,0-.3-.1c0,0,0,0,0,0-.1-.1-.3-.2-.5-.2s-.4,0-.5.2h0c-.1.1-.2.3-.2.5s0,.4.2.5c0,0,0,0,0,0,0,0,.1.2.1.3s0,.2-.1.3c0,0,0,0,0,0-.1.1-.2.3-.2.5s0,.4.2.5h0s0,0,0,0h0c0,0,.1.2.1.3s0,.2-.1.3c0,0,0,0,0,0-.1.1-.2.3-.2.5s0,.4.2.5h0s0,0,0,0h0c.1.1.3.2.5.2s.4,0,.5-.2h0s0,0,0,0h0c0,0,.2-.1.3-.1s.2,0,.3.1c0,0,0,0,0,0,.1.1.3.2.5.2s.4,0,.5-.2c0,0,0,0,0,0,0,0,.2-.1.3-.1s.2,0,.3.1c0,0,0,0,0,0,.1.1.3.2.5.2s.4,0,.5-.2c0,0,0,0,0,0,0,0,.2-.1.3-.1s.2,0,.3.1c0,0,0,0,0,0"/>
  <path class="st6" d="M64.3,3.1c0,0,.1.2.1.3s0,.2-.1.3c0,0,0,0,0,0,0,0-.2.1-.3.1s-.2,0-.3-.1c0,0,0,0,0,0,0,0-.1-.2-.1-.3s0-.2.1-.3c0,0,0,0,0,0,.1-.1.2-.3.2-.5s0-.4-.2-.5c0,0,0,0,0,0-.1-.1-.3-.2-.5-.2s-.4,0-.5.2c0,0,0,0,0,0-.1.1-.2.3-.2.5s0,.4.2.5c0,0,0,0,0,0,0,0,.1.2.1.3s0,.2-.1.3c0,0,0,0,0,0,0,0-.2.1-.3.1s-.2,0-.3-.1c0,0,0,0,0,0,0,0-.1-.2-.1-.3s0-.2.1-.3c0,0,0,0,0,0,.1-.1.2-.3.2-.5s0-.4-.2-.5c0,0,0,0,0,0-.1-.1-.3-.2-.5-.2s-.4,0-.5.2c0,0,0,0,0,0-.1.1-.2.3-.2.5s0,.4.2.5c0,0,0,0,0,0,0,0,.1.2.1.3s0,.2-.1.3c0,0,0,0,0,0,0,0-.2.1-.3.1s-.2,0-.3-.1c0,0,0,0,0,0,0,0-.1-.2-.1-.3s0-.2.1-.3c0,0,0,0,0,0,.1-.1.2-.3.2-.5s0-.4-.2-.5c0,0,0,0,0,0,0,0-.1-.2-.1-.3s0-.2.1-.3c0,0,0,0,0,0,0,0,.2-.1.3-.1s.2,0,.3.1c0,0,0,0,0,0,.1.1.3.2.5.2s.4,0,.5-.2c0,0,0,0,0,0,0,0,.2-.1.3-.1s.2,0,.3.1c0,0,0,0,0,0,.1.1.3.2.5.2s.4,0,.5-.2c0,0,0,0,0,0,0,0,.2-.1.3-.1s.2,0,.3.1c0,0,0,0,0,0,0,0,.1.2.1.3s0,.2-.1.3c0,0,0,0,0,0-.1.1-.2.3-.2.5s0,.4.2.5c0,0,0,0,0,0"/>
  <path class="st6" d="M64.3,4.7c0,0,.1.2.1.3s0,.2-.1.3c0,0,0,0,0,0,0,0-.2.1-.3.1s-.2,0-.3-.1c0,0,0,0,0,0-.1-.1-.3-.2-.5-.2s-.4,0-.5.2c0,0,0,0,0,0,0,0-.2.1-.3.1s-.2,0-.3-.1c0,0,0,0,0,0-.1-.1-.3-.2-.5-.2s-.4,0-.5.2c0,0,0,0,0,0,0,0-.2.1-.3.1s-.2,0-.3-.1c0,0,0,0,0,0-.1-.1-.3-.2-.5-.2s-.4,0-.5.2h0c0,0-.2.1-.3.1s-.2,0-.3-.1c0,0,0,0,0,0,0,0-.1-.2-.1-.3s0-.2.1-.3c0,0,0,0,0,0,.1-.1.2-.3.2-.5s0-.4-.2-.5c0,0,0,0,0,0,0,0-.1-.2-.1-.3s0-.2.1-.3c0,0,0,0,0,0,.1-.1.2-.3.2-.5s0-.4-.2-.5c0,0,0,0,0,0,0,0-.1-.2-.1-.3s0-.2.1-.3c0,0,0,0,0,0,.1-.1.2-.3.2-.5s0-.4-.2-.5c0,0,0,0,0,0,0,0-.1-.2-.1-.3s0-.2.1-.3c0,0,0,0,0,0,0,0,.2-.1.3-.1s.2,0,.3.1c0,0,0,0,0,0,.1.1.3.2.5.2s.4,0,.5-.2c0,0,0,0,0,0,0,0,.2-.1.3-.1s.2,0,.3.1c0,0,0,0,0,0,.1.1.3.2.5.2s.4,0,.5-.2c0,0,0,0,0,0,0,0,.2-.1.3-.1s.2,0,.3.1c0,0,0,0,0,0,.1.1.3.2.5.2s.4,0,.5-.2c0,0,0,0,0,0,0,0,.2-.1.3-.1s.2,0,.3.1c0,0,0,0,0,0,0,0,.1.2.1.3s0,.2-.1.3c0,0,0,0,0,0,0,0-.2.1-.3.1s-.2,0-.3-.1c0,0,0,0,0,0-.1-.1-.3-.2-.5-.2s-.4,0-.5.2c0,0,0,0,0,0,0,0-.2.1-.3.1s-.2,0-.3-.1c0,0,0,0,0,0-.1-.1-.3-.2-.5-.2s-.4,0-.5.2c0,0,0,0,0,0,0,0-.2.1-.3.1s-.2,0-.3-.1c0,0,0,0,0,0-.1-.1-.3-.2-.5-.2s-.4,0-.5.2h0c-.1.1-.2.3-.2.5s0,.4.2.5c0,0,0,0,0,0,0,0,.1.2.1.3s0,.2-.1.3c0,0,0,0,0,0-.1.1-.2.3-.2.5s0,.4.2.5h0s0,0,0,0h0c0,0,.1.2.1.3s0,.2-.1.3c0,0,0,0,0,0-.1.1-.2.3-.2.5s0,.4.2.5h0s0,0,0,0h0c.1.1.3.2.5.2s.4,0,.5-.2h0s0,0,0,0h0c0,0,.2-.1.3-.1s.2,0,.3.1c0,0,0,0,0,0,.1.1.3.2.5.2s.4,0,.5-.2c0,0,0,0,0,0,0,0,.2-.1.3-.1s.2,0,.3.1c0,0,0,0,0,0,.1.1.3.2.5.2s.4,0,.5-.2c0,0,0,0,0,0,0,0,.2-.1.3-.1s.2,0,.3.1c0,0,0,0,0,0"/>
  <path class="st6" d="M70.7,3.1c0,0,.1.2.1.3s0,.2-.1.3c0,0,0,0,0,0,0,0-.2.1-.3.1s-.2,0-.3-.1c0,0,0,0,0,0,0,0-.1-.2-.1-.3s0-.2.1-.3c0,0,0,0,0,0,.1-.1.2-.3.2-.5s0-.4-.2-.5c0,0,0,0,0,0-.1-.1-.3-.2-.5-.2s-.4,0-.5.2c0,0,0,0,0,0-.1.1-.2.3-.2.5s0,.4.2.5c0,0,0,0,0,0,0,0,.1.2.1.3s0,.2-.1.3c0,0,0,0,0,0,0,0-.2.1-.3.1s-.2,0-.3-.1c0,0,0,0,0,0,0,0-.1-.2-.1-.3s0-.2.1-.3c0,0,0,0,0,0,.1-.1.2-.3.2-.5s0-.4-.2-.5c0,0,0,0,0,0-.1-.1-.3-.2-.5-.2s-.4,0-.5.2c0,0,0,0,0,0-.1.1-.2.3-.2.5s0,.4.2.5c0,0,0,0,0,0,0,0,.1.2.1.3s0,.2-.1.3c0,0,0,0,0,0,0,0-.2.1-.3.1s-.2,0-.3-.1c0,0,0,0,0,0,0,0-.1-.2-.1-.3s0-.2.1-.3c0,0,0,0,0,0,.1-.1.2-.3.2-.5s0-.4-.2-.5c0,0,0,0,0,0,0,0-.1-.2-.1-.3s0-.2.1-.3c0,0,0,0,0,0,0,0,.2-.1.3-.1s.2,0,.3.1c0,0,0,0,0,0,.1.1.3.2.5.2s.4,0,.5-.2c0,0,0,0,0,0,0,0,.2-.1.3-.1s.2,0,.3.1c0,0,0,0,0,0,.1.1.3.2.5.2s.4,0,.5-.2c0,0,0,0,0,0,0,0,.2-.1.3-.1s.2,0,.3.1c0,0,0,0,0,0,0,0,.1.2.1.3s0,.2-.1.3c0,0,0,0,0,0-.1.1-.2.3-.2.5s0,.4.2.5c0,0,0,0,0,0"/>
  <path class="st6" d="M70.7,4.7c0,0,.1.2.1.3s0,.2-.1.3c0,0,0,0,0,0,0,0-.2.1-.3.1s-.2,0-.3-.1c0,0,0,0,0,0-.1-.1-.3-.2-.5-.2s-.4,0-.5.2c0,0,0,0,0,0,0,0-.2.1-.3.1s-.2,0-.3-.1c0,0,0,0,0,0-.1-.1-.3-.2-.5-.2s-.4,0-.5.2c0,0,0,0,0,0,0,0-.2.1-.3.1s-.2,0-.3-.1c0,0,0,0,0,0-.1-.1-.3-.2-.5-.2s-.4,0-.5.2h0c0,0-.2.1-.3.1s-.2,0-.3-.1c0,0,0,0,0,0,0,0-.1-.2-.1-.3s0-.2.1-.3c0,0,0,0,0,0,.1-.1.2-.3.2-.5s0-.4-.2-.5c0,0,0,0,0,0,0,0-.1-.2-.1-.3s0-.2.1-.3c0,0,0,0,0,0,.1-.1.2-.3.2-.5s0-.4-.2-.5c0,0,0,0,0,0,0,0-.1-.2-.1-.3s0-.2.1-.3c0,0,0,0,0,0,.1-.1.2-.3.2-.5s0-.4-.2-.5c0,0,0,0,0,0,0,0-.1-.2-.1-.3s0-.2.1-.3c0,0,0,0,0,0,0,0,.2-.1.3-.1s.2,0,.3.1c0,0,0,0,0,0,.1.1.3.2.5.2s.4,0,.5-.2c0,0,0,0,0,0,0,0,.2-.1.3-.1s.2,0,.3.1c0,0,0,0,0,0,.1.1.3.2.5.2s.4,0,.5-.2c0,0,0,0,0,0,0,0,.2-.1.3-.1s.2,0,.3.1c0,0,0,0,0,0,.1.1.3.2.5.2s.4,0,.5-.2c0,0,0,0,0,0,0,0,.2-.1.3-.1s.2,0,.3.1c0,0,0,0,0,0,0,0,.1.2.1.3s0,.2-.1.3c0,0,0,0,0,0,0,0-.2.1-.3.1s-.2,0-.3-.1c0,0,0,0,0,0-.1-.1-.3-.2-.5-.2s-.4,0-.5.2c0,0,0,0,0,0,0,0-.2.1-.3.1s-.2,0-.3-.1c0,0,0,0,0,0-.1-.1-.3-.2-.5-.2s-.4,0-.5.2c0,0,0,0,0,0,0,0-.2.1-.3.1s-.2,0-.3-.1c0,0,0,0,0,0-.1-.1-.3-.2-.5-.2s-.4,0-.5.2h0c-.1.1-.2.3-.2.5s0,.4.2.5c0,0,0,0,0,0,0,0,.1.2.1.3s0,.2-.1.3c0,0,0,0,0,0-.1.1-.2.3-.2.5s0,.4.2.5h0s0,0,0,0h0c0,0,.1.2.1.3s0,.2-.1.3c0,0,0,0,0,0-.1.1-.2.3-.2.5s0,.4.2.5h0s0,0,0,0h0c.1.1.3.2.5.2s.4,0,.5-.2h0s0,0,0,0h0c0,0,.2-.1.3-.1s.2,0,.3.1c0,0,0,0,0,0,.1.1.3.2.5.2s.4,0,.5-.2c0,0,0,0,0,0,0,0,.2-.1.3-.1s.2,0,.3.1c0,0,0,0,0,0,.1.1.3.2.5.2s.4,0,.5-.2c0,0,0,0,0,0,0,0,.2-.1.3-.1s.2,0,.3.1c0,0,0,0,0,0"/>
  <path class="st6" d="M77,3.1c0,0,.1.2.1.3s0,.2-.1.3c0,0,0,0,0,0,0,0-.2.1-.3.1s-.2,0-.3-.1c0,0,0,0,0,0,0,0-.1-.2-.1-.3s0-.2.1-.3c0,0,0,0,0,0,.1-.1.2-.3.2-.5s0-.4-.2-.5c0,0,0,0,0,0-.1-.1-.3-.2-.5-.2s-.4,0-.5.2c0,0,0,0,0,0-.1.1-.2.3-.2.5s0,.4.2.5c0,0,0,0,0,0,0,0,.1.2.1.3s0,.2-.1.3c0,0,0,0,0,0,0,0-.2.1-.3.1s-.2,0-.3-.1c0,0,0,0,0,0,0,0-.1-.2-.1-.3s0-.2.1-.3c0,0,0,0,0,0,.1-.1.2-.3.2-.5s0-.4-.2-.5c0,0,0,0,0,0-.1-.1-.3-.2-.5-.2s-.4,0-.5.2c0,0,0,0,0,0-.1.1-.2.3-.2.5s0,.4.2.5c0,0,0,0,0,0,0,0,.1.2.1.3s0,.2-.1.3c0,0,0,0,0,0,0,0-.2.1-.3.1s-.2,0-.3-.1c0,0,0,0,0,0,0,0-.1-.2-.1-.3s0-.2.1-.3c0,0,0,0,0,0,.1-.1.2-.3.2-.5s0-.4-.2-.5c0,0,0,0,0,0,0,0-.1-.2-.1-.3s0-.2.1-.3c0,0,0,0,0,0,0,0,.2-.1.3-.1s.2,0,.3.1c0,0,0,0,0,0,.1.1.3.2.5.2s.4,0,.5-.2c0,0,0,0,0,0,0,0,.2-.1.3-.1s.2,0,.3.1c0,0,0,0,0,0,.1.1.3.2.5.2s.4,0,.5-.2c0,0,0,0,0,0,0,0,.2-.1.3-.1s.2,0,.3.1c0,0,0,0,0,0,0,0,.1.2.1.3s0,.2-.1.3c0,0,0,0,0,0-.1.1-.2.3-.2.5s0,.4.2.5c0,0,0,0,0,0"/>
  <path class="st6" d="M77,4.7c0,0,.1.2.1.3s0,.2-.1.3c0,0,0,0,0,0,0,0-.2.1-.3.1s-.2,0-.3-.1c0,0,0,0,0,0-.1-.1-.3-.2-.5-.2s-.4,0-.5.2c0,0,0,0,0,0,0,0-.2.1-.3.1s-.2,0-.3-.1c0,0,0,0,0,0-.1-.1-.3-.2-.5-.2s-.4,0-.5.2c0,0,0,0,0,0,0,0-.2.1-.3.1s-.2,0-.3-.1c0,0,0,0,0,0-.1-.1-.3-.2-.5-.2s-.4,0-.5.2h0c0,0-.2.1-.3.1s-.2,0-.3-.1c0,0,0,0,0,0,0,0-.1-.2-.1-.3s0-.2.1-.3c0,0,0,0,0,0,.1-.1.2-.3.2-.5s0-.4-.2-.5c0,0,0,0,0,0,0,0-.1-.2-.1-.3s0-.2.1-.3c0,0,0,0,0,0,.1-.1.2-.3.2-.5s0-.4-.2-.5c0,0,0,0,0,0,0,0-.1-.2-.1-.3s0-.2.1-.3c0,0,0,0,0,0,.1-.1.2-.3.2-.5s0-.4-.2-.5c0,0,0,0,0,0,0,0-.1-.2-.1-.3s0-.2.1-.3c0,0,0,0,0,0,0,0,.2-.1.3-.1s.2,0,.3.1c0,0,0,0,0,0,.1.1.3.2.5.2s.4,0,.5-.2c0,0,0,0,0,0,0,0,.2-.1.3-.1s.2,0,.3.1c0,0,0,0,0,0,.1.1.3.2.5.2s.4,0,.5-.2c0,0,0,0,0,0,0,0,.2-.1.3-.1s.2,0,.3.1c0,0,0,0,0,0,.1.1.3.2.5.2s.4,0,.5-.2c0,0,0,0,0,0,0,0,.2-.1.3-.1s.2,0,.3.1c0,0,0,0,0,0,0,0,.1.2.1.3s0,.2-.1.3c0,0,0,0,0,0,0,0-.2.1-.3.1s-.2,0-.3-.1c0,0,0,0,0,0-.1-.1-.3-.2-.5-.2s-.4,0-.5.2c0,0,0,0,0,0,0,0-.2.1-.3.1s-.2,0-.3-.1c0,0,0,0,0,0-.1-.1-.3-.2-.5-.2s-.4,0-.5.2c0,0,0,0,0,0,0,0-.2.1-.3.1s-.2,0-.3-.1c0,0,0,0,0,0-.1-.1-.3-.2-.5-.2s-.4,0-.5.2h0c-.1.1-.2.3-.2.5s0,.4.2.5c0,0,0,0,0,0,0,0,.1.2.1.3s0,.2-.1.3c0,0,0,0,0,0-.1.1-.2.3-.2.5s0,.4.2.5h0s0,0,0,0h0c0,0,.1.2.1.3s0,.2-.1.3c0,0,0,0,0,0-.1.1-.2.3-.2.5s0,.4.2.5h0s0,0,0,0h0c.1.1.3.2.5.2s.4,0,.5-.2h0s0,0,0,0h0c0,0,.2-.1.3-.1s.2,0,.3.1c0,0,0,0,0,0,.1.1.3.2.5.2s.4,0,.5-.2c0,0,0,0,0,0,0,0,.2-.1.3-.1s.2,0,.3.1c0,0,0,0,0,0,.1.1.3.2.5.2s.4,0,.5-.2c0,0,0,0,0,0,0,0,.2-.1.3-.1s.2,0,.3.1c0,0,0,0,0,0"/>
  <path class="st6" d="M83.4,3.1c0,0,.1.2.1.3s0,.2-.1.3c0,0,0,0,0,0,0,0-.2.1-.3.1s-.2,0-.3-.1c0,0,0,0,0,0,0,0-.1-.2-.1-.3s0-.2.1-.3c0,0,0,0,0,0,.1-.1.2-.3.2-.5s0-.4-.2-.5c0,0,0,0,0,0-.1-.1-.3-.2-.5-.2s-.4,0-.5.2c0,0,0,0,0,0-.1.1-.2.3-.2.5s0,.4.2.5c0,0,0,0,0,0,0,0,.1.2.1.3s0,.2-.1.3c0,0,0,0,0,0,0,0-.2.1-.3.1s-.2,0-.3-.1c0,0,0,0,0,0,0,0-.1-.2-.1-.3s0-.2.1-.3c0,0,0,0,0,0,.1-.1.2-.3.2-.5s0-.4-.2-.5c0,0,0,0,0,0-.1-.1-.3-.2-.5-.2s-.4,0-.5.2c0,0,0,0,0,0-.1.1-.2.3-.2.5s0,.4.2.5c0,0,0,0,0,0,0,0,.1.2.1.3s0,.2-.1.3c0,0,0,0,0,0,0,0-.2.1-.3.1s-.2,0-.3-.1c0,0,0,0,0,0,0,0-.1-.2-.1-.3s0-.2.1-.3c0,0,0,0,0,0,.1-.1.2-.3.2-.5s0-.4-.2-.5c0,0,0,0,0,0,0,0-.1-.2-.1-.3s0-.2.1-.3c0,0,0,0,0,0,0,0,.2-.1.3-.1s.2,0,.3.1c0,0,0,0,0,0,.1.1.3.2.5.2s.4,0,.5-.2c0,0,0,0,0,0,0,0,.2-.1.3-.1s.2,0,.3.1c0,0,0,0,0,0,.1.1.3.2.5.2s.4,0,.5-.2c0,0,0,0,0,0,0,0,.2-.1.3-.1s.2,0,.3.1c0,0,0,0,0,0,0,0,.1.2.1.3s0,.2-.1.3c0,0,0,0,0,0-.1.1-.2.3-.2.5s0,.4.2.5c0,0,0,0,0,0"/>
  <path class="st6" d="M83.4,4.7c0,0,.1.2.1.3s0,.2-.1.3c0,0,0,0,0,0,0,0-.2.1-.3.1s-.2,0-.3-.1c0,0,0,0,0,0-.1-.1-.3-.2-.5-.2s-.4,0-.5.2c0,0,0,0,0,0,0,0-.2.1-.3.1s-.2,0-.3-.1c0,0,0,0,0,0-.1-.1-.3-.2-.5-.2s-.4,0-.5.2c0,0,0,0,0,0,0,0-.2.1-.3.1s-.2,0-.3-.1c0,0,0,0,0,0-.1-.1-.3-.2-.5-.2s-.4,0-.5.2h0c0,0-.2.1-.3.1s-.2,0-.3-.1c0,0,0,0,0,0,0,0-.1-.2-.1-.3s0-.2.1-.3c0,0,0,0,0,0,.1-.1.2-.3.2-.5s0-.4-.2-.5c0,0,0,0,0,0,0,0-.1-.2-.1-.3s0-.2.1-.3c0,0,0,0,0,0,.1-.1.2-.3.2-.5s0-.4-.2-.5c0,0,0,0,0,0,0,0-.1-.2-.1-.3s0-.2.1-.3c0,0,0,0,0,0,.1-.1.2-.3.2-.5s0-.4-.2-.5c0,0,0,0,0,0,0,0-.1-.2-.1-.3s0-.2.1-.3c0,0,0,0,0,0,0,0,.2-.1.3-.1s.2,0,.3.1c0,0,0,0,0,0,.1.1.3.2.5.2s.4,0,.5-.2c0,0,0,0,0,0,0,0,.2-.1.3-.1s.2,0,.3.1c0,0,0,0,0,0,.1.1.3.2.5.2s.4,0,.5-.2c0,0,0,0,0,0,0,0,.2-.1.3-.1s.2,0,.3.1c0,0,0,0,0,0,.1.1.3.2.5.2s.4,0,.5-.2c0,0,0,0,0,0,0,0,.2-.1.3-.1s.2,0,.3.1c0,0,0,0,0,0,0,0,.1.2.1.3s0,.2-.1.3c0,0,0,0,0,0,0,0-.2.1-.3.1s-.2,0-.3-.1c0,0,0,0,0,0-.1-.1-.3-.2-.5-.2s-.4,0-.5.2c0,0,0,0,0,0,0,0-.2.1-.3.1s-.2,0-.3-.1c0,0,0,0,0,0-.1-.1-.3-.2-.5-.2s-.4,0-.5.2c0,0,0,0,0,0,0,0-.2.1-.3.1s-.2,0-.3-.1c0,0,0,0,0,0-.1-.1-.3-.2-.5-.2s-.4,0-.5.2h0c-.1.1-.2.3-.2.5s0,.4.2.5c0,0,0,0,0,0,0,0,.1.2.1.3s0,.2-.1.3c0,0,0,0,0,0-.1.1-.2.3-.2.5s0,.4.2.5h0s0,0,0,0h0c0,0,.1.2.1.3s0,.2-.1.3c0,0,0,0,0,0-.1.1-.2.3-.2.5s0,.4.2.5h0s0,0,0,0h0c.1.1.3.2.5.2s.4,0,.5-.2h0s0,0,0,0h0c0,0,.2-.1.3-.1s.2,0,.3.1c0,0,0,0,0,0,.1.1.3.2.5.2s.4,0,.5-.2c0,0,0,0,0,0,0,0,.2-.1.3-.1s.2,0,.3.1c0,0,0,0,0,0,.1.1.3.2.5.2s.4,0,.5-.2c0,0,0,0,0,0,0,0,.2-.1.3-.1s.2,0,.3.1c0,0,0,0,0,0"/>
  <path class="st6" d="M89.8,3.1c0,0,.1.2.1.3s0,.2-.1.3c0,0,0,0,0,0,0,0-.2.1-.3.1s-.2,0-.3-.1c0,0,0,0,0,0,0,0-.1-.2-.1-.3s0-.2.1-.3c0,0,0,0,0,0,.1-.1.2-.3.2-.5s0-.4-.2-.5c0,0,0,0,0,0-.1-.1-.3-.2-.5-.2s-.4,0-.5.2c0,0,0,0,0,0-.1.1-.2.3-.2.5s0,.4.2.5c0,0,0,0,0,0,0,0,.1.2.1.3s0,.2-.1.3c0,0,0,0,0,0,0,0-.2.1-.3.1s-.2,0-.3-.1c0,0,0,0,0,0,0,0-.1-.2-.1-.3s0-.2.1-.3c0,0,0,0,0,0,.1-.1.2-.3.2-.5s0-.4-.2-.5c0,0,0,0,0,0-.1-.1-.3-.2-.5-.2s-.4,0-.5.2c0,0,0,0,0,0-.1.1-.2.3-.2.5s0,.4.2.5c0,0,0,0,0,0,0,0,.1.2.1.3s0,.2-.1.3c0,0,0,0,0,0,0,0-.2.1-.3.1s-.2,0-.3-.1c0,0,0,0,0,0,0,0-.1-.2-.1-.3s0-.2.1-.3c0,0,0,0,0,0,.1-.1.2-.3.2-.5s0-.4-.2-.5c0,0,0,0,0,0,0,0-.1-.2-.1-.3s0-.2.1-.3c0,0,0,0,0,0,0,0,.2-.1.3-.1s.2,0,.3.1c0,0,0,0,0,0,.1.1.3.2.5.2s.4,0,.5-.2c0,0,0,0,0,0,0,0,.2-.1.3-.1s.2,0,.3.1c0,0,0,0,0,0,.1.1.3.2.5.2s.4,0,.5-.2c0,0,0,0,0,0,0,0,.2-.1.3-.1s.2,0,.3.1c0,0,0,0,0,0,0,0,.1.2.1.3s0,.2-.1.3c0,0,0,0,0,0-.1.1-.2.3-.2.5s0,.4.2.5c0,0,0,0,0,0"/>
  <path class="st6" d="M89.8,4.7c0,0,.1.2.1.3s0,.2-.1.3c0,0,0,0,0,0,0,0-.2.1-.3.1s-.2,0-.3-.1c0,0,0,0,0,0-.1-.1-.3-.2-.5-.2s-.4,0-.5.2c0,0,0,0,0,0,0,0-.2.1-.3.1s-.2,0-.3-.1c0,0,0,0,0,0-.1-.1-.3-.2-.5-.2s-.4,0-.5.2c0,0,0,0,0,0,0,0-.2.1-.3.1s-.2,0-.3-.1c0,0,0,0,0,0-.1-.1-.3-.2-.5-.2s-.4,0-.5.2h0c0,0-.2.1-.3.1s-.2,0-.3-.1c0,0,0,0,0,0,0,0-.1-.2-.1-.3s0-.2.1-.3c0,0,0,0,0,0,.1-.1.2-.3.2-.5s0-.4-.2-.5c0,0,0,0,0,0,0,0-.1-.2-.1-.3s0-.2.1-.3c0,0,0,0,0,0,.1-.1.2-.3.2-.5s0-.4-.2-.5c0,0,0,0,0,0,0,0-.1-.2-.1-.3s0-.2.1-.3c0,0,0,0,0,0,.1-.1.2-.3.2-.5s0-.4-.2-.5c0,0,0,0,0,0,0,0-.1-.2-.1-.3s0-.2.1-.3c0,0,0,0,0,0,0,0,.2-.1.3-.1s.2,0,.3.1c0,0,0,0,0,0,.1.1.3.2.5.2s.4,0,.5-.2c0,0,0,0,0,0,0,0,.2-.1.3-.1s.2,0,.3.1c0,0,0,0,0,0,.1.1.3.2.5.2s.4,0,.5-.2c0,0,0,0,0,0,0,0,.2-.1.3-.1s.2,0,.3.1c0,0,0,0,0,0,.1.1.3.2.5.2s.4,0,.5-.2c0,0,0,0,0,0,0,0,.2-.1.3-.1s.2,0,.3.1c0,0,0,0,0,0,0,0,.1.2.1.3s0,.2-.1.3c0,0,0,0,0,0,0,0-.2.1-.3.1s-.2,0-.3-.1c0,0,0,0,0,0-.1-.1-.3-.2-.5-.2s-.4,0-.5.2c0,0,0,0,0,0,0,0-.2.1-.3.1s-.2,0-.3-.1c0,0,0,0,0,0-.1-.1-.3-.2-.5-.2s-.4,0-.5.2c0,0,0,0,0,0,0,0-.2.1-.3.1s-.2,0-.3-.1c0,0,0,0,0,0-.1-.1-.3-.2-.5-.2s-.4,0-.5.2h0c-.1.1-.2.3-.2.5s0,.4.2.5c0,0,0,0,0,0,0,0,.1.2.1.3s0,.2-.1.3c0,0,0,0,0,0-.1.1-.2.3-.2.5s0,.4.2.5h0s0,0,0,0h0c0,0,.1.2.1.3s0,.2-.1.3c0,0,0,0,0,0-.1.1-.2.3-.2.5s0,.4.2.5h0s0,0,0,0h0c.1.1.3.2.5.2s.4,0,.5-.2h0s0,0,0,0h0c0,0,.2-.1.3-.1s.2,0,.3.1c0,0,0,0,0,0,.1.1.3.2.5.2s.4,0,.5-.2c0,0,0,0,0,0,0,0,.2-.1.3-.1s.2,0,.3.1c0,0,0,0,0,0,.1.1.3.2.5.2s.4,0,.5-.2c0,0,0,0,0,0,0,0,.2-.1.3-.1s.2,0,.3.1c0,0,0,0,0,0"/>
  <path class="st6" d="M19.6,9.5c0,0,.1.2.1.3s0,.2-.1.3c0,0,0,0,0,0,0,0-.2.1-.3.1s-.2,0-.3-.1c0,0,0,0,0,0,0,0-.1-.2-.1-.3s0-.2.1-.3c0,0,0,0,0,0,.1-.1.2-.3.2-.5s0-.4-.2-.5c0,0,0,0,0,0-.1-.1-.3-.2-.5-.2s-.4,0-.5.2c0,0,0,0,0,0-.1.1-.2.3-.2.5s0,.4.2.5c0,0,0,0,0,0,0,0,.1.2.1.3s0,.2-.1.3c0,0,0,0,0,0,0,0-.2.1-.3.1s-.2,0-.3-.1c0,0,0,0,0,0,0,0-.1-.2-.1-.3s0-.2.1-.3c0,0,0,0,0,0,.1-.1.2-.3.2-.5s0-.4-.2-.5c0,0,0,0,0,0-.1-.1-.3-.2-.5-.2s-.4,0-.5.2c0,0,0,0,0,0-.1.1-.2.3-.2.5s0,.4.2.5c0,0,0,0,0,0,0,0,.1.2.1.3s0,.2-.1.3c0,0,0,0,0,0,0,0-.2.1-.3.1s-.2,0-.3-.1c0,0,0,0,0,0,0,0-.1-.2-.1-.3s0-.2.1-.3c0,0,0,0,0,0,.1-.1.2-.3.2-.5s0-.4-.2-.5c0,0,0,0,0,0,0,0-.1-.2-.1-.3s0-.2.1-.3c0,0,0,0,0,0,0,0,.2-.1.3-.1s.2,0,.3.1c0,0,0,0,0,0,.1.1.3.2.5.2s.4,0,.5-.2c0,0,0,0,0,0,0,0,.2-.1.3-.1s.2,0,.3.1c0,0,0,0,0,0,.1.1.3.2.5.2s.4,0,.5-.2c0,0,0,0,0,0,0,0,.2-.1.3-.1s.2,0,.3.1c0,0,0,0,0,0,0,0,.1.2.1.3s0,.2-.1.3c0,0,0,0,0,0-.1.1-.2.3-.2.5s0,.4.2.5c0,0,0,0,0,0"/>
  <path class="st6" d="M19.6,11.1c0,0,.1.2.1.3s0,.2-.1.3c0,0,0,0,0,0,0,0-.2.1-.3.1s-.2,0-.3-.1c0,0,0,0,0,0-.1-.1-.3-.2-.5-.2s-.4,0-.5.2c0,0,0,0,0,0,0,0-.2.1-.3.1s-.2,0-.3-.1c0,0,0,0,0,0-.1-.1-.3-.2-.5-.2s-.4,0-.5.2c0,0,0,0,0,0,0,0-.2.1-.3.1s-.2,0-.3-.1c0,0,0,0,0,0-.1-.1-.3-.2-.5-.2s-.4,0-.5.2h0c0,0-.2.1-.3.1s-.2,0-.3-.1c0,0,0,0,0,0,0,0-.1-.2-.1-.3s0-.2.1-.3c0,0,0,0,0,0,.1-.1.2-.3.2-.5s0-.4-.2-.5c0,0,0,0,0,0,0,0-.1-.2-.1-.3s0-.2.1-.3c0,0,0,0,0,0,.1-.1.2-.3.2-.5s0-.4-.2-.5c0,0,0,0,0,0,0,0-.1-.2-.1-.3s0-.2.1-.3c0,0,0,0,0,0,.1-.1.2-.3.2-.5s0-.4-.2-.5c0,0,0,0,0,0,0,0-.1-.2-.1-.3s0-.2.1-.3c0,0,0,0,0,0,0,0,.2-.1.3-.1s.2,0,.3.1c0,0,0,0,0,0,.1.1.3.2.5.2s.4,0,.5-.2c0,0,0,0,0,0,0,0,.2-.1.3-.1s.2,0,.3.1c0,0,0,0,0,0,.1.1.3.2.5.2s.4,0,.5-.2c0,0,0,0,0,0,0,0,.2-.1.3-.1s.2,0,.3.1c0,0,0,0,0,0,.1.1.3.2.5.2s.4,0,.5-.2c0,0,0,0,0,0,0,0,.2-.1.3-.1s.2,0,.3.1c0,0,0,0,0,0,0,0,.1.2.1.3s0,.2-.1.3c0,0,0,0,0,0,0,0-.2.1-.3.1s-.2,0-.3-.1c0,0,0,0,0,0-.1-.1-.3-.2-.5-.2s-.4,0-.5.2c0,0,0,0,0,0,0,0-.2.1-.3.1s-.2,0-.3-.1c0,0,0,0,0,0-.1-.1-.3-.2-.5-.2s-.4,0-.5.2c0,0,0,0,0,0,0,0-.2.1-.3.1s-.2,0-.3-.1c0,0,0,0,0,0-.1-.1-.3-.2-.5-.2s-.4,0-.5.2h0c-.1.1-.2.3-.2.5s0,.4.2.5c0,0,0,0,0,0,0,0,.1.2.1.3s0,.2-.1.3c0,0,0,0,0,0-.1.1-.2.3-.2.5s0,.4.2.5h0s0,0,0,0h0c0,0,.1.2.1.3s0,.2-.1.3c0,0,0,0,0,0-.1.1-.2.3-.2.5s0,.4.2.5h0s0,0,0,0h0c.1.1.3.2.5.2s.4,0,.5-.2h0s0,0,0,0h0c0,0,.2-.1.3-.1s.2,0,.3.1c0,0,0,0,0,0,.1.1.3.2.5.2s.4,0,.5-.2c0,0,0,0,0,0,0,0,.2-.1.3-.1s.2,0,.3.1c0,0,0,0,0,0,.1.1.3.2.5.2s.4,0,.5-.2c0,0,0,0,0,0,0,0,.2-.1.3-.1s.2,0,.3.1c0,0,0,0,0,0"/>
  <path class="st6" d="M26,9.5c0,0,.1.2.1.3s0,.2-.1.3c0,0,0,0,0,0,0,0-.2.1-.3.1s-.2,0-.3-.1c0,0,0,0,0,0,0,0-.1-.2-.1-.3s0-.2.1-.3c0,0,0,0,0,0,.1-.1.2-.3.2-.5s0-.4-.2-.5c0,0,0,0,0,0-.1-.1-.3-.2-.5-.2s-.4,0-.5.2c0,0,0,0,0,0-.1.1-.2.3-.2.5s0,.4.2.5c0,0,0,0,0,0,0,0,.1.2.1.3s0,.2-.1.3c0,0,0,0,0,0,0,0-.2.1-.3.1s-.2,0-.3-.1c0,0,0,0,0,0,0,0-.1-.2-.1-.3s0-.2.1-.3c0,0,0,0,0,0,.1-.1.2-.3.2-.5s0-.4-.2-.5c0,0,0,0,0,0-.1-.1-.3-.2-.5-.2s-.4,0-.5.2c0,0,0,0,0,0-.1.1-.2.3-.2.5s0,.4.2.5c0,0,0,0,0,0,0,0,.1.2.1.3s0,.2-.1.3c0,0,0,0,0,0,0,0-.2.1-.3.1s-.2,0-.3-.1c0,0,0,0,0,0,0,0-.1-.2-.1-.3s0-.2.1-.3c0,0,0,0,0,0,.1-.1.2-.3.2-.5s0-.4-.2-.5c0,0,0,0,0,0,0,0-.1-.2-.1-.3s0-.2.1-.3c0,0,0,0,0,0,0,0,.2-.1.3-.1s.2,0,.3.1c0,0,0,0,0,0,.1.1.3.2.5.2s.4,0,.5-.2c0,0,0,0,0,0,0,0,.2-.1.3-.1s.2,0,.3.1c0,0,0,0,0,0,.1.1.3.2.5.2s.4,0,.5-.2c0,0,0,0,0,0,0,0,.2-.1.3-.1s.2,0,.3.1c0,0,0,0,0,0,0,0,.1.2.1.3s0,.2-.1.3c0,0,0,0,0,0-.1.1-.2.3-.2.5s0,.4.2.5c0,0,0,0,0,0"/>
  <path class="st6" d="M26,11.1c0,0,.1.2.1.3s0,.2-.1.3c0,0,0,0,0,0,0,0-.2.1-.3.1s-.2,0-.3-.1c0,0,0,0,0,0-.1-.1-.3-.2-.5-.2s-.4,0-.5.2c0,0,0,0,0,0,0,0-.2.1-.3.1s-.2,0-.3-.1c0,0,0,0,0,0-.1-.1-.3-.2-.5-.2s-.4,0-.5.2c0,0,0,0,0,0,0,0-.2.1-.3.1s-.2,0-.3-.1c0,0,0,0,0,0-.1-.1-.3-.2-.5-.2s-.4,0-.5.2h0c0,0-.2.1-.3.1s-.2,0-.3-.1c0,0,0,0,0,0,0,0-.1-.2-.1-.3s0-.2.1-.3c0,0,0,0,0,0,.1-.1.2-.3.2-.5s0-.4-.2-.5c0,0,0,0,0,0,0,0-.1-.2-.1-.3s0-.2.1-.3c0,0,0,0,0,0,.1-.1.2-.3.2-.5s0-.4-.2-.5c0,0,0,0,0,0,0,0-.1-.2-.1-.3s0-.2.1-.3c0,0,0,0,0,0,.1-.1.2-.3.2-.5s0-.4-.2-.5c0,0,0,0,0,0,0,0-.1-.2-.1-.3s0-.2.1-.3c0,0,0,0,0,0,0,0,.2-.1.3-.1s.2,0,.3.1c0,0,0,0,0,0,.1.1.3.2.5.2s.4,0,.5-.2c0,0,0,0,0,0,0,0,.2-.1.3-.1s.2,0,.3.1c0,0,0,0,0,0,.1.1.3.2.5.2s.4,0,.5-.2c0,0,0,0,0,0,0,0,.2-.1.3-.1s.2,0,.3.1c0,0,0,0,0,0,.1.1.3.2.5.2s.4,0,.5-.2c0,0,0,0,0,0,0,0,.2-.1.3-.1s.2,0,.3.1c0,0,0,0,0,0,0,0,.1.2.1.3s0,.2-.1.3c0,0,0,0,0,0,0,0-.2.1-.3.1s-.2,0-.3-.1c0,0,0,0,0,0-.1-.1-.3-.2-.5-.2s-.4,0-.5.2c0,0,0,0,0,0,0,0-.2.1-.3.1s-.2,0-.3-.1c0,0,0,0,0,0-.1-.1-.3-.2-.5-.2s-.4,0-.5.2c0,0,0,0,0,0,0,0-.2.1-.3.1s-.2,0-.3-.1c0,0,0,0,0,0-.1-.1-.3-.2-.5-.2s-.4,0-.5.2h0c-.1.1-.2.3-.2.5s0,.4.2.5c0,0,0,0,0,0,0,0,.1.2.1.3s0,.2-.1.3c0,0,0,0,0,0-.1.1-.2.3-.2.5s0,.4.2.5h0s0,0,0,0h0c0,0,.1.2.1.3s0,.2-.1.3c0,0,0,0,0,0-.1.1-.2.3-.2.5s0,.4.2.5h0s0,0,0,0h0c.1.1.3.2.5.2s.4,0,.5-.2h0s0,0,0,0h0c0,0,.2-.1.3-.1s.2,0,.3.1c0,0,0,0,0,0,.1.1.3.2.5.2s.4,0,.5-.2c0,0,0,0,0,0,0,0,.2-.1.3-.1s.2,0,.3.1c0,0,0,0,0,0,.1.1.3.2.5.2s.4,0,.5-.2c0,0,0,0,0,0,0,0,.2-.1.3-.1s.2,0,.3.1c0,0,0,0,0,0"/>
  <path class="st6" d="M32.4,9.5c0,0,.1.2.1.3s0,.2-.1.3c0,0,0,0,0,0,0,0-.2.1-.3.1s-.2,0-.3-.1c0,0,0,0,0,0,0,0-.1-.2-.1-.3s0-.2.1-.3c0,0,0,0,0,0,.1-.1.2-.3.2-.5s0-.4-.2-.5c0,0,0,0,0,0-.1-.1-.3-.2-.5-.2s-.4,0-.5.2c0,0,0,0,0,0-.1.1-.2.3-.2.5s0,.4.2.5c0,0,0,0,0,0,0,0,.1.2.1.3s0,.2-.1.3c0,0,0,0,0,0,0,0-.2.1-.3.1s-.2,0-.3-.1c0,0,0,0,0,0,0,0-.1-.2-.1-.3s0-.2.1-.3c0,0,0,0,0,0,.1-.1.2-.3.2-.5s0-.4-.2-.5c0,0,0,0,0,0-.1-.1-.3-.2-.5-.2s-.4,0-.5.2c0,0,0,0,0,0-.1.1-.2.3-.2.5s0,.4.2.5c0,0,0,0,0,0,0,0,.1.2.1.3s0,.2-.1.3c0,0,0,0,0,0,0,0-.2.1-.3.1s-.2,0-.3-.1c0,0,0,0,0,0,0,0-.1-.2-.1-.3s0-.2.1-.3c0,0,0,0,0,0,.1-.1.2-.3.2-.5s0-.4-.2-.5c0,0,0,0,0,0,0,0-.1-.2-.1-.3s0-.2.1-.3c0,0,0,0,0,0,0,0,.2-.1.3-.1s.2,0,.3.1c0,0,0,0,0,0,.1.1.3.2.5.2s.4,0,.5-.2c0,0,0,0,0,0,0,0,.2-.1.3-.1s.2,0,.3.1c0,0,0,0,0,0,.1.1.3.2.5.2s.4,0,.5-.2c0,0,0,0,0,0,0,0,.2-.1.3-.1s.2,0,.3.1c0,0,0,0,0,0,0,0,.1.2.1.3s0,.2-.1.3c0,0,0,0,0,0-.1.1-.2.3-.2.5s0,.4.2.5c0,0,0,0,0,0"/>
  <path class="st6" d="M32.4,11.1c0,0,.1.2.1.3s0,.2-.1.3c0,0,0,0,0,0,0,0-.2.1-.3.1s-.2,0-.3-.1c0,0,0,0,0,0-.1-.1-.3-.2-.5-.2s-.4,0-.5.2c0,0,0,0,0,0,0,0-.2.1-.3.1s-.2,0-.3-.1c0,0,0,0,0,0-.1-.1-.3-.2-.5-.2s-.4,0-.5.2c0,0,0,0,0,0,0,0-.2.1-.3.1s-.2,0-.3-.1c0,0,0,0,0,0-.1-.1-.3-.2-.5-.2s-.4,0-.5.2h0c0,0-.2.1-.3.1s-.2,0-.3-.1c0,0,0,0,0,0,0,0-.1-.2-.1-.3s0-.2.1-.3c0,0,0,0,0,0,.1-.1.2-.3.2-.5s0-.4-.2-.5c0,0,0,0,0,0,0,0-.1-.2-.1-.3s0-.2.1-.3c0,0,0,0,0,0,.1-.1.2-.3.2-.5s0-.4-.2-.5c0,0,0,0,0,0,0,0-.1-.2-.1-.3s0-.2.1-.3c0,0,0,0,0,0,.1-.1.2-.3.2-.5s0-.4-.2-.5c0,0,0,0,0,0,0,0-.1-.2-.1-.3s0-.2.1-.3c0,0,0,0,0,0,0,0,.2-.1.3-.1s.2,0,.3.1c0,0,0,0,0,0,.1.1.3.2.5.2s.4,0,.5-.2c0,0,0,0,0,0,0,0,.2-.1.3-.1s.2,0,.3.1c0,0,0,0,0,0,.1.1.3.2.5.2s.4,0,.5-.2c0,0,0,0,0,0,0,0,.2-.1.3-.1s.2,0,.3.1c0,0,0,0,0,0,.1.1.3.2.5.2s.4,0,.5-.2c0,0,0,0,0,0,0,0,.2-.1.3-.1s.2,0,.3.1c0,0,0,0,0,0,0,0,.1.2.1.3s0,.2-.1.3c0,0,0,0,0,0,0,0-.2.1-.3.1s-.2,0-.3-.1c0,0,0,0,0,0-.1-.1-.3-.2-.5-.2s-.4,0-.5.2c0,0,0,0,0,0,0,0-.2.1-.3.1s-.2,0-.3-.1c0,0,0,0,0,0-.1-.1-.3-.2-.5-.2s-.4,0-.5.2c0,0,0,0,0,0,0,0-.2.1-.3.1s-.2,0-.3-.1c0,0,0,0,0,0-.1-.1-.3-.2-.5-.2s-.4,0-.5.2h0c-.1.1-.2.3-.2.5s0,.4.2.5c0,0,0,0,0,0,0,0,.1.2.1.3s0,.2-.1.3c0,0,0,0,0,0-.1.1-.2.3-.2.5s0,.4.2.5h0s0,0,0,0h0c0,0,.1.2.1.3s0,.2-.1.3c0,0,0,0,0,0-.1.1-.2.3-.2.5s0,.4.2.5h0s0,0,0,0h0c.1.1.3.2.5.2s.4,0,.5-.2h0s0,0,0,0h0c0,0,.2-.1.3-.1s.2,0,.3.1c0,0,0,0,0,0,.1.1.3.2.5.2s.4,0,.5-.2c0,0,0,0,0,0,0,0,.2-.1.3-.1s.2,0,.3.1c0,0,0,0,0,0,.1.1.3.2.5.2s.4,0,.5-.2c0,0,0,0,0,0,0,0,.2-.1.3-.1s.2,0,.3.1c0,0,0,0,0,0"/>
  <path class="st6" d="M38.7,9.5c0,0,.1.2.1.3s0,.2-.1.3c0,0,0,0,0,0,0,0-.2.1-.3.1s-.2,0-.3-.1c0,0,0,0,0,0,0,0-.1-.2-.1-.3s0-.2.1-.3c0,0,0,0,0,0,.1-.1.2-.3.2-.5s0-.4-.2-.5c0,0,0,0,0,0-.1-.1-.3-.2-.5-.2s-.4,0-.5.2c0,0,0,0,0,0-.1.1-.2.3-.2.5s0,.4.2.5c0,0,0,0,0,0,0,0,.1.2.1.3s0,.2-.1.3c0,0,0,0,0,0,0,0-.2.1-.3.1s-.2,0-.3-.1c0,0,0,0,0,0,0,0-.1-.2-.1-.3s0-.2.1-.3c0,0,0,0,0,0,.1-.1.2-.3.2-.5s0-.4-.2-.5c0,0,0,0,0,0-.1-.1-.3-.2-.5-.2s-.4,0-.5.2c0,0,0,0,0,0-.1.1-.2.3-.2.5s0,.4.2.5c0,0,0,0,0,0,0,0,.1.2.1.3s0,.2-.1.3c0,0,0,0,0,0,0,0-.2.1-.3.1s-.2,0-.3-.1c0,0,0,0,0,0,0,0-.1-.2-.1-.3s0-.2.1-.3c0,0,0,0,0,0,.1-.1.2-.3.2-.5s0-.4-.2-.5c0,0,0,0,0,0,0,0-.1-.2-.1-.3s0-.2.1-.3c0,0,0,0,0,0,0,0,.2-.1.3-.1s.2,0,.3.1c0,0,0,0,0,0,.1.1.3.2.5.2s.4,0,.5-.2c0,0,0,0,0,0,0,0,.2-.1.3-.1s.2,0,.3.1c0,0,0,0,0,0,.1.1.3.2.5.2s.4,0,.5-.2c0,0,0,0,0,0,0,0,.2-.1.3-.1s.2,0,.3.1c0,0,0,0,0,0,0,0,.1.2.1.3s0,.2-.1.3c0,0,0,0,0,0-.1.1-.2.3-.2.5s0,.4.2.5c0,0,0,0,0,0"/>
  <path class="st6" d="M38.7,11.1c0,0,.1.2.1.3s0,.2-.1.3c0,0,0,0,0,0,0,0-.2.1-.3.1s-.2,0-.3-.1c0,0,0,0,0,0-.1-.1-.3-.2-.5-.2s-.4,0-.5.2c0,0,0,0,0,0,0,0-.2.1-.3.1s-.2,0-.3-.1c0,0,0,0,0,0-.1-.1-.3-.2-.5-.2s-.4,0-.5.2c0,0,0,0,0,0,0,0-.2.1-.3.1s-.2,0-.3-.1c0,0,0,0,0,0-.1-.1-.3-.2-.5-.2s-.4,0-.5.2h0c0,0-.2.1-.3.1s-.2,0-.3-.1c0,0,0,0,0,0,0,0-.1-.2-.1-.3s0-.2.1-.3c0,0,0,0,0,0,.1-.1.2-.3.2-.5s0-.4-.2-.5c0,0,0,0,0,0,0,0-.1-.2-.1-.3s0-.2.1-.3c0,0,0,0,0,0,.1-.1.2-.3.2-.5s0-.4-.2-.5c0,0,0,0,0,0,0,0-.1-.2-.1-.3s0-.2.1-.3c0,0,0,0,0,0,.1-.1.2-.3.2-.5s0-.4-.2-.5c0,0,0,0,0,0,0,0-.1-.2-.1-.3s0-.2.1-.3c0,0,0,0,0,0,0,0,.2-.1.3-.1s.2,0,.3.1c0,0,0,0,0,0,.1.1.3.2.5.2s.4,0,.5-.2c0,0,0,0,0,0,0,0,.2-.1.3-.1s.2,0,.3.1c0,0,0,0,0,0,.1.1.3.2.5.2s.4,0,.5-.2c0,0,0,0,0,0,0,0,.2-.1.3-.1s.2,0,.3.1c0,0,0,0,0,0,.1.1.3.2.5.2s.4,0,.5-.2c0,0,0,0,0,0,0,0,.2-.1.3-.1s.2,0,.3.1c0,0,0,0,0,0,0,0,.1.2.1.3s0,.2-.1.3c0,0,0,0,0,0,0,0-.2.1-.3.1s-.2,0-.3-.1c0,0,0,0,0,0-.1-.1-.3-.2-.5-.2s-.4,0-.5.2c0,0,0,0,0,0,0,0-.2.1-.3.1s-.2,0-.3-.1c0,0,0,0,0,0-.1-.1-.3-.2-.5-.2s-.4,0-.5.2c0,0,0,0,0,0,0,0-.2.1-.3.1s-.2,0-.3-.1c0,0,0,0,0,0-.1-.1-.3-.2-.5-.2s-.4,0-.5.2h0c-.1.1-.2.3-.2.5s0,.4.2.5c0,0,0,0,0,0,0,0,.1.2.1.3s0,.2-.1.3c0,0,0,0,0,0-.1.1-.2.3-.2.5s0,.4.2.5h0s0,0,0,0h0c0,0,.1.2.1.3s0,.2-.1.3c0,0,0,0,0,0-.1.1-.2.3-.2.5s0,.4.2.5h0s0,0,0,0h0c.1.1.3.2.5.2s.4,0,.5-.2h0s0,0,0,0h0c0,0,.2-.1.3-.1s.2,0,.3.1c0,0,0,0,0,0,.1.1.3.2.5.2s.4,0,.5-.2c0,0,0,0,0,0,0,0,.2-.1.3-.1s.2,0,.3.1c0,0,0,0,0,0,.1.1.3.2.5.2s.4,0,.5-.2c0,0,0,0,0,0,0,0,.2-.1.3-.1s.2,0,.3.1c0,0,0,0,0,0"/>
  <path class="st6" d="M45.1,9.5c0,0,.1.2.1.3s0,.2-.1.3c0,0,0,0,0,0,0,0-.2.1-.3.1s-.2,0-.3-.1c0,0,0,0,0,0,0,0-.1-.2-.1-.3s0-.2.1-.3c0,0,0,0,0,0,.1-.1.2-.3.2-.5s0-.4-.2-.5c0,0,0,0,0,0-.1-.1-.3-.2-.5-.2s-.4,0-.5.2c0,0,0,0,0,0-.1.1-.2.3-.2.5s0,.4.2.5c0,0,0,0,0,0,0,0,.1.2.1.3s0,.2-.1.3c0,0,0,0,0,0,0,0-.2.1-.3.1s-.2,0-.3-.1c0,0,0,0,0,0,0,0-.1-.2-.1-.3s0-.2.1-.3c0,0,0,0,0,0,.1-.1.2-.3.2-.5s0-.4-.2-.5c0,0,0,0,0,0-.1-.1-.3-.2-.5-.2s-.4,0-.5.2c0,0,0,0,0,0-.1.1-.2.3-.2.5s0,.4.2.5c0,0,0,0,0,0,0,0,.1.2.1.3s0,.2-.1.3c0,0,0,0,0,0,0,0-.2.1-.3.1s-.2,0-.3-.1c0,0,0,0,0,0,0,0-.1-.2-.1-.3s0-.2.1-.3c0,0,0,0,0,0,.1-.1.2-.3.2-.5s0-.4-.2-.5c0,0,0,0,0,0,0,0-.1-.2-.1-.3s0-.2.1-.3c0,0,0,0,0,0,0,0,.2-.1.3-.1s.2,0,.3.1c0,0,0,0,0,0,.1.1.3.2.5.2s.4,0,.5-.2c0,0,0,0,0,0,0,0,.2-.1.3-.1s.2,0,.3.1c0,0,0,0,0,0,.1.1.3.2.5.2s.4,0,.5-.2c0,0,0,0,0,0,0,0,.2-.1.3-.1s.2,0,.3.1c0,0,0,0,0,0,0,0,.1.2.1.3s0,.2-.1.3c0,0,0,0,0,0-.1.1-.2.3-.2.5s0,.4.2.5c0,0,0,0,0,0"/>
  <path class="st6" d="M45.1,11.1c0,0,.1.2.1.3s0,.2-.1.3c0,0,0,0,0,0,0,0-.2.1-.3.1s-.2,0-.3-.1c0,0,0,0,0,0-.1-.1-.3-.2-.5-.2s-.4,0-.5.2c0,0,0,0,0,0,0,0-.2.1-.3.1s-.2,0-.3-.1c0,0,0,0,0,0-.1-.1-.3-.2-.5-.2s-.4,0-.5.2c0,0,0,0,0,0,0,0-.2.1-.3.1s-.2,0-.3-.1c0,0,0,0,0,0-.1-.1-.3-.2-.5-.2s-.4,0-.5.2h0c0,0-.2.1-.3.1s-.2,0-.3-.1c0,0,0,0,0,0,0,0-.1-.2-.1-.3s0-.2.1-.3c0,0,0,0,0,0,.1-.1.2-.3.2-.5s0-.4-.2-.5c0,0,0,0,0,0,0,0-.1-.2-.1-.3s0-.2.1-.3c0,0,0,0,0,0,.1-.1.2-.3.2-.5s0-.4-.2-.5c0,0,0,0,0,0,0,0-.1-.2-.1-.3s0-.2.1-.3c0,0,0,0,0,0,.1-.1.2-.3.2-.5s0-.4-.2-.5c0,0,0,0,0,0,0,0-.1-.2-.1-.3s0-.2.1-.3c0,0,0,0,0,0,0,0,.2-.1.3-.1s.2,0,.3.1c0,0,0,0,0,0,.1.1.3.2.5.2s.4,0,.5-.2c0,0,0,0,0,0,0,0,.2-.1.3-.1s.2,0,.3.1c0,0,0,0,0,0,.1.1.3.2.5.2s.4,0,.5-.2c0,0,0,0,0,0,0,0,.2-.1.3-.1s.2,0,.3.1c0,0,0,0,0,0,.1.1.3.2.5.2s.4,0,.5-.2c0,0,0,0,0,0,0,0,.2-.1.3-.1s.2,0,.3.1c0,0,0,0,0,0,0,0,.1.2.1.3s0,.2-.1.3c0,0,0,0,0,0,0,0-.2.1-.3.1s-.2,0-.3-.1c0,0,0,0,0,0-.1-.1-.3-.2-.5-.2s-.4,0-.5.2c0,0,0,0,0,0,0,0-.2.1-.3.1s-.2,0-.3-.1c0,0,0,0,0,0-.1-.1-.3-.2-.5-.2s-.4,0-.5.2c0,0,0,0,0,0,0,0-.2.1-.3.1s-.2,0-.3-.1c0,0,0,0,0,0-.1-.1-.3-.2-.5-.2s-.4,0-.5.2h0c-.1.1-.2.3-.2.5s0,.4.2.5c0,0,0,0,0,0,0,0,.1.2.1.3s0,.2-.1.3c0,0,0,0,0,0-.1.1-.2.3-.2.5s0,.4.2.5h0s0,0,0,0h0c0,0,.1.2.1.3s0,.2-.1.3c0,0,0,0,0,0-.1.1-.2.3-.2.5s0,.4.2.5h0s0,0,0,0h0c.1.1.3.2.5.2s.4,0,.5-.2h0s0,0,0,0h0c0,0,.2-.1.3-.1s.2,0,.3.1c0,0,0,0,0,0,.1.1.3.2.5.2s.4,0,.5-.2c0,0,0,0,0,0,0,0,.2-.1.3-.1s.2,0,.3.1c0,0,0,0,0,0,.1.1.3.2.5.2s.4,0,.5-.2c0,0,0,0,0,0,0,0,.2-.1.3-.1s.2,0,.3.1c0,0,0,0,0,0"/>
  <path class="st6" d="M51.5,9.5c0,0,.1.2.1.3s0,.2-.1.3c0,0,0,0,0,0,0,0-.2.1-.3.1s-.2,0-.3-.1c0,0,0,0,0,0,0,0-.1-.2-.1-.3s0-.2.1-.3c0,0,0,0,0,0,.1-.1.2-.3.2-.5s0-.4-.2-.5c0,0,0,0,0,0-.1-.1-.3-.2-.5-.2s-.4,0-.5.2c0,0,0,0,0,0-.1.1-.2.3-.2.5s0,.4.2.5c0,0,0,0,0,0,0,0,.1.2.1.3s0,.2-.1.3c0,0,0,0,0,0,0,0-.2.1-.3.1s-.2,0-.3-.1c0,0,0,0,0,0,0,0-.1-.2-.1-.3s0-.2.1-.3c0,0,0,0,0,0,.1-.1.2-.3.2-.5s0-.4-.2-.5c0,0,0,0,0,0-.1-.1-.3-.2-.5-.2s-.4,0-.5.2c0,0,0,0,0,0-.1.1-.2.3-.2.5s0,.4.2.5c0,0,0,0,0,0,0,0,.1.2.1.3s0,.2-.1.3c0,0,0,0,0,0,0,0-.2.1-.3.1s-.2,0-.3-.1c0,0,0,0,0,0,0,0-.1-.2-.1-.3s0-.2.1-.3c0,0,0,0,0,0,.1-.1.2-.3.2-.5s0-.4-.2-.5c0,0,0,0,0,0,0,0-.1-.2-.1-.3s0-.2.1-.3c0,0,0,0,0,0,0,0,.2-.1.3-.1s.2,0,.3.1c0,0,0,0,0,0,.1.1.3.2.5.2s.4,0,.5-.2c0,0,0,0,0,0,0,0,.2-.1.3-.1s.2,0,.3.1c0,0,0,0,0,0,.1.1.3.2.5.2s.4,0,.5-.2c0,0,0,0,0,0,0,0,.2-.1.3-.1s.2,0,.3.1c0,0,0,0,0,0,0,0,.1.2.1.3s0,.2-.1.3c0,0,0,0,0,0-.1.1-.2.3-.2.5s0,.4.2.5c0,0,0,0,0,0"/>
  <path class="st6" d="M51.5,11.1c0,0,.1.2.1.3s0,.2-.1.3c0,0,0,0,0,0,0,0-.2.1-.3.1s-.2,0-.3-.1c0,0,0,0,0,0-.1-.1-.3-.2-.5-.2s-.4,0-.5.2c0,0,0,0,0,0,0,0-.2.1-.3.1s-.2,0-.3-.1c0,0,0,0,0,0-.1-.1-.3-.2-.5-.2s-.4,0-.5.2c0,0,0,0,0,0,0,0-.2.1-.3.1s-.2,0-.3-.1c0,0,0,0,0,0-.1-.1-.3-.2-.5-.2s-.4,0-.5.2h0c0,0-.2.1-.3.1s-.2,0-.3-.1c0,0,0,0,0,0,0,0-.1-.2-.1-.3s0-.2.1-.3c0,0,0,0,0,0,.1-.1.2-.3.2-.5s0-.4-.2-.5c0,0,0,0,0,0,0,0-.1-.2-.1-.3s0-.2.1-.3c0,0,0,0,0,0,.1-.1.2-.3.2-.5s0-.4-.2-.5c0,0,0,0,0,0,0,0-.1-.2-.1-.3s0-.2.1-.3c0,0,0,0,0,0,.1-.1.2-.3.2-.5s0-.4-.2-.5c0,0,0,0,0,0,0,0-.1-.2-.1-.3s0-.2.1-.3c0,0,0,0,0,0,0,0,.2-.1.3-.1s.2,0,.3.1c0,0,0,0,0,0,.1.1.3.2.5.2s.4,0,.5-.2c0,0,0,0,0,0,0,0,.2-.1.3-.1s.2,0,.3.1c0,0,0,0,0,0,.1.1.3.2.5.2s.4,0,.5-.2c0,0,0,0,0,0,0,0,.2-.1.3-.1s.2,0,.3.1c0,0,0,0,0,0,.1.1.3.2.5.2s.4,0,.5-.2c0,0,0,0,0,0,0,0,.2-.1.3-.1s.2,0,.3.1c0,0,0,0,0,0,0,0,.1.2.1.3s0,.2-.1.3c0,0,0,0,0,0,0,0-.2.1-.3.1s-.2,0-.3-.1c0,0,0,0,0,0-.1-.1-.3-.2-.5-.2s-.4,0-.5.2c0,0,0,0,0,0,0,0-.2.1-.3.1s-.2,0-.3-.1c0,0,0,0,0,0-.1-.1-.3-.2-.5-.2s-.4,0-.5.2c0,0,0,0,0,0,0,0-.2.1-.3.1s-.2,0-.3-.1c0,0,0,0,0,0-.1-.1-.3-.2-.5-.2s-.4,0-.5.2h0c-.1.1-.2.3-.2.5s0,.4.2.5c0,0,0,0,0,0,0,0,.1.2.1.3s0,.2-.1.3c0,0,0,0,0,0-.1.1-.2.3-.2.5s0,.4.2.5h0s0,0,0,0h0c0,0,.1.2.1.3s0,.2-.1.3c0,0,0,0,0,0-.1.1-.2.3-.2.5s0,.4.2.5h0s0,0,0,0h0c.1.1.3.2.5.2s.4,0,.5-.2h0s0,0,0,0h0c0,0,.2-.1.3-.1s.2,0,.3.1c0,0,0,0,0,0,.1.1.3.2.5.2s.4,0,.5-.2c0,0,0,0,0,0,0,0,.2-.1.3-.1s.2,0,.3.1c0,0,0,0,0,0,.1.1.3.2.5.2s.4,0,.5-.2c0,0,0,0,0,0,0,0,.2-.1.3-.1s.2,0,.3.1c0,0,0,0,0,0"/>
  <path class="st6" d="M26,16c0,0,.1.2.1.3s0,.2-.1.3c0,0,0,0,0,0,0,0-.2.1-.3.1s-.2,0-.3-.1c0,0,0,0,0,0,0,0-.1-.2-.1-.3s0-.2.1-.3c0,0,0,0,0,0,.1-.1.2-.3.2-.5s0-.4-.2-.5c0,0,0,0,0,0-.1-.1-.3-.2-.5-.2s-.4,0-.5.2c0,0,0,0,0,0-.1.1-.2.3-.2.5s0,.4.2.5c0,0,0,0,0,0,0,0,.1.2.1.3s0,.2-.1.3c0,0,0,0,0,0,0,0-.2.1-.3.1s-.2,0-.3-.1c0,0,0,0,0,0,0,0-.1-.2-.1-.3s0-.2.1-.3c0,0,0,0,0,0,.1-.1.2-.3.2-.5s0-.4-.2-.5c0,0,0,0,0,0-.1-.1-.3-.2-.5-.2s-.4,0-.5.2c0,0,0,0,0,0-.1.1-.2.3-.2.5s0,.4.2.5c0,0,0,0,0,0,0,0,.1.2.1.3s0,.2-.1.3c0,0,0,0,0,0,0,0-.2.1-.3.1s-.2,0-.3-.1c0,0,0,0,0,0,0,0-.1-.2-.1-.3s0-.2.1-.3c0,0,0,0,0,0,.1-.1.2-.3.2-.5s0-.4-.2-.5c0,0,0,0,0,0,0,0-.1-.2-.1-.3s0-.2.1-.3c0,0,0,0,0,0,0,0,.2-.1.3-.1s.2,0,.3.1c0,0,0,0,0,0,.1.1.3.2.5.2s.4,0,.5-.2c0,0,0,0,0,0,0,0,.2-.1.3-.1s.2,0,.3.1c0,0,0,0,0,0,.1.1.3.2.5.2s.4,0,.5-.2c0,0,0,0,0,0,0,0,.2-.1.3-.1s.2,0,.3.1c0,0,0,0,0,0,0,0,.1.2.1.3s0,.2-.1.3c0,0,0,0,0,0-.1.1-.2.3-.2.5s0,.4.2.5c0,0,0,0,0,0"/>
  <path class="st6" d="M26,17.6c0,0,.1.2.1.3s0,.2-.1.3c0,0,0,0,0,0,0,0-.2.1-.3.1s-.2,0-.3-.1c0,0,0,0,0,0-.1-.1-.3-.2-.5-.2s-.4,0-.5.2c0,0,0,0,0,0,0,0-.2.1-.3.1s-.2,0-.3-.1c0,0,0,0,0,0-.1-.1-.3-.2-.5-.2s-.4,0-.5.2c0,0,0,0,0,0,0,0-.2.1-.3.1s-.2,0-.3-.1c0,0,0,0,0,0-.1-.1-.3-.2-.5-.2s-.4,0-.5.2h0c0,0-.2.1-.3.1s-.2,0-.3-.1c0,0,0,0,0,0,0,0-.1-.2-.1-.3s0-.2.1-.3c0,0,0,0,0,0,.1-.1.2-.3.2-.5s0-.4-.2-.5c0,0,0,0,0,0,0,0-.1-.2-.1-.3s0-.2.1-.3c0,0,0,0,0,0,.1-.1.2-.3.2-.5s0-.4-.2-.5c0,0,0,0,0,0,0,0-.1-.2-.1-.3s0-.2.1-.3c0,0,0,0,0,0,.1-.1.2-.3.2-.5s0-.4-.2-.5c0,0,0,0,0,0,0,0-.1-.2-.1-.3s0-.2.1-.3c0,0,0,0,0,0,0,0,.2-.1.3-.1s.2,0,.3.1c0,0,0,0,0,0,.1.1.3.2.5.2s.4,0,.5-.2c0,0,0,0,0,0,0,0,.2-.1.3-.1s.2,0,.3.1c0,0,0,0,0,0,.1.1.3.2.5.2s.4,0,.5-.2c0,0,0,0,0,0,0,0,.2-.1.3-.1s.2,0,.3.1c0,0,0,0,0,0,.1.1.3.2.5.2s.4,0,.5-.2c0,0,0,0,0,0,0,0,.2-.1.3-.1s.2,0,.3.1c0,0,0,0,0,0,0,0,.1.2.1.3s0,.2-.1.3c0,0,0,0,0,0,0,0-.2.1-.3.1s-.2,0-.3-.1c0,0,0,0,0,0-.1-.1-.3-.2-.5-.2s-.4,0-.5.2c0,0,0,0,0,0,0,0-.2.1-.3.1s-.2,0-.3-.1c0,0,0,0,0,0-.1-.1-.3-.2-.5-.2s-.4,0-.5.2c0,0,0,0,0,0,0,0-.2.1-.3.1s-.2,0-.3-.1c0,0,0,0,0,0-.1-.1-.3-.2-.5-.2s-.4,0-.5.2h0c-.1.1-.2.3-.2.5s0,.4.2.5c0,0,0,0,0,0,0,0,.1.2.1.3s0,.2-.1.3c0,0,0,0,0,0-.1.1-.2.3-.2.5s0,.4.2.5h0s0,0,0,0h0c0,0,.1.2.1.3s0,.2-.1.3c0,0,0,0,0,0-.1.1-.2.3-.2.5s0,.4.2.5h0s0,0,0,0h0c.1.1.3.2.5.2s.4,0,.5-.2h0s0,0,0,0h0c0,0,.2-.1.3-.1s.2,0,.3.1c0,0,0,0,0,0,.1.1.3.2.5.2s.4,0,.5-.2c0,0,0,0,0,0,0,0,.2-.1.3-.1s.2,0,.3.1c0,0,0,0,0,0,.1.1.3.2.5.2s.4,0,.5-.2c0,0,0,0,0,0,0,0,.2-.1.3-.1s.2,0,.3.1c0,0,0,0,0,0"/>
  <path class="st6" d="M38.7,16c0,0,.1.2.1.3s0,.2-.1.3c0,0,0,0,0,0,0,0-.2.1-.3.1s-.2,0-.3-.1c0,0,0,0,0,0,0,0-.1-.2-.1-.3s0-.2.1-.3c0,0,0,0,0,0,.1-.1.2-.3.2-.5s0-.4-.2-.5c0,0,0,0,0,0-.1-.1-.3-.2-.5-.2s-.4,0-.5.2c0,0,0,0,0,0-.1.1-.2.3-.2.5s0,.4.2.5c0,0,0,0,0,0,0,0,.1.2.1.3s0,.2-.1.3c0,0,0,0,0,0,0,0-.2.1-.3.1s-.2,0-.3-.1c0,0,0,0,0,0,0,0-.1-.2-.1-.3s0-.2.1-.3c0,0,0,0,0,0,.1-.1.2-.3.2-.5s0-.4-.2-.5c0,0,0,0,0,0-.1-.1-.3-.2-.5-.2s-.4,0-.5.2c0,0,0,0,0,0-.1.1-.2.3-.2.5s0,.4.2.5c0,0,0,0,0,0,0,0,.1.2.1.3s0,.2-.1.3c0,0,0,0,0,0,0,0-.2.1-.3.1s-.2,0-.3-.1c0,0,0,0,0,0,0,0-.1-.2-.1-.3s0-.2.1-.3c0,0,0,0,0,0,.1-.1.2-.3.2-.5s0-.4-.2-.5c0,0,0,0,0,0,0,0-.1-.2-.1-.3s0-.2.1-.3c0,0,0,0,0,0,0,0,.2-.1.3-.1s.2,0,.3.1c0,0,0,0,0,0,.1.1.3.2.5.2s.4,0,.5-.2c0,0,0,0,0,0,0,0,.2-.1.3-.1s.2,0,.3.1c0,0,0,0,0,0,.1.1.3.2.5.2s.4,0,.5-.2c0,0,0,0,0,0,0,0,.2-.1.3-.1s.2,0,.3.1c0,0,0,0,0,0,0,0,.1.2.1.3s0,.2-.1.3c0,0,0,0,0,0-.1.1-.2.3-.2.5s0,.4.2.5c0,0,0,0,0,0"/>
  <path class="st6" d="M38.7,17.6c0,0,.1.2.1.3s0,.2-.1.3c0,0,0,0,0,0,0,0-.2.1-.3.1s-.2,0-.3-.1c0,0,0,0,0,0-.1-.1-.3-.2-.5-.2s-.4,0-.5.2c0,0,0,0,0,0,0,0-.2.1-.3.1s-.2,0-.3-.1c0,0,0,0,0,0-.1-.1-.3-.2-.5-.2s-.4,0-.5.2c0,0,0,0,0,0,0,0-.2.1-.3.1s-.2,0-.3-.1c0,0,0,0,0,0-.1-.1-.3-.2-.5-.2s-.4,0-.5.2h0c0,0-.2.1-.3.1s-.2,0-.3-.1c0,0,0,0,0,0,0,0-.1-.2-.1-.3s0-.2.1-.3c0,0,0,0,0,0,.1-.1.2-.3.2-.5s0-.4-.2-.5c0,0,0,0,0,0,0,0-.1-.2-.1-.3s0-.2.1-.3c0,0,0,0,0,0,.1-.1.2-.3.2-.5s0-.4-.2-.5c0,0,0,0,0,0,0,0-.1-.2-.1-.3s0-.2.1-.3c0,0,0,0,0,0,.1-.1.2-.3.2-.5s0-.4-.2-.5c0,0,0,0,0,0,0,0-.1-.2-.1-.3s0-.2.1-.3c0,0,0,0,0,0,0,0,.2-.1.3-.1s.2,0,.3.1c0,0,0,0,0,0,.1.1.3.2.5.2s.4,0,.5-.2c0,0,0,0,0,0,0,0,.2-.1.3-.1s.2,0,.3.1c0,0,0,0,0,0,.1.1.3.2.5.2s.4,0,.5-.2c0,0,0,0,0,0,0,0,.2-.1.3-.1s.2,0,.3.1c0,0,0,0,0,0,.1.1.3.2.5.2s.4,0,.5-.2c0,0,0,0,0,0,0,0,.2-.1.3-.1s.2,0,.3.1c0,0,0,0,0,0,0,0,.1.2.1.3s0,.2-.1.3c0,0,0,0,0,0,0,0-.2.1-.3.1s-.2,0-.3-.1c0,0,0,0,0,0-.1-.1-.3-.2-.5-.2s-.4,0-.5.2c0,0,0,0,0,0,0,0-.2.1-.3.1s-.2,0-.3-.1c0,0,0,0,0,0-.1-.1-.3-.2-.5-.2s-.4,0-.5.2c0,0,0,0,0,0,0,0-.2.1-.3.1s-.2,0-.3-.1c0,0,0,0,0,0-.1-.1-.3-.2-.5-.2s-.4,0-.5.2h0c-.1.1-.2.3-.2.5s0,.4.2.5c0,0,0,0,0,0,0,0,.1.2.1.3s0,.2-.1.3c0,0,0,0,0,0-.1.1-.2.3-.2.5s0,.4.2.5h0s0,0,0,0h0c0,0,.1.2.1.3s0,.2-.1.3c0,0,0,0,0,0-.1.1-.2.3-.2.5s0,.4.2.5h0s0,0,0,0h0c.1.1.3.2.5.2s.4,0,.5-.2h0s0,0,0,0h0c0,0,.2-.1.3-.1s.2,0,.3.1c0,0,0,0,0,0,.1.1.3.2.5.2s.4,0,.5-.2c0,0,0,0,0,0,0,0,.2-.1.3-.1s.2,0,.3.1c0,0,0,0,0,0,.1.1.3.2.5.2s.4,0,.5-.2c0,0,0,0,0,0,0,0,.2-.1.3-.1s.2,0,.3.1c0,0,0,0,0,0"/>
  <path class="st6" d="M45.1,16c0,0,.1.2.1.3s0,.2-.1.3c0,0,0,0,0,0,0,0-.2.1-.3.1s-.2,0-.3-.1c0,0,0,0,0,0,0,0-.1-.2-.1-.3s0-.2.1-.3c0,0,0,0,0,0,.1-.1.2-.3.2-.5s0-.4-.2-.5c0,0,0,0,0,0-.1-.1-.3-.2-.5-.2s-.4,0-.5.2c0,0,0,0,0,0-.1.1-.2.3-.2.5s0,.4.2.5c0,0,0,0,0,0,0,0,.1.2.1.3s0,.2-.1.3c0,0,0,0,0,0,0,0-.2.1-.3.1s-.2,0-.3-.1c0,0,0,0,0,0,0,0-.1-.2-.1-.3s0-.2.1-.3c0,0,0,0,0,0,.1-.1.2-.3.2-.5s0-.4-.2-.5c0,0,0,0,0,0-.1-.1-.3-.2-.5-.2s-.4,0-.5.2c0,0,0,0,0,0-.1.1-.2.3-.2.5s0,.4.2.5c0,0,0,0,0,0,0,0,.1.2.1.3s0,.2-.1.3c0,0,0,0,0,0,0,0-.2.1-.3.1s-.2,0-.3-.1c0,0,0,0,0,0,0,0-.1-.2-.1-.3s0-.2.1-.3c0,0,0,0,0,0,.1-.1.2-.3.2-.5s0-.4-.2-.5c0,0,0,0,0,0,0,0-.1-.2-.1-.3s0-.2.1-.3c0,0,0,0,0,0,0,0,.2-.1.3-.1s.2,0,.3.1c0,0,0,0,0,0,.1.1.3.2.5.2s.4,0,.5-.2c0,0,0,0,0,0,0,0,.2-.1.3-.1s.2,0,.3.1c0,0,0,0,0,0,.1.1.3.2.5.2s.4,0,.5-.2c0,0,0,0,0,0,0,0,.2-.1.3-.1s.2,0,.3.1c0,0,0,0,0,0,0,0,.1.2.1.3s0,.2-.1.3c0,0,0,0,0,0-.1.1-.2.3-.2.5s0,.4.2.5c0,0,0,0,0,0"/>
  <path class="st6" d="M45.1,17.6c0,0,.1.2.1.3s0,.2-.1.3c0,0,0,0,0,0,0,0-.2.1-.3.1s-.2,0-.3-.1c0,0,0,0,0,0-.1-.1-.3-.2-.5-.2s-.4,0-.5.2c0,0,0,0,0,0,0,0-.2.1-.3.1s-.2,0-.3-.1c0,0,0,0,0,0-.1-.1-.3-.2-.5-.2s-.4,0-.5.2c0,0,0,0,0,0,0,0-.2.1-.3.1s-.2,0-.3-.1c0,0,0,0,0,0-.1-.1-.3-.2-.5-.2s-.4,0-.5.2h0c0,0-.2.1-.3.1s-.2,0-.3-.1c0,0,0,0,0,0,0,0-.1-.2-.1-.3s0-.2.1-.3c0,0,0,0,0,0,.1-.1.2-.3.2-.5s0-.4-.2-.5c0,0,0,0,0,0,0,0-.1-.2-.1-.3s0-.2.1-.3c0,0,0,0,0,0,.1-.1.2-.3.2-.5s0-.4-.2-.5c0,0,0,0,0,0,0,0-.1-.2-.1-.3s0-.2.1-.3c0,0,0,0,0,0,.1-.1.2-.3.2-.5s0-.4-.2-.5c0,0,0,0,0,0,0,0-.1-.2-.1-.3s0-.2.1-.3c0,0,0,0,0,0,0,0,.2-.1.3-.1s.2,0,.3.1c0,0,0,0,0,0,.1.1.3.2.5.2s.4,0,.5-.2c0,0,0,0,0,0,0,0,.2-.1.3-.1s.2,0,.3.1c0,0,0,0,0,0,.1.1.3.2.5.2s.4,0,.5-.2c0,0,0,0,0,0,0,0,.2-.1.3-.1s.2,0,.3.1c0,0,0,0,0,0,.1.1.3.2.5.2s.4,0,.5-.2c0,0,0,0,0,0,0,0,.2-.1.3-.1s.2,0,.3.1c0,0,0,0,0,0,0,0,.1.2.1.3s0,.2-.1.3c0,0,0,0,0,0,0,0-.2.1-.3.1s-.2,0-.3-.1c0,0,0,0,0,0-.1-.1-.3-.2-.5-.2s-.4,0-.5.2c0,0,0,0,0,0,0,0-.2.1-.3.1s-.2,0-.3-.1c0,0,0,0,0,0-.1-.1-.3-.2-.5-.2s-.4,0-.5.2c0,0,0,0,0,0,0,0-.2.1-.3.1s-.2,0-.3-.1c0,0,0,0,0,0-.1-.1-.3-.2-.5-.2s-.4,0-.5.2h0c-.1.1-.2.3-.2.5s0,.4.2.5c0,0,0,0,0,0,0,0,.1.2.1.3s0,.2-.1.3c0,0,0,0,0,0-.1.1-.2.3-.2.5s0,.4.2.5h0s0,0,0,0h0c0,0,.1.2.1.3s0,.2-.1.3c0,0,0,0,0,0-.1.1-.2.3-.2.5s0,.4.2.5h0s0,0,0,0h0c.1.1.3.2.5.2s.4,0,.5-.2h0s0,0,0,0h0c0,0,.2-.1.3-.1s.2,0,.3.1c0,0,0,0,0,0,.1.1.3.2.5.2s.4,0,.5-.2c0,0,0,0,0,0,0,0,.2-.1.3-.1s.2,0,.3.1c0,0,0,0,0,0,.1.1.3.2.5.2s.4,0,.5-.2c0,0,0,0,0,0,0,0,.2-.1.3-.1s.2,0,.3.1c0,0,0,0,0,0Z"/>
  <path class="st6" d="M51.5,16c0,0,.1.2.1.3s0,.2-.1.3c0,0,0,0,0,0,0,0-.2.1-.3.1s-.2,0-.3-.1c0,0,0,0,0,0,0,0-.1-.2-.1-.3s0-.2.1-.3c0,0,0,0,0,0,.1-.1.2-.3.2-.5s0-.4-.2-.5c0,0,0,0,0,0-.1-.1-.3-.2-.5-.2s-.4,0-.5.2c0,0,0,0,0,0-.1.1-.2.3-.2.5s0,.4.2.5c0,0,0,0,0,0,0,0,.1.2.1.3s0,.2-.1.3c0,0,0,0,0,0,0,0-.2.1-.3.1s-.2,0-.3-.1c0,0,0,0,0,0,0,0-.1-.2-.1-.3s0-.2.1-.3c0,0,0,0,0,0,.1-.1.2-.3.2-.5s0-.4-.2-.5c0,0,0,0,0,0-.1-.1-.3-.2-.5-.2s-.4,0-.5.2c0,0,0,0,0,0-.1.1-.2.3-.2.5s0,.4.2.5c0,0,0,0,0,0,0,0,.1.2.1.3s0,.2-.1.3c0,0,0,0,0,0,0,0-.2.1-.3.1s-.2,0-.3-.1c0,0,0,0,0,0,0,0-.1-.2-.1-.3s0-.2.1-.3c0,0,0,0,0,0,.1-.1.2-.3.2-.5s0-.4-.2-.5c0,0,0,0,0,0,0,0-.1-.2-.1-.3s0-.2.1-.3c0,0,0,0,0,0,0,0,.2-.1.3-.1s.2,0,.3.1c0,0,0,0,0,0,.1.1.3.2.5.2s.4,0,.5-.2c0,0,0,0,0,0,0,0,.2-.1.3-.1s.2,0,.3.1c0,0,0,0,0,0,.1.1.3.2.5.2s.4,0,.5-.2c0,0,0,0,0,0,0,0,.2-.1.3-.1s.2,0,.3.1c0,0,0,0,0,0,0,0,.1.2.1.3s0,.2-.1.3c0,0,0,0,0,0-.1.1-.2.3-.2.5s0,.4.2.5c0,0,0,0,0,0"/>
  <path class="st6" d="M51.5,17.6c0,0,.1.2.1.3s0,.2-.1.3c0,0,0,0,0,0,0,0-.2.1-.3.1s-.2,0-.3-.1c0,0,0,0,0,0-.1-.1-.3-.2-.5-.2s-.4,0-.5.2c0,0,0,0,0,0,0,0-.2.1-.3.1s-.2,0-.3-.1c0,0,0,0,0,0-.1-.1-.3-.2-.5-.2s-.4,0-.5.2c0,0,0,0,0,0,0,0-.2.1-.3.1s-.2,0-.3-.1c0,0,0,0,0,0-.1-.1-.3-.2-.5-.2s-.4,0-.5.2h0c0,0-.2.1-.3.1s-.2,0-.3-.1c0,0,0,0,0,0,0,0-.1-.2-.1-.3s0-.2.1-.3c0,0,0,0,0,0,.1-.1.2-.3.2-.5s0-.4-.2-.5c0,0,0,0,0,0,0,0-.1-.2-.1-.3s0-.2.1-.3c0,0,0,0,0,0,.1-.1.2-.3.2-.5s0-.4-.2-.5c0,0,0,0,0,0,0,0-.1-.2-.1-.3s0-.2.1-.3c0,0,0,0,0,0,.1-.1.2-.3.2-.5s0-.4-.2-.5c0,0,0,0,0,0,0,0-.1-.2-.1-.3s0-.2.1-.3c0,0,0,0,0,0,0,0,.2-.1.3-.1s.2,0,.3.1c0,0,0,0,0,0,.1.1.3.2.5.2s.4,0,.5-.2c0,0,0,0,0,0,0,0,.2-.1.3-.1s.2,0,.3.1c0,0,0,0,0,0,.1.1.3.2.5.2s.4,0,.5-.2c0,0,0,0,0,0,0,0,.2-.1.3-.1s.2,0,.3.1c0,0,0,0,0,0,.1.1.3.2.5.2s.4,0,.5-.2c0,0,0,0,0,0,0,0,.2-.1.3-.1s.2,0,.3.1c0,0,0,0,0,0,0,0,.1.2.1.3s0,.2-.1.3c0,0,0,0,0,0,0,0-.2.1-.3.1s-.2,0-.3-.1c0,0,0,0,0,0-.1-.1-.3-.2-.5-.2s-.4,0-.5.2c0,0,0,0,0,0,0,0-.2.1-.3.1s-.2,0-.3-.1c0,0,0,0,0,0-.1-.1-.3-.2-.5-.2s-.4,0-.5.2c0,0,0,0,0,0,0,0-.2.1-.3.1s-.2,0-.3-.1c0,0,0,0,0,0-.1-.1-.3-.2-.5-.2s-.4,0-.5.2h0c-.1.1-.2.3-.2.5s0,.4.2.5c0,0,0,0,0,0,0,0,.1.2.1.3s0,.2-.1.3c0,0,0,0,0,0-.1.1-.2.3-.2.5s0,.4.2.5h0s0,0,0,0h0c0,0,.1.2.1.3s0,.2-.1.3c0,0,0,0,0,0-.1.1-.2.3-.2.5s0,.4.2.5h0s0,0,0,0h0c.1.1.3.2.5.2s.4,0,.5-.2h0s0,0,0,0h0c0,0,.2-.1.3-.1s.2,0,.3.1c0,0,0,0,0,0,.1.1.3.2.5.2s.4,0,.5-.2c0,0,0,0,0,0,0,0,.2-.1.3-.1s.2,0,.3.1c0,0,0,0,0,0,.1.1.3.2.5.2s.4,0,.5-.2c0,0,0,0,0,0,0,0,.2-.1.3-.1s.2,0,.3.1c0,0,0,0,0,0Z"/>
  <path class="st6" d="M45.1,22.4c0,0,.1.2.1.3s0,.2-.1.3c0,0,0,0,0,0,0,0-.2.1-.3.1s-.2,0-.3-.1c0,0,0,0,0,0,0,0-.1-.2-.1-.3s0-.2.1-.3c0,0,0,0,0,0,.1-.1.2-.3.2-.5s0-.4-.2-.5c0,0,0,0,0,0-.1-.1-.3-.2-.5-.2s-.4,0-.5.2c0,0,0,0,0,0-.1.1-.2.3-.2.5s0,.4.2.5c0,0,0,0,0,0,0,0,.1.2.1.3s0,.2-.1.3c0,0,0,0,0,0,0,0-.2.1-.3.1s-.2,0-.3-.1c0,0,0,0,0,0,0,0-.1-.2-.1-.3s0-.2.1-.3c0,0,0,0,0,0,.1-.1.2-.3.2-.5s0-.4-.2-.5c0,0,0,0,0,0-.1-.1-.3-.2-.5-.2s-.4,0-.5.2c0,0,0,0,0,0-.1.1-.2.3-.2.5s0,.4.2.5c0,0,0,0,0,0,0,0,.1.2.1.3s0,.2-.1.3c0,0,0,0,0,0,0,0-.2.1-.3.1s-.2,0-.3-.1c0,0,0,0,0,0,0,0-.1-.2-.1-.3s0-.2.1-.3c0,0,0,0,0,0,.1-.1.2-.3.2-.5s0-.4-.2-.5c0,0,0,0,0,0,0,0-.1-.2-.1-.3s0-.2.1-.3c0,0,0,0,0,0,0,0,.2-.1.3-.1s.2,0,.3.1c0,0,0,0,0,0,.1.1.3.2.5.2s.4,0,.5-.2c0,0,0,0,0,0,0,0,.2-.1.3-.1s.2,0,.3.1c0,0,0,0,0,0,.1.1.3.2.5.2s.4,0,.5-.2c0,0,0,0,0,0,0,0,.2-.1.3-.1s.2,0,.3.1c0,0,0,0,0,0,0,0,.1.2.1.3s0,.2-.1.3c0,0,0,0,0,0-.1.1-.2.3-.2.5s0,.4.2.5c0,0,0,0,0,0"/>
  <path class="st6" d="M45.1,24c0,0,.1.2.1.3s0,.2-.1.3c0,0,0,0,0,0,0,0-.2.1-.3.1s-.2,0-.3-.1c0,0,0,0,0,0-.1-.1-.3-.2-.5-.2s-.4,0-.5.2c0,0,0,0,0,0,0,0-.2.1-.3.1s-.2,0-.3-.1c0,0,0,0,0,0-.1-.1-.3-.2-.5-.2s-.4,0-.5.2c0,0,0,0,0,0,0,0-.2.1-.3.1s-.2,0-.3-.1c0,0,0,0,0,0-.1-.1-.3-.2-.5-.2s-.4,0-.5.2h0c0,0-.2.1-.3.1s-.2,0-.3-.1c0,0,0,0,0,0,0,0-.1-.2-.1-.3s0-.2.1-.3c0,0,0,0,0,0,.1-.1.2-.3.2-.5s0-.4-.2-.5c0,0,0,0,0,0,0,0-.1-.2-.1-.3s0-.2.1-.3c0,0,0,0,0,0,.1-.1.2-.3.2-.5s0-.4-.2-.5c0,0,0,0,0,0,0,0-.1-.2-.1-.3s0-.2.1-.3c0,0,0,0,0,0,.1-.1.2-.3.2-.5s0-.4-.2-.5c0,0,0,0,0,0,0,0-.1-.2-.1-.3s0-.2.1-.3c0,0,0,0,0,0,0,0,.2-.1.3-.1s.2,0,.3.1c0,0,0,0,0,0,.1.1.3.2.5.2s.4,0,.5-.2c0,0,0,0,0,0,0,0,.2-.1.3-.1s.2,0,.3.1c0,0,0,0,0,0,.1.1.3.2.5.2s.4,0,.5-.2c0,0,0,0,0,0,0,0,.2-.1.3-.1s.2,0,.3.1c0,0,0,0,0,0,.1.1.3.2.5.2s.4,0,.5-.2c0,0,0,0,0,0,0,0,.2-.1.3-.1s.2,0,.3.1c0,0,0,0,0,0,0,0,.1.2.1.3s0,.2-.1.3c0,0,0,0,0,0,0,0-.2.1-.3.1s-.2,0-.3-.1c0,0,0,0,0,0-.1-.1-.3-.2-.5-.2s-.4,0-.5.2c0,0,0,0,0,0,0,0-.2.1-.3.1s-.2,0-.3-.1c0,0,0,0,0,0-.1-.1-.3-.2-.5-.2s-.4,0-.5.2c0,0,0,0,0,0,0,0-.2.1-.3.1s-.2,0-.3-.1c0,0,0,0,0,0-.1-.1-.3-.2-.5-.2s-.4,0-.5.2h0c-.1.1-.2.3-.2.5s0,.4.2.5c0,0,0,0,0,0,0,0,.1.2.1.3s0,.2-.1.3h0c-.1.1-.2.3-.2.5s0,.4.2.5h0s0,0,0,0h0c0,0,.1.2.1.3s0,.2-.1.3c0,0,0,0,0,0-.1.1-.2.3-.2.5s0,.4.2.5h0s0,0,0,0h0c.1.1.3.2.5.2s.4,0,.5-.2h0s0,0,0,0h0c0,0,.2-.1.3-.1s.2,0,.3.1c0,0,0,0,0,0,.1.1.3.2.5.2s.4,0,.5-.2c0,0,0,0,0,0,0,0,.2-.1.3-.1s.2,0,.3.1c0,0,0,0,0,0,.1.1.3.2.5.2s.4,0,.5-.2c0,0,0,0,0,0,0,0,.2-.1.3-.1s.2,0,.3.1c0,0,0,0,0,0"/>
  <path class="st6" d="M57.9,9.5c0,0,.1.2.1.3s0,.2-.1.3c0,0,0,0,0,0,0,0-.2.1-.3.1s-.2,0-.3-.1c0,0,0,0,0,0,0,0-.1-.2-.1-.3s0-.2.1-.3c0,0,0,0,0,0,.1-.1.2-.3.2-.5s0-.4-.2-.5c0,0,0,0,0,0-.1-.1-.3-.2-.5-.2s-.4,0-.5.2c0,0,0,0,0,0-.1.1-.2.3-.2.5s0,.4.2.5c0,0,0,0,0,0,0,0,.1.2.1.3s0,.2-.1.3c0,0,0,0,0,0,0,0-.2.1-.3.1s-.2,0-.3-.1c0,0,0,0,0,0,0,0-.1-.2-.1-.3s0-.2.1-.3c0,0,0,0,0,0,.1-.1.2-.3.2-.5s0-.4-.2-.5c0,0,0,0,0,0-.1-.1-.3-.2-.5-.2s-.4,0-.5.2c0,0,0,0,0,0-.1.1-.2.3-.2.5s0,.4.2.5c0,0,0,0,0,0,0,0,.1.2.1.3s0,.2-.1.3c0,0,0,0,0,0,0,0-.2.1-.3.1s-.2,0-.3-.1c0,0,0,0,0,0,0,0-.1-.2-.1-.3s0-.2.1-.3c0,0,0,0,0,0,.1-.1.2-.3.2-.5s0-.4-.2-.5c0,0,0,0,0,0,0,0-.1-.2-.1-.3s0-.2.1-.3c0,0,0,0,0,0,0,0,.2-.1.3-.1s.2,0,.3.1c0,0,0,0,0,0,.1.1.3.2.5.2s.4,0,.5-.2c0,0,0,0,0,0,0,0,.2-.1.3-.1s.2,0,.3.1c0,0,0,0,0,0,.1.1.3.2.5.2s.4,0,.5-.2c0,0,0,0,0,0,0,0,.2-.1.3-.1s.2,0,.3.1c0,0,0,0,0,0,0,0,.1.2.1.3s0,.2-.1.3c0,0,0,0,0,0-.1.1-.2.3-.2.5s0,.4.2.5c0,0,0,0,0,0"/>
  <path class="st6" d="M57.9,11.1c0,0,.1.2.1.3s0,.2-.1.3c0,0,0,0,0,0,0,0-.2.1-.3.1s-.2,0-.3-.1c0,0,0,0,0,0-.1-.1-.3-.2-.5-.2s-.4,0-.5.2c0,0,0,0,0,0,0,0-.2.1-.3.1s-.2,0-.3-.1c0,0,0,0,0,0-.1-.1-.3-.2-.5-.2s-.4,0-.5.2c0,0,0,0,0,0,0,0-.2.1-.3.1s-.2,0-.3-.1c0,0,0,0,0,0-.1-.1-.3-.2-.5-.2s-.4,0-.5.2h0c0,0-.2.1-.3.1s-.2,0-.3-.1c0,0,0,0,0,0,0,0-.1-.2-.1-.3s0-.2.1-.3c0,0,0,0,0,0,.1-.1.2-.3.2-.5s0-.4-.2-.5c0,0,0,0,0,0,0,0-.1-.2-.1-.3s0-.2.1-.3c0,0,0,0,0,0,.1-.1.2-.3.2-.5s0-.4-.2-.5c0,0,0,0,0,0,0,0-.1-.2-.1-.3s0-.2.1-.3c0,0,0,0,0,0,.1-.1.2-.3.2-.5s0-.4-.2-.5c0,0,0,0,0,0,0,0-.1-.2-.1-.3s0-.2.1-.3c0,0,0,0,0,0,0,0,.2-.1.3-.1s.2,0,.3.1c0,0,0,0,0,0,.1.1.3.2.5.2s.4,0,.5-.2c0,0,0,0,0,0,0,0,.2-.1.3-.1s.2,0,.3.1c0,0,0,0,0,0,.1.1.3.2.5.2s.4,0,.5-.2c0,0,0,0,0,0,0,0,.2-.1.3-.1s.2,0,.3.1c0,0,0,0,0,0,.1.1.3.2.5.2s.4,0,.5-.2c0,0,0,0,0,0,0,0,.2-.1.3-.1s.2,0,.3.1c0,0,0,0,0,0,0,0,.1.2.1.3s0,.2-.1.3c0,0,0,0,0,0,0,0-.2.1-.3.1s-.2,0-.3-.1c0,0,0,0,0,0-.1-.1-.3-.2-.5-.2s-.4,0-.5.2c0,0,0,0,0,0,0,0-.2.1-.3.1s-.2,0-.3-.1c0,0,0,0,0,0-.1-.1-.3-.2-.5-.2s-.4,0-.5.2c0,0,0,0,0,0,0,0-.2.1-.3.1s-.2,0-.3-.1c0,0,0,0,0,0-.1-.1-.3-.2-.5-.2s-.4,0-.5.2h0c-.1.1-.2.3-.2.5s0,.4.2.5c0,0,0,0,0,0,0,0,.1.2.1.3s0,.2-.1.3c0,0,0,0,0,0-.1.1-.2.3-.2.5s0,.4.2.5h0s0,0,0,0h0c0,0,.1.2.1.3s0,.2-.1.3c0,0,0,0,0,0-.1.1-.2.3-.2.5s0,.4.2.5h0s0,0,0,0h0c.1.1.3.2.5.2s.4,0,.5-.2h0s0,0,0,0h0c0,0,.2-.1.3-.1s.2,0,.3.1c0,0,0,0,0,0,.1.1.3.2.5.2s.4,0,.5-.2c0,0,0,0,0,0,0,0,.2-.1.3-.1s.2,0,.3.1c0,0,0,0,0,0,.1.1.3.2.5.2s.4,0,.5-.2c0,0,0,0,0,0,0,0,.2-.1.3-.1s.2,0,.3.1c0,0,0,0,0,0"/>
  <path class="st6" d="M64.3,9.5c0,0,.1.2.1.3s0,.2-.1.3c0,0,0,0,0,0,0,0-.2.1-.3.1s-.2,0-.3-.1c0,0,0,0,0,0,0,0-.1-.2-.1-.3s0-.2.1-.3c0,0,0,0,0,0,.1-.1.2-.3.2-.5s0-.4-.2-.5c0,0,0,0,0,0-.1-.1-.3-.2-.5-.2s-.4,0-.5.2c0,0,0,0,0,0-.1.1-.2.3-.2.5s0,.4.2.5c0,0,0,0,0,0,0,0,.1.2.1.3s0,.2-.1.3c0,0,0,0,0,0,0,0-.2.1-.3.1s-.2,0-.3-.1c0,0,0,0,0,0,0,0-.1-.2-.1-.3s0-.2.1-.3c0,0,0,0,0,0,.1-.1.2-.3.2-.5s0-.4-.2-.5c0,0,0,0,0,0-.1-.1-.3-.2-.5-.2s-.4,0-.5.2c0,0,0,0,0,0-.1.1-.2.3-.2.5s0,.4.2.5c0,0,0,0,0,0,0,0,.1.2.1.3s0,.2-.1.3c0,0,0,0,0,0,0,0-.2.1-.3.1s-.2,0-.3-.1c0,0,0,0,0,0,0,0-.1-.2-.1-.3s0-.2.1-.3c0,0,0,0,0,0,.1-.1.2-.3.2-.5s0-.4-.2-.5c0,0,0,0,0,0,0,0-.1-.2-.1-.3s0-.2.1-.3c0,0,0,0,0,0,0,0,.2-.1.3-.1s.2,0,.3.1c0,0,0,0,0,0,.1.1.3.2.5.2s.4,0,.5-.2c0,0,0,0,0,0,0,0,.2-.1.3-.1s.2,0,.3.1c0,0,0,0,0,0,.1.1.3.2.5.2s.4,0,.5-.2c0,0,0,0,0,0,0,0,.2-.1.3-.1s.2,0,.3.1c0,0,0,0,0,0,0,0,.1.2.1.3s0,.2-.1.3c0,0,0,0,0,0-.1.1-.2.3-.2.5s0,.4.2.5c0,0,0,0,0,0"/>
  <path class="st6" d="M64.3,11.1c0,0,.1.2.1.3s0,.2-.1.3c0,0,0,0,0,0,0,0-.2.1-.3.1s-.2,0-.3-.1c0,0,0,0,0,0-.1-.1-.3-.2-.5-.2s-.4,0-.5.2c0,0,0,0,0,0,0,0-.2.1-.3.1s-.2,0-.3-.1c0,0,0,0,0,0-.1-.1-.3-.2-.5-.2s-.4,0-.5.2c0,0,0,0,0,0,0,0-.2.1-.3.1s-.2,0-.3-.1c0,0,0,0,0,0-.1-.1-.3-.2-.5-.2s-.4,0-.5.2h0c0,0-.2.1-.3.1s-.2,0-.3-.1c0,0,0,0,0,0,0,0-.1-.2-.1-.3s0-.2.1-.3c0,0,0,0,0,0,.1-.1.2-.3.2-.5s0-.4-.2-.5c0,0,0,0,0,0,0,0-.1-.2-.1-.3s0-.2.1-.3c0,0,0,0,0,0,.1-.1.2-.3.2-.5s0-.4-.2-.5c0,0,0,0,0,0,0,0-.1-.2-.1-.3s0-.2.1-.3c0,0,0,0,0,0,.1-.1.2-.3.2-.5s0-.4-.2-.5c0,0,0,0,0,0,0,0-.1-.2-.1-.3s0-.2.1-.3c0,0,0,0,0,0,0,0,.2-.1.3-.1s.2,0,.3.1c0,0,0,0,0,0,.1.1.3.2.5.2s.4,0,.5-.2c0,0,0,0,0,0,0,0,.2-.1.3-.1s.2,0,.3.1c0,0,0,0,0,0,.1.1.3.2.5.2s.4,0,.5-.2c0,0,0,0,0,0,0,0,.2-.1.3-.1s.2,0,.3.1c0,0,0,0,0,0,.1.1.3.2.5.2s.4,0,.5-.2c0,0,0,0,0,0,0,0,.2-.1.3-.1s.2,0,.3.1c0,0,0,0,0,0,0,0,.1.2.1.3s0,.2-.1.3c0,0,0,0,0,0,0,0-.2.1-.3.1s-.2,0-.3-.1c0,0,0,0,0,0-.1-.1-.3-.2-.5-.2s-.4,0-.5.2c0,0,0,0,0,0,0,0-.2.1-.3.1s-.2,0-.3-.1c0,0,0,0,0,0-.1-.1-.3-.2-.5-.2s-.4,0-.5.2c0,0,0,0,0,0,0,0-.2.1-.3.1s-.2,0-.3-.1c0,0,0,0,0,0-.1-.1-.3-.2-.5-.2s-.4,0-.5.2h0c-.1.1-.2.3-.2.5s0,.4.2.5c0,0,0,0,0,0,0,0,.1.2.1.3s0,.2-.1.3c0,0,0,0,0,0-.1.1-.2.3-.2.5s0,.4.2.5h0s0,0,0,0h0c0,0,.1.2.1.3s0,.2-.1.3c0,0,0,0,0,0-.1.1-.2.3-.2.5s0,.4.2.5h0s0,0,0,0h0c.1.1.3.2.5.2s.4,0,.5-.2h0s0,0,0,0h0c0,0,.2-.1.3-.1s.2,0,.3.1c0,0,0,0,0,0,.1.1.3.2.5.2s.4,0,.5-.2c0,0,0,0,0,0,0,0,.2-.1.3-.1s.2,0,.3.1c0,0,0,0,0,0,.1.1.3.2.5.2s.4,0,.5-.2c0,0,0,0,0,0,0,0,.2-.1.3-.1s.2,0,.3.1h0"/>
  <path class="st6" d="M70.7,9.5c0,0,.1.2.1.3s0,.2-.1.3c0,0,0,0,0,0,0,0-.2.1-.3.1s-.2,0-.3-.1c0,0,0,0,0,0,0,0-.1-.2-.1-.3s0-.2.1-.3c0,0,0,0,0,0,.1-.1.2-.3.2-.5s0-.4-.2-.5c0,0,0,0,0,0-.1-.1-.3-.2-.5-.2s-.4,0-.5.2c0,0,0,0,0,0-.1.1-.2.3-.2.5s0,.4.2.5c0,0,0,0,0,0,0,0,.1.2.1.3s0,.2-.1.3c0,0,0,0,0,0,0,0-.2.1-.3.1s-.2,0-.3-.1c0,0,0,0,0,0,0,0-.1-.2-.1-.3s0-.2.1-.3c0,0,0,0,0,0,.1-.1.2-.3.2-.5s0-.4-.2-.5c0,0,0,0,0,0-.1-.1-.3-.2-.5-.2s-.4,0-.5.2c0,0,0,0,0,0-.1.1-.2.3-.2.5s0,.4.2.5c0,0,0,0,0,0,0,0,.1.2.1.3s0,.2-.1.3c0,0,0,0,0,0,0,0-.2.1-.3.1s-.2,0-.3-.1c0,0,0,0,0,0,0,0-.1-.2-.1-.3s0-.2.1-.3c0,0,0,0,0,0,.1-.1.2-.3.2-.5s0-.4-.2-.5c0,0,0,0,0,0,0,0-.1-.2-.1-.3s0-.2.1-.3c0,0,0,0,0,0,0,0,.2-.1.3-.1s.2,0,.3.1c0,0,0,0,0,0,.1.1.3.2.5.2s.4,0,.5-.2c0,0,0,0,0,0,0,0,.2-.1.3-.1s.2,0,.3.1c0,0,0,0,0,0,.1.1.3.2.5.2s.4,0,.5-.2c0,0,0,0,0,0,0,0,.2-.1.3-.1s.2,0,.3.1c0,0,0,0,0,0,0,0,.1.2.1.3s0,.2-.1.3c0,0,0,0,0,0-.1.1-.2.3-.2.5s0,.4.2.5c0,0,0,0,0,0"/>
  <path class="st6" d="M70.7,11.1c0,0,.1.2.1.3s0,.2-.1.3c0,0,0,0,0,0,0,0-.2.1-.3.1s-.2,0-.3-.1c0,0,0,0,0,0-.1-.1-.3-.2-.5-.2s-.4,0-.5.2c0,0,0,0,0,0,0,0-.2.1-.3.1s-.2,0-.3-.1c0,0,0,0,0,0-.1-.1-.3-.2-.5-.2s-.4,0-.5.2c0,0,0,0,0,0,0,0-.2.1-.3.1s-.2,0-.3-.1c0,0,0,0,0,0-.1-.1-.3-.2-.5-.2s-.4,0-.5.2h0c0,0-.2.1-.3.1s-.2,0-.3-.1c0,0,0,0,0,0,0,0-.1-.2-.1-.3s0-.2.1-.3c0,0,0,0,0,0,.1-.1.2-.3.2-.5s0-.4-.2-.5c0,0,0,0,0,0,0,0-.1-.2-.1-.3s0-.2.1-.3c0,0,0,0,0,0,.1-.1.2-.3.2-.5s0-.4-.2-.5c0,0,0,0,0,0,0,0-.1-.2-.1-.3s0-.2.1-.3c0,0,0,0,0,0,.1-.1.2-.3.2-.5s0-.4-.2-.5c0,0,0,0,0,0,0,0-.1-.2-.1-.3s0-.2.1-.3c0,0,0,0,0,0,0,0,.2-.1.3-.1s.2,0,.3.1c0,0,0,0,0,0,.1.1.3.2.5.2s.4,0,.5-.2c0,0,0,0,0,0,0,0,.2-.1.3-.1s.2,0,.3.1c0,0,0,0,0,0,.1.1.3.2.5.2s.4,0,.5-.2c0,0,0,0,0,0,0,0,.2-.1.3-.1s.2,0,.3.1c0,0,0,0,0,0,.1.1.3.2.5.2s.4,0,.5-.2c0,0,0,0,0,0,0,0,.2-.1.3-.1s.2,0,.3.1c0,0,0,0,0,0,0,0,.1.2.1.3s0,.2-.1.3c0,0,0,0,0,0,0,0-.2.1-.3.1s-.2,0-.3-.1c0,0,0,0,0,0-.1-.1-.3-.2-.5-.2s-.4,0-.5.2c0,0,0,0,0,0,0,0-.2.1-.3.1s-.2,0-.3-.1c0,0,0,0,0,0-.1-.1-.3-.2-.5-.2s-.4,0-.5.2c0,0,0,0,0,0,0,0-.2.1-.3.1s-.2,0-.3-.1c0,0,0,0,0,0-.1-.1-.3-.2-.5-.2s-.4,0-.5.2h0c-.1.1-.2.3-.2.5s0,.4.2.5c0,0,0,0,0,0,0,0,.1.2.1.3s0,.2-.1.3c0,0,0,0,0,0-.1.1-.2.3-.2.5s0,.4.2.5h0s0,0,0,0h0c0,0,.1.2.1.3s0,.2-.1.3c0,0,0,0,0,0-.1.1-.2.3-.2.5s0,.4.2.5h0s0,0,0,0h0c.1.1.3.2.5.2s.4,0,.5-.2h0s0,0,0,0h0c0,0,.2-.1.3-.1s.2,0,.3.1c0,0,0,0,0,0,.1.1.3.2.5.2s.4,0,.5-.2c0,0,0,0,0,0,0,0,.2-.1.3-.1s.2,0,.3.1c0,0,0,0,0,0,.1.1.3.2.5.2s.4,0,.5-.2c0,0,0,0,0,0,0,0,.2-.1.3-.1s.2,0,.3.1c0,0,0,0,0,0"/>
  <path class="st6" d="M77,9.5c0,0,.1.2.1.3s0,.2-.1.3c0,0,0,0,0,0,0,0-.2.1-.3.1s-.2,0-.3-.1c0,0,0,0,0,0,0,0-.1-.2-.1-.3s0-.2.1-.3c0,0,0,0,0,0,.1-.1.2-.3.2-.5s0-.4-.2-.5c0,0,0,0,0,0-.1-.1-.3-.2-.5-.2s-.4,0-.5.2c0,0,0,0,0,0-.1.1-.2.3-.2.5s0,.4.2.5c0,0,0,0,0,0,0,0,.1.2.1.3s0,.2-.1.3c0,0,0,0,0,0,0,0-.2.1-.3.1s-.2,0-.3-.1c0,0,0,0,0,0,0,0-.1-.2-.1-.3s0-.2.1-.3c0,0,0,0,0,0,.1-.1.2-.3.2-.5s0-.4-.2-.5c0,0,0,0,0,0-.1-.1-.3-.2-.5-.2s-.4,0-.5.2c0,0,0,0,0,0-.1.1-.2.3-.2.5s0,.4.2.5c0,0,0,0,0,0,0,0,.1.2.1.3s0,.2-.1.3c0,0,0,0,0,0,0,0-.2.1-.3.1s-.2,0-.3-.1c0,0,0,0,0,0,0,0-.1-.2-.1-.3s0-.2.1-.3c0,0,0,0,0,0,.1-.1.2-.3.2-.5s0-.4-.2-.5c0,0,0,0,0,0,0,0-.1-.2-.1-.3s0-.2.1-.3c0,0,0,0,0,0,0,0,.2-.1.3-.1s.2,0,.3.1c0,0,0,0,0,0,.1.1.3.2.5.2s.4,0,.5-.2c0,0,0,0,0,0,0,0,.2-.1.3-.1s.2,0,.3.1c0,0,0,0,0,0,.1.1.3.2.5.2s.4,0,.5-.2c0,0,0,0,0,0,0,0,.2-.1.3-.1s.2,0,.3.1c0,0,0,0,0,0,0,0,.1.2.1.3s0,.2-.1.3c0,0,0,0,0,0-.1.1-.2.3-.2.5s0,.4.2.5c0,0,0,0,0,0"/>
  <path class="st6" d="M77,11.1c0,0,.1.2.1.3s0,.2-.1.3c0,0,0,0,0,0,0,0-.2.1-.3.1s-.2,0-.3-.1c0,0,0,0,0,0-.1-.1-.3-.2-.5-.2s-.4,0-.5.2c0,0,0,0,0,0,0,0-.2.1-.3.1s-.2,0-.3-.1c0,0,0,0,0,0-.1-.1-.3-.2-.5-.2s-.4,0-.5.2c0,0,0,0,0,0,0,0-.2.1-.3.1s-.2,0-.3-.1c0,0,0,0,0,0-.1-.1-.3-.2-.5-.2s-.4,0-.5.2h0c0,0-.2.1-.3.1s-.2,0-.3-.1c0,0,0,0,0,0,0,0-.1-.2-.1-.3s0-.2.1-.3c0,0,0,0,0,0,.1-.1.2-.3.2-.5s0-.4-.2-.5c0,0,0,0,0,0,0,0-.1-.2-.1-.3s0-.2.1-.3c0,0,0,0,0,0,.1-.1.2-.3.2-.5s0-.4-.2-.5c0,0,0,0,0,0,0,0-.1-.2-.1-.3s0-.2.1-.3c0,0,0,0,0,0,.1-.1.2-.3.2-.5s0-.4-.2-.5c0,0,0,0,0,0,0,0-.1-.2-.1-.3s0-.2.1-.3c0,0,0,0,0,0,0,0,.2-.1.3-.1s.2,0,.3.1c0,0,0,0,0,0,.1.1.3.2.5.2s.4,0,.5-.2c0,0,0,0,0,0,0,0,.2-.1.3-.1s.2,0,.3.1c0,0,0,0,0,0,.1.1.3.2.5.2s.4,0,.5-.2c0,0,0,0,0,0,0,0,.2-.1.3-.1s.2,0,.3.1c0,0,0,0,0,0,.1.1.3.2.5.2s.4,0,.5-.2c0,0,0,0,0,0,0,0,.2-.1.3-.1s.2,0,.3.1c0,0,0,0,0,0,0,0,.1.2.1.3s0,.2-.1.3c0,0,0,0,0,0,0,0-.2.1-.3.1s-.2,0-.3-.1c0,0,0,0,0,0-.1-.1-.3-.2-.5-.2s-.4,0-.5.2c0,0,0,0,0,0,0,0-.2.1-.3.1s-.2,0-.3-.1c0,0,0,0,0,0-.1-.1-.3-.2-.5-.2s-.4,0-.5.2c0,0,0,0,0,0,0,0-.2.1-.3.1s-.2,0-.3-.1c0,0,0,0,0,0-.1-.1-.3-.2-.5-.2s-.4,0-.5.2h0c-.1.1-.2.3-.2.5s0,.4.2.5c0,0,0,0,0,0,0,0,.1.2.1.3s0,.2-.1.3c0,0,0,0,0,0-.1.1-.2.3-.2.5s0,.4.2.5h0s0,0,0,0h0c0,0,.1.2.1.3s0,.2-.1.3c0,0,0,0,0,0-.1.1-.2.3-.2.5s0,.4.2.5h0s0,0,0,0h0c.1.1.3.2.5.2s.4,0,.5-.2h0s0,0,0,0h0c0,0,.2-.1.3-.1s.2,0,.3.1c0,0,0,0,0,0,.1.1.3.2.5.2s.4,0,.5-.2c0,0,0,0,0,0,0,0,.2-.1.3-.1s.2,0,.3.1c0,0,0,0,0,0,.1.1.3.2.5.2s.4,0,.5-.2c0,0,0,0,0,0,0,0,.2-.1.3-.1s.2,0,.3.1h0"/>
  <path class="st6" d="M83.4,9.5c0,0,.1.2.1.3s0,.2-.1.3c0,0,0,0,0,0,0,0-.2.1-.3.1s-.2,0-.3-.1c0,0,0,0,0,0,0,0-.1-.2-.1-.3s0-.2.1-.3c0,0,0,0,0,0,.1-.1.2-.3.2-.5s0-.4-.2-.5c0,0,0,0,0,0-.1-.1-.3-.2-.5-.2s-.4,0-.5.2c0,0,0,0,0,0-.1.1-.2.3-.2.5s0,.4.2.5c0,0,0,0,0,0,0,0,.1.2.1.3s0,.2-.1.3c0,0,0,0,0,0,0,0-.2.1-.3.1s-.2,0-.3-.1c0,0,0,0,0,0,0,0-.1-.2-.1-.3s0-.2.1-.3c0,0,0,0,0,0,.1-.1.2-.3.2-.5s0-.4-.2-.5c0,0,0,0,0,0-.1-.1-.3-.2-.5-.2s-.4,0-.5.2c0,0,0,0,0,0-.1.1-.2.3-.2.5s0,.4.2.5c0,0,0,0,0,0,0,0,.1.2.1.3s0,.2-.1.3c0,0,0,0,0,0,0,0-.2.1-.3.1s-.2,0-.3-.1c0,0,0,0,0,0,0,0-.1-.2-.1-.3s0-.2.1-.3c0,0,0,0,0,0,.1-.1.2-.3.2-.5s0-.4-.2-.5c0,0,0,0,0,0,0,0-.1-.2-.1-.3s0-.2.1-.3c0,0,0,0,0,0,0,0,.2-.1.3-.1s.2,0,.3.1c0,0,0,0,0,0,.1.1.3.2.5.2s.4,0,.5-.2c0,0,0,0,0,0,0,0,.2-.1.3-.1s.2,0,.3.1c0,0,0,0,0,0,.1.1.3.2.5.2s.4,0,.5-.2c0,0,0,0,0,0,0,0,.2-.1.3-.1s.2,0,.3.1c0,0,0,0,0,0,0,0,.1.2.1.3s0,.2-.1.3c0,0,0,0,0,0-.1.1-.2.3-.2.5s0,.4.2.5c0,0,0,0,0,0"/>
  <path class="st6" d="M83.4,11.1c0,0,.1.2.1.3s0,.2-.1.3c0,0,0,0,0,0,0,0-.2.1-.3.1s-.2,0-.3-.1c0,0,0,0,0,0-.1-.1-.3-.2-.5-.2s-.4,0-.5.2c0,0,0,0,0,0,0,0-.2.1-.3.1s-.2,0-.3-.1c0,0,0,0,0,0-.1-.1-.3-.2-.5-.2s-.4,0-.5.2c0,0,0,0,0,0,0,0-.2.1-.3.1s-.2,0-.3-.1c0,0,0,0,0,0-.1-.1-.3-.2-.5-.2s-.4,0-.5.2h0c0,0-.2.1-.3.1s-.2,0-.3-.1c0,0,0,0,0,0,0,0-.1-.2-.1-.3s0-.2.1-.3c0,0,0,0,0,0,.1-.1.2-.3.2-.5s0-.4-.2-.5c0,0,0,0,0,0,0,0-.1-.2-.1-.3s0-.2.1-.3c0,0,0,0,0,0,.1-.1.2-.3.2-.5s0-.4-.2-.5c0,0,0,0,0,0,0,0-.1-.2-.1-.3s0-.2.1-.3c0,0,0,0,0,0,.1-.1.2-.3.2-.5s0-.4-.2-.5c0,0,0,0,0,0,0,0-.1-.2-.1-.3s0-.2.1-.3c0,0,0,0,0,0,0,0,.2-.1.3-.1s.2,0,.3.1c0,0,0,0,0,0,.1.1.3.2.5.2s.4,0,.5-.2c0,0,0,0,0,0,0,0,.2-.1.3-.1s.2,0,.3.1c0,0,0,0,0,0,.1.1.3.2.5.2s.4,0,.5-.2c0,0,0,0,0,0,0,0,.2-.1.3-.1s.2,0,.3.1c0,0,0,0,0,0,.1.1.3.2.5.2s.4,0,.5-.2c0,0,0,0,0,0,0,0,.2-.1.3-.1s.2,0,.3.1c0,0,0,0,0,0,0,0,.1.2.1.3s0,.2-.1.3c0,0,0,0,0,0,0,0-.2.1-.3.1s-.2,0-.3-.1c0,0,0,0,0,0-.1-.1-.3-.2-.5-.2s-.4,0-.5.2c0,0,0,0,0,0,0,0-.2.1-.3.1s-.2,0-.3-.1c0,0,0,0,0,0-.1-.1-.3-.2-.5-.2s-.4,0-.5.2c0,0,0,0,0,0,0,0-.2.1-.3.1s-.2,0-.3-.1c0,0,0,0,0,0-.1-.1-.3-.2-.5-.2s-.4,0-.5.2h0c-.1.1-.2.3-.2.5s0,.4.2.5c0,0,0,0,0,0,0,0,.1.2.1.3s0,.2-.1.3c0,0,0,0,0,0-.1.1-.2.3-.2.5s0,.4.2.5h0s0,0,0,0h0c0,0,.1.2.1.3s0,.2-.1.3c0,0,0,0,0,0-.1.1-.2.3-.2.5s0,.4.2.5h0s0,0,0,0h0c.1.1.3.2.5.2s.4,0,.5-.2h0s0,0,0,0h0c0,0,.2-.1.3-.1s.2,0,.3.1c0,0,0,0,0,0,.1.1.3.2.5.2s.4,0,.5-.2c0,0,0,0,0,0,0,0,.2-.1.3-.1s.2,0,.3.1c0,0,0,0,0,0,.1.1.3.2.5.2s.4,0,.5-.2c0,0,0,0,0,0,0,0,.2-.1.3-.1s.2,0,.3.1c0,0,0,0,0,0"/>
  <path class="st6" d="M64.3,16c0,0,.1.2.1.3s0,.2-.1.3c0,0,0,0,0,0,0,0-.2.1-.3.1s-.2,0-.3-.1c0,0,0,0,0,0,0,0-.1-.2-.1-.3s0-.2.1-.3c0,0,0,0,0,0,.1-.1.2-.3.2-.5s0-.4-.2-.5c0,0,0,0,0,0-.1-.1-.3-.2-.5-.2s-.4,0-.5.2c0,0,0,0,0,0-.1.1-.2.3-.2.5s0,.4.2.5c0,0,0,0,0,0,0,0,.1.2.1.3s0,.2-.1.3c0,0,0,0,0,0,0,0-.2.1-.3.1s-.2,0-.3-.1c0,0,0,0,0,0,0,0-.1-.2-.1-.3s0-.2.1-.3c0,0,0,0,0,0,.1-.1.2-.3.2-.5s0-.4-.2-.5c0,0,0,0,0,0-.1-.1-.3-.2-.5-.2s-.4,0-.5.2c0,0,0,0,0,0-.1.1-.2.3-.2.5s0,.4.2.5c0,0,0,0,0,0,0,0,.1.2.1.3s0,.2-.1.3c0,0,0,0,0,0,0,0-.2.1-.3.1s-.2,0-.3-.1c0,0,0,0,0,0,0,0-.1-.2-.1-.3s0-.2.1-.3c0,0,0,0,0,0,.1-.1.2-.3.2-.5s0-.4-.2-.5c0,0,0,0,0,0,0,0-.1-.2-.1-.3s0-.2.1-.3c0,0,0,0,0,0,0,0,.2-.1.3-.1s.2,0,.3.1c0,0,0,0,0,0,.1.1.3.2.5.2s.4,0,.5-.2c0,0,0,0,0,0,0,0,.2-.1.3-.1s.2,0,.3.1c0,0,0,0,0,0,.1.1.3.2.5.2s.4,0,.5-.2c0,0,0,0,0,0,0,0,.2-.1.3-.1s.2,0,.3.1c0,0,0,0,0,0,0,0,.1.2.1.3s0,.2-.1.3c0,0,0,0,0,0-.1.1-.2.3-.2.5s0,.4.2.5c0,0,0,0,0,0"/>
  <path class="st6" d="M64.3,17.6c0,0,.1.2.1.3s0,.2-.1.3c0,0,0,0,0,0,0,0-.2.1-.3.1s-.2,0-.3-.1c0,0,0,0,0,0-.1-.1-.3-.2-.5-.2s-.4,0-.5.2c0,0,0,0,0,0,0,0-.2.1-.3.1s-.2,0-.3-.1c0,0,0,0,0,0-.1-.1-.3-.2-.5-.2s-.4,0-.5.2c0,0,0,0,0,0,0,0-.2.1-.3.1s-.2,0-.3-.1c0,0,0,0,0,0-.1-.1-.3-.2-.5-.2s-.4,0-.5.2h0c0,0-.2.1-.3.1s-.2,0-.3-.1c0,0,0,0,0,0,0,0-.1-.2-.1-.3s0-.2.1-.3c0,0,0,0,0,0,.1-.1.2-.3.2-.5s0-.4-.2-.5c0,0,0,0,0,0,0,0-.1-.2-.1-.3s0-.2.1-.3c0,0,0,0,0,0,.1-.1.2-.3.2-.5s0-.4-.2-.5c0,0,0,0,0,0,0,0-.1-.2-.1-.3s0-.2.1-.3c0,0,0,0,0,0,.1-.1.2-.3.2-.5s0-.4-.2-.5c0,0,0,0,0,0,0,0-.1-.2-.1-.3s0-.2.1-.3c0,0,0,0,0,0,0,0,.2-.1.3-.1s.2,0,.3.1c0,0,0,0,0,0,.1.1.3.2.5.2s.4,0,.5-.2c0,0,0,0,0,0,0,0,.2-.1.3-.1s.2,0,.3.1c0,0,0,0,0,0,.1.1.3.2.5.2s.4,0,.5-.2c0,0,0,0,0,0,0,0,.2-.1.3-.1s.2,0,.3.1c0,0,0,0,0,0,.1.1.3.2.5.2s.4,0,.5-.2c0,0,0,0,0,0,0,0,.2-.1.3-.1s.2,0,.3.1c0,0,0,0,0,0,0,0,.1.2.1.3s0,.2-.1.3c0,0,0,0,0,0,0,0-.2.1-.3.1s-.2,0-.3-.1c0,0,0,0,0,0-.1-.1-.3-.2-.5-.2s-.4,0-.5.2c0,0,0,0,0,0,0,0-.2.1-.3.1s-.2,0-.3-.1c0,0,0,0,0,0-.1-.1-.3-.2-.5-.2s-.4,0-.5.2c0,0,0,0,0,0,0,0-.2.1-.3.1s-.2,0-.3-.1c0,0,0,0,0,0-.1-.1-.3-.2-.5-.2s-.4,0-.5.2h0c-.1.1-.2.3-.2.5s0,.4.2.5c0,0,0,0,0,0,0,0,.1.2.1.3s0,.2-.1.3c0,0,0,0,0,0-.1.1-.2.3-.2.5s0,.4.2.5h0s0,0,0,0h0c0,0,.1.2.1.3s0,.2-.1.3c0,0,0,0,0,0-.1.1-.2.3-.2.5s0,.4.2.5h0s0,0,0,0h0c.1.1.3.2.5.2s.4,0,.5-.2h0s0,0,0,0h0c0,0,.2-.1.3-.1s.2,0,.3.1c0,0,0,0,0,0,.1.1.3.2.5.2s.4,0,.5-.2c0,0,0,0,0,0,0,0,.2-.1.3-.1s.2,0,.3.1c0,0,0,0,0,0,.1.1.3.2.5.2s.4,0,.5-.2c0,0,0,0,0,0,0,0,.2-.1.3-.1s.2,0,.3.1c0,0,0,0,0,0Z"/>
  <path class="st6" d="M70.7,16c0,0,.1.2.1.3s0,.2-.1.3c0,0,0,0,0,0,0,0-.2.1-.3.1s-.2,0-.3-.1c0,0,0,0,0,0,0,0-.1-.2-.1-.3s0-.2.1-.3c0,0,0,0,0,0,.1-.1.2-.3.2-.5s0-.4-.2-.5c0,0,0,0,0,0-.1-.1-.3-.2-.5-.2s-.4,0-.5.2c0,0,0,0,0,0-.1.1-.2.3-.2.5s0,.4.2.5c0,0,0,0,0,0,0,0,.1.2.1.3s0,.2-.1.3c0,0,0,0,0,0,0,0-.2.1-.3.1s-.2,0-.3-.1c0,0,0,0,0,0,0,0-.1-.2-.1-.3s0-.2.1-.3c0,0,0,0,0,0,.1-.1.2-.3.2-.5s0-.4-.2-.5c0,0,0,0,0,0-.1-.1-.3-.2-.5-.2s-.4,0-.5.2c0,0,0,0,0,0-.1.1-.2.3-.2.5s0,.4.2.5c0,0,0,0,0,0,0,0,.1.2.1.3s0,.2-.1.3c0,0,0,0,0,0,0,0-.2.1-.3.1s-.2,0-.3-.1c0,0,0,0,0,0,0,0-.1-.2-.1-.3s0-.2.1-.3c0,0,0,0,0,0,.1-.1.2-.3.2-.5s0-.4-.2-.5c0,0,0,0,0,0,0,0-.1-.2-.1-.3s0-.2.1-.3c0,0,0,0,0,0,0,0,.2-.1.3-.1s.2,0,.3.1c0,0,0,0,0,0,.1.1.3.2.5.2s.4,0,.5-.2c0,0,0,0,0,0,0,0,.2-.1.3-.1s.2,0,.3.1c0,0,0,0,0,0,.1.1.3.2.5.2s.4,0,.5-.2c0,0,0,0,0,0,0,0,.2-.1.3-.1s.2,0,.3.1c0,0,0,0,0,0,0,0,.1.2.1.3s0,.2-.1.3c0,0,0,0,0,0-.1.1-.2.3-.2.5s0,.4.2.5c0,0,0,0,0,0"/>
  <path class="st6" d="M70.7,17.6c0,0,.1.2.1.3s0,.2-.1.3c0,0,0,0,0,0,0,0-.2.1-.3.1s-.2,0-.3-.1c0,0,0,0,0,0-.1-.1-.3-.2-.5-.2s-.4,0-.5.2c0,0,0,0,0,0,0,0-.2.1-.3.1s-.2,0-.3-.1c0,0,0,0,0,0-.1-.1-.3-.2-.5-.2s-.4,0-.5.2c0,0,0,0,0,0,0,0-.2.1-.3.1s-.2,0-.3-.1c0,0,0,0,0,0-.1-.1-.3-.2-.5-.2s-.4,0-.5.2h0c0,0-.2.1-.3.1s-.2,0-.3-.1c0,0,0,0,0,0,0,0-.1-.2-.1-.3s0-.2.1-.3c0,0,0,0,0,0,.1-.1.2-.3.2-.5s0-.4-.2-.5h0c0,0-.1-.2-.1-.3s0-.2.1-.3c0,0,0,0,0,0,.1-.1.2-.3.2-.5s0-.4-.2-.5c0,0,0,0,0,0,0,0-.1-.2-.1-.3s0-.2.1-.3c0,0,0,0,0,0,.1-.1.2-.3.2-.5s0-.4-.2-.5c0,0,0,0,0,0,0,0-.1-.2-.1-.3s0-.2.1-.3c0,0,0,0,0,0,0,0,.2-.1.3-.1s.2,0,.3.1c0,0,0,0,0,0,.1.1.3.2.5.2s.4,0,.5-.2c0,0,0,0,0,0,0,0,.2-.1.3-.1s.2,0,.3.1c0,0,0,0,0,0,.1.1.3.2.5.2s.4,0,.5-.2c0,0,0,0,0,0,0,0,.2-.1.3-.1s.2,0,.3.1c0,0,0,0,0,0,.1.1.3.2.5.2s.4,0,.5-.2c0,0,0,0,0,0,0,0,.2-.1.3-.1s.2,0,.3.1c0,0,0,0,0,0,0,0,.1.2.1.3s0,.2-.1.3c0,0,0,0,0,0,0,0-.2.1-.3.1s-.2,0-.3-.1c0,0,0,0,0,0-.1-.1-.3-.2-.5-.2s-.4,0-.5.2c0,0,0,0,0,0,0,0-.2.1-.3.1s-.2,0-.3-.1c0,0,0,0,0,0-.1-.1-.3-.2-.5-.2s-.4,0-.5.2c0,0,0,0,0,0,0,0-.2.1-.3.1s-.2,0-.3-.1c0,0,0,0,0,0-.1-.1-.3-.2-.5-.2s-.4,0-.5.2h0c-.1.1-.2.3-.2.5s0,.4.2.5c0,0,0,0,0,0,0,0,.1.2.1.3s0,.2-.1.3c0,0,0,0,0,0-.1.1-.2.3-.2.5s0,.4.2.5h0s0,0,0,0h0c0,0,.1.2.1.3s0,.2-.1.3c0,0,0,0,0,0-.1.1-.2.3-.2.5s0,.4.2.5h0s0,0,0,0h0c.1.1.3.2.5.2s.4,0,.5-.2h0s0,0,0,0h0c0,0,.2-.1.3-.1s.2,0,.3.1c0,0,0,0,0,0,.1.1.3.2.5.2s.4,0,.5-.2h0c0,0,.2-.1.3-.1s.2,0,.3.1c0,0,0,0,0,0,.1.1.3.2.5.2s.4,0,.5-.2h0c0,0,.2-.1.3-.1s.2,0,.3.1c0,0,0,0,0,0"/>
  <path class="st6" d="M77,16c0,0,.1.2.1.3s0,.2-.1.3c0,0,0,0,0,0,0,0-.2.1-.3.1s-.2,0-.3-.1c0,0,0,0,0,0,0,0-.1-.2-.1-.3s0-.2.1-.3c0,0,0,0,0,0,.1-.1.2-.3.2-.5s0-.4-.2-.5c0,0,0,0,0,0-.1-.1-.3-.2-.5-.2s-.4,0-.5.2c0,0,0,0,0,0-.1.1-.2.3-.2.5s0,.4.2.5c0,0,0,0,0,0,0,0,.1.2.1.3s0,.2-.1.3c0,0,0,0,0,0,0,0-.2.1-.3.1s-.2,0-.3-.1c0,0,0,0,0,0,0,0-.1-.2-.1-.3s0-.2.1-.3c0,0,0,0,0,0,.1-.1.2-.3.2-.5s0-.4-.2-.5c0,0,0,0,0,0-.1-.1-.3-.2-.5-.2s-.4,0-.5.2c0,0,0,0,0,0-.1.1-.2.3-.2.5s0,.4.2.5c0,0,0,0,0,0,0,0,.1.2.1.3s0,.2-.1.3c0,0,0,0,0,0,0,0-.2.1-.3.1s-.2,0-.3-.1c0,0,0,0,0,0,0,0-.1-.2-.1-.3s0-.2.1-.3c0,0,0,0,0,0,.1-.1.2-.3.2-.5s0-.4-.2-.5c0,0,0,0,0,0,0,0-.1-.2-.1-.3s0-.2.1-.3c0,0,0,0,0,0,0,0,.2-.1.3-.1s.2,0,.3.1c0,0,0,0,0,0,.1.1.3.2.5.2s.4,0,.5-.2c0,0,0,0,0,0,0,0,.2-.1.3-.1s.2,0,.3.1c0,0,0,0,0,0,.1.1.3.2.5.2s.4,0,.5-.2c0,0,0,0,0,0,0,0,.2-.1.3-.1s.2,0,.3.1c0,0,0,0,0,0,0,0,.1.2.1.3s0,.2-.1.3c0,0,0,0,0,0-.1.1-.2.3-.2.5s0,.4.2.5c0,0,0,0,0,0"/>
  <path class="st6" d="M77,17.6c0,0,.1.2.1.3s0,.2-.1.3c0,0,0,0,0,0,0,0-.2.1-.3.1s-.2,0-.3-.1c0,0,0,0,0,0-.1-.1-.3-.2-.5-.2s-.4,0-.5.2c0,0,0,0,0,0,0,0-.2.1-.3.1s-.2,0-.3-.1c0,0,0,0,0,0-.1-.1-.3-.2-.5-.2s-.4,0-.5.2c0,0,0,0,0,0,0,0-.2.1-.3.1s-.2,0-.3-.1c0,0,0,0,0,0-.1-.1-.3-.2-.5-.2s-.4,0-.5.2h0c0,0-.2.1-.3.1s-.2,0-.3-.1c0,0,0,0,0,0,0,0-.1-.2-.1-.3s0-.2.1-.3c0,0,0,0,0,0,.1-.1.2-.3.2-.5s0-.4-.2-.5h0c0,0-.1-.2-.1-.3s0-.2.1-.3c0,0,0,0,0,0,.1-.1.2-.3.2-.5s0-.4-.2-.5c0,0,0,0,0,0,0,0-.1-.2-.1-.3s0-.2.1-.3c0,0,0,0,0,0,.1-.1.2-.3.2-.5s0-.4-.2-.5c0,0,0,0,0,0,0,0-.1-.2-.1-.3s0-.2.1-.3c0,0,0,0,0,0,0,0,.2-.1.3-.1s.2,0,.3.1c0,0,0,0,0,0,.1.1.3.2.5.2s.4,0,.5-.2c0,0,0,0,0,0,0,0,.2-.1.3-.1s.2,0,.3.1c0,0,0,0,0,0,.1.1.3.2.5.2s.4,0,.5-.2c0,0,0,0,0,0,0,0,.2-.1.3-.1s.2,0,.3.1c0,0,0,0,0,0,.1.1.3.2.5.2s.4,0,.5-.2c0,0,0,0,0,0,0,0,.2-.1.3-.1s.2,0,.3.1c0,0,0,0,0,0,0,0,.1.2.1.3s0,.2-.1.3c0,0,0,0,0,0,0,0-.2.1-.3.1s-.2,0-.3-.1c0,0,0,0,0,0-.1-.1-.3-.2-.5-.2s-.4,0-.5.2c0,0,0,0,0,0,0,0-.2.1-.3.1s-.2,0-.3-.1c0,0,0,0,0,0-.1-.1-.3-.2-.5-.2s-.4,0-.5.2c0,0,0,0,0,0,0,0-.2.1-.3.1s-.2,0-.3-.1c0,0,0,0,0,0-.1-.1-.3-.2-.5-.2s-.4,0-.5.2h0c-.1.1-.2.3-.2.5s0,.4.2.5c0,0,0,0,0,0,0,0,.1.2.1.3s0,.2-.1.3c0,0,0,0,0,0-.1.1-.2.3-.2.5s0,.4.2.5h0s0,0,0,0h0c0,0,.1.2.1.3s0,.2-.1.3c0,0,0,0,0,0-.1.1-.2.3-.2.5s0,.4.2.5h0s0,0,0,0h0c.1.1.3.2.5.2s.4,0,.5-.2h0s0,0,0,0h0c0,0,.2-.1.3-.1s.2,0,.3.1c0,0,0,0,0,0,.1.1.3.2.5.2s.4,0,.5-.2h0c0,0,.2-.1.3-.1s.2,0,.3.1c0,0,0,0,0,0,.1.1.3.2.5.2s.4,0,.5-.2h0c0,0,.2-.1.3-.1s.2,0,.3.1c0,0,0,0,0,0Z"/>
  <path class="st6" d="M70.7,22.4c0,0,.1.2.1.3s0,.2-.1.3c0,0,0,0,0,0,0,0-.2.1-.3.1s-.2,0-.3-.1c0,0,0,0,0,0,0,0-.1-.2-.1-.3s0-.2.1-.3h0c.1-.1.2-.3.2-.5s0-.4-.2-.5c0,0,0,0,0,0-.1-.1-.3-.2-.5-.2s-.4,0-.5.2c0,0,0,0,0,0-.1.1-.2.3-.2.5s0,.4.2.5h0c0,0,.1.2.1.3s0,.2-.1.3c0,0,0,0,0,0,0,0-.2.1-.3.1s-.2,0-.3-.1c0,0,0,0,0,0,0,0-.1-.2-.1-.3s0-.2.1-.3c0,0,0,0,0,0,.1-.1.2-.3.2-.5s0-.4-.2-.5c0,0,0,0,0,0-.1-.1-.3-.2-.5-.2s-.4,0-.5.2c0,0,0,0,0,0-.1.1-.2.3-.2.5s0,.4.2.5h0c0,0,.1.2.1.3s0,.2-.1.3c0,0,0,0,0,0,0,0-.2.1-.3.1s-.2,0-.3-.1c0,0,0,0,0,0,0,0-.1-.2-.1-.3s0-.2.1-.3c0,0,0,0,0,0,.1-.1.2-.3.2-.5s0-.4-.2-.5c0,0,0,0,0,0,0,0-.1-.2-.1-.3s0-.2.1-.3c0,0,0,0,0,0,0,0,.2-.1.3-.1s.2,0,.3.1h0c.1.1.3.2.5.2s.4,0,.5-.2c0,0,0,0,0,0,0,0,.2-.1.3-.1s.2,0,.3.1h0c.1.1.3.2.5.2s.4,0,.5-.2h0c0,0,.2-.1.3-.1s.2,0,.3.1c0,0,0,0,0,0,0,0,.1.2.1.3s0,.2-.1.3c0,0,0,0,0,0-.1.1-.2.3-.2.5s0,.4.2.5c0,0,0,0,0,0"/>
  <path class="st6" d="M70.7,24c0,0,.1.2.1.3s0,.2-.1.3c0,0,0,0,0,0,0,0-.2.1-.3.1s-.2,0-.3-.1c0,0,0,0,0,0-.1-.1-.3-.2-.5-.2s-.4,0-.5.2c0,0,0,0,0,0,0,0-.2.1-.3.1s-.2,0-.3-.1c0,0,0,0,0,0-.1-.1-.3-.2-.5-.2s-.4,0-.5.2c0,0,0,0,0,0,0,0-.2.1-.3.1s-.2,0-.3-.1c0,0,0,0,0,0-.1-.1-.3-.2-.5-.2s-.4,0-.5.2h0c0,0-.2.1-.3.1s-.2,0-.3-.1c0,0,0,0,0,0,0,0-.1-.2-.1-.3s0-.2.1-.3c0,0,0,0,0,0,.1-.1.2-.3.2-.5s0-.4-.2-.5h0c0,0-.1-.2-.1-.3s0-.2.1-.3c0,0,0,0,0,0,.1-.1.2-.3.2-.5s0-.4-.2-.5c0,0,0,0,0,0,0,0-.1-.2-.1-.3s0-.2.1-.3c0,0,0,0,0,0,.1-.1.2-.3.2-.5s0-.4-.2-.5c0,0,0,0,0,0,0,0-.1-.2-.1-.3s0-.2.1-.3c0,0,0,0,0,0,0,0,.2-.1.3-.1s.2,0,.3.1h0c.1.1.3.2.5.2s.4,0,.5-.2c0,0,0,0,0,0,0,0,.2-.1.3-.1s.2,0,.3.1c0,0,0,0,0,0,.1.1.3.2.5.2s.4,0,.5-.2c0,0,0,0,0,0,0,0,.2-.1.3-.1s.2,0,.3.1c0,0,0,0,0,0,.1.1.3.2.5.2s.4,0,.5-.2c0,0,0,0,0,0,0,0,.2-.1.3-.1s.2,0,.3.1c0,0,0,0,0,0,0,0,.1.2.1.3s0,.2-.1.3h0c0,0-.2.1-.3.1s-.2,0-.3-.1c0,0,0,0,0,0-.1-.1-.3-.2-.5-.2s-.4,0-.5.2c0,0,0,0,0,0,0,0-.2.1-.3.1s-.2,0-.3-.1c0,0,0,0,0,0-.1-.1-.3-.2-.5-.2s-.4,0-.5.2c0,0,0,0,0,0,0,0-.2.1-.3.1s-.2,0-.3-.1c0,0,0,0,0,0-.1-.1-.3-.2-.5-.2s-.4,0-.5.2h0c-.1.1-.2.3-.2.5s0,.4.2.5c0,0,0,0,0,0,0,0,.1.2.1.3s0,.2-.1.3h0c-.1.1-.2.3-.2.5s0,.4.2.5h0s0,0,0,0h0c0,0,.1.2.1.3s0,.2-.1.3c0,0,0,0,0,0-.1.1-.2.3-.2.5s0,.4.2.5h0s0,0,0,0h0c.1.1.3.2.5.2s.4,0,.5-.2h0s0,0,0,0h0c0,0,.2-.1.3-.1s.2,0,.3.1c0,0,0,0,0,0,.1.1.3.2.5.2s.4,0,.5-.2h0c0,0,.2-.1.3-.1s.2,0,.3.1c0,0,0,0,0,0,.1.1.3.2.5.2s.4,0,.5-.2h0c0,0,.2-.1.3-.1s.2,0,.3.1h0Z"/>
  <g>
    <text class="st4" transform="translate(46.6 127.6)"><tspan x="0" y="0">Design</tspan></text>
    <text class="st4" transform="translate(59.5 127.6)"><tspan x="0" y="0">Develop</tspan></text>
    <text class="st0" transform="translate(73.7 127.6)"><tspan x="0" y="0">Transfer</tspan></text>
    <g>
      <path class="st7" d="M42.5,117.3c.3.3.5.8.5,1.3s-.2,1-.5,1.3c0,0,0,0,0,0-.3.3-.8.5-1.3.5s-1-.2-1.3-.5c0,0,0,0,0,0-.3-.3-.5-.8-.5-1.3s.2-1,.5-1.3c0,0,0,0,0,0,.6-.6,1-1.5,1-2.5s-.4-1.8-1-2.5c0,0,0,0,0,0-.6-.6-1.5-1-2.5-1s-1.8.4-2.5,1c0,0,0,0,0,0-.6.6-1,1.5-1,2.5s.4,1.8,1,2.5c0,0,0,0,0,0,.3.3.5.8.5,1.3s-.2,1-.5,1.3c0,0,0,0,0,0-.3.3-.8.5-1.3.5s-1-.2-1.3-.5c0,0,0,0,0,0-.3-.3-.5-.8-.5-1.3s.2-1,.5-1.3c0,0,0,0,0,0,.6-.6,1-1.5,1-2.5s-.4-1.8-1-2.5c0,0,0,0,0,0-.6-.6-1.5-1-2.5-1s-1.8.4-2.5,1c0,0,0,0,0,0-.6.6-1,1.5-1,2.5s.4,1.8,1,2.5c0,0,0,0,0,0,.3.3.5.8.5,1.3s-.2,1-.5,1.3c0,0,0,0,0,0-.3.3-.8.5-1.3.5s-1-.2-1.3-.5c0,0,0,0,0,0-.3-.3-.5-.8-.5-1.3s.2-1,.5-1.3c0,0,0,0,0,0,.6-.6,1-1.5,1-2.5s-.4-1.8-1-2.5c0,0,0,0,0,0-.3-.3-.5-.8-.5-1.3s.2-1,.5-1.3c0,0,0,0,0,0,.3-.3.8-.5,1.3-.5s1,.2,1.3.5c0,0,0,0,0,0,.6.6,1.5,1,2.5,1s1.8-.4,2.5-1c0,0,0,0,0,0,.3-.3.8-.5,1.3-.5s1,.2,1.3.5c0,0,0,0,0,0,.6.6,1.5,1,2.5,1s1.8-.4,2.5-1c0,0,0,0,0,0,.3-.3.8-.5,1.3-.5s1,.2,1.3.5c0,0,0,0,0,0,.3.3.5.8.5,1.3s-.2,1-.5,1.3c0,0,0,0,0,0-.6.6-1,1.5-1,2.5s.4,1.8,1,2.5c0,0,0,0,0,0Z"/>
      <path class="st3" d="M42.5,125c.3.3.5.8.5,1.3s-.2,1-.5,1.3c0,0,0,0,0,0-.3.3-.8.5-1.3.5s-1-.2-1.3-.5c0,0,0,0,0,0-.6-.6-1.5-1-2.5-1s-1.8.4-2.5,1c0,0,0,0,0,0-.3.3-.8.5-1.3.5s-1-.2-1.3-.5c0,0,0,0,0,0-.6-.6-1.5-1-2.5-1s-1.8.4-2.5,1c0,0,0,0,0,0-.3.3-.8.5-1.3.5s-1-.2-1.3-.5c0,0,0,0,0,0-.6-.6-1.5-1-2.5-1s-1.8.4-2.5,1c0,0,0,0,0,0-.3.3-.8.5-1.3.5s-1-.2-1.3-.5c0,0,0,0,0,0-.3-.3-.5-.8-.5-1.3s.2-1,.5-1.3c0,0,0,0,0,0,.6-.6,1-1.5,1-2.5s-.4-1.8-1-2.5c0,0,0,0,0,0-.3-.3-.5-.8-.5-1.3s.2-1,.5-1.3c0,0,0,0,0,0,.6-.6,1-1.5,1-2.5s-.4-1.8-1-2.5c0,0,0,0,0,0-.3-.3-.5-.8-.5-1.3s.2-1,.5-1.3c0,0,0,0,0,0,.6-.6,1-1.5,1-2.5s-.4-1.8-1-2.5c0,0,0,0,0,0-.3-.3-.5-.8-.5-1.3s.2-1,.5-1.3c0,0,0,0,0,0,.3-.3.8-.5,1.3-.5s1,.2,1.3.5c0,0,0,0,0,0,.6.6,1.5,1,2.5,1s1.8-.4,2.5-1c0,0,0,0,0,0,.3-.3.8-.5,1.3-.5s1,.2,1.3.5c0,0,0,0,0,0,.6.6,1.5,1,2.5,1s1.8-.4,2.5-1c0,0,0,0,0,0,.3-.3.8-.5,1.3-.5s1,.2,1.3.5c0,0,0,0,0,0,.6.6,1.5,1,2.5,1s1.8-.4,2.5-1c0,0,0,0,0,0,.3-.3.8-.5,1.3-.5s1,.2,1.3.5c0,0,0,0,0,0,.3.3.5.8.5,1.3s-.2,1-.5,1.3c0,0,0,0,0,0-.3.3-.8.5-1.3.5s-1-.2-1.3-.5c0,0,0,0,0,0-.6-.6-1.5-1-2.5-1s-1.8.4-2.5,1c0,0,0,0,0,0-.3.3-.8.5-1.3.5s-1-.2-1.3-.5c0,0,0,0,0,0-.6-.6-1.5-1-2.5-1s-1.8.4-2.5,1c0,0,0,0,0,0-.3.3-.8.5-1.3.5s-1-.2-1.3-.5c0,0,0,0,0,0-.6-.6-1.5-1-2.5-1s-1.8.4-2.5,1c0,0,0,0,0,0-.6.6-1,1.5-1,2.5s.4,1.8,1,2.5c0,0,0,0,0,0,.3.3.5.8.5,1.3s-.2,1-.5,1.3c0,0,0,0,0,0-.6.6-1,1.5-1,2.5s.4,1.8,1,2.5h0s0,0,0,0c0,0,0,0,0,0,.3.3.5.8.5,1.3s-.2,1-.5,1.3c0,0,0,0,0,0-.6.6-1,1.5-1,2.5s.4,1.8,1,2.5h0s0,0,0,0,0,0,0,0c.6.6,1.5,1,2.5,1s1.8-.4,2.5-1c0,0,0,0,0,0,0,0,0,0,0,0h0c.3-.3.8-.5,1.3-.5s1,.2,1.3.5h0s0,0,0,0c0,0,0,0,0,0,.6.6,1.5,1,2.5,1s1.8-.4,2.5-1c0,0,0,0,0,0,0,0,0,0,0,0h0c.3-.3.8-.5,1.3-.5s1,.2,1.3.5h0s0,0,0,0,0,0,0,0c.6.6,1.5,1,2.5,1s1.8-.4,2.5-1c0,0,0,0,0,0,0,0,0,0,0,0h0c.3-.3.8-.5,1.3-.5s1,.2,1.3.5h0s0,0,0,0,0,0,0,0Z"/>
    </g>
    <text class="st2" transform="translate(46.5 106.5)"><tspan x="0" y="0">Middlesex</tspan></text>
    <text class="st2" transform="translate(46.5 113.8)"><tspan x="0" y="0">Consulting</tspan></text>
    <text class="st2" transform="translate(46.5 120.7)"><tspan x="0" y="0">Group</tspan></text>
    <text class="st1" transform="translate(70.6 117.7)"><tspan x="0" y="0">TM</tspan></text>
    <circle class="st11" cx="58" cy="126.8" r=".4"/>
    <circle class="st7" cx="72.3" cy="126.8" r=".4"/>
  </g>
  <g>
    <text class="st5" transform="translate(194.9 20.2)"><tspan x="0" y="0">D</tspan></text>
    <text class="st5" transform="translate(198.4 20.2)"><tspan class="st13" x="0" y="0">e</tspan><tspan x="2.8" y="0">v</tspan></text>
    <text class="st5" transform="translate(203.7 20.2)"><tspan class="st12" x="0" y="0">elo</tspan><tspan x="7" y="0">p</tspan></text>
    <text class="st5" transform="translate(216.9 20.2)"><tspan x="0" y="0">T</tspan></text>
    <text class="st5" transform="translate(219.6 20.2)"><tspan x="0" y="0">r</tspan></text>
    <text class="st5" transform="translate(221.6 20.2)"><tspan x="0" y="0">a</tspan></text>
    <text class="st5" transform="translate(224.6 20.2)"><tspan x="0" y="0">n</tspan></text>
    <text class="st5" transform="translate(227.6 20.2)"><tspan x="0" y="0">s</tspan></text>
    <text class="st5" transform="translate(230.2 20.2)"><tspan x="0" y="0">f</tspan></text>
    <text class="st5" transform="translate(231.9 20.2)"><tspan x="0" y="0">e</tspan></text>
    <text class="st5" transform="translate(234.8 20.2)"><tspan x="0" y="0">r</tspan></text>
    <text class="st5" transform="translate(173.7 20.2)"><tspan class="st12" x="0" y="0">Desi</tspan><tspan x="10.2" y="0">g</tspan></text>
    <text class="st5" transform="translate(186.9 20.2)"><tspan x="0" y="0">n</tspan></text>
    <path class="st6" d="M192.7,19c0,.2-.2.4-.4.4s-.4-.2-.4-.4.2-.4.4-.4.4.2.4.4"/>
    <path class="st6" d="M215.9,19c0,.2-.2.4-.4.4s-.4-.2-.4-.4.2-.4.4-.4.4.2.4.4"/>
  </g>
</svg>