<?xml version="1.0" encoding="UTF-8"?>
<svg id="Layer_2" data-name="Layer 2" xmlns="http://www.w3.org/2000/svg" viewBox="0 0 213.92 213.92">
  <defs>
    <style>
      .cls-1 {
        fill: #fff;
      }
    </style>
  </defs>
  <g id="Layer_1-2" data-name="Layer 1">
    <g>
      <path class="cls-1" d="M209.59,126.86c2.68,2.75,4.33,6.52,4.33,10.66s-1.65,7.91-4.33,10.66c-.1.09-.19.19-.28.28-2.75,2.68-6.52,4.33-10.66,4.33s-7.91-1.65-10.66-4.33c-.09-.1-.19-.19-.28-.28-2.68-2.75-4.33-6.52-4.33-10.66s1.65-7.91,4.33-10.66c.1-.09.19-.19.28-.28,4.97-5.04,8.04-11.97,8.04-19.61s-3.07-14.57-8.04-19.61c-.09-.1-.19-.19-.28-.28-5.04-4.97-11.97-8.04-19.61-8.04s-14.57,3.07-19.61,8.04c-.1.09-.19.19-.28.28-4.97,5.04-8.04,11.97-8.04,19.61s3.07,14.57,8.04,19.61c.09.1.19.19.28.28,2.68,2.75,4.33,6.52,4.33,10.66s-1.65,7.91-4.33,10.66c-.1.09-.19.19-.28.28-2.75,2.68-6.52,4.33-10.66,4.33s-7.91-1.65-10.66-4.33c-.09-.1-.19-.19-.28-.28-2.68-2.75-4.33-6.52-4.33-10.66s1.65-7.91,4.33-10.66c.1-.09.19-.19.28-.28,4.97-5.04,8.04-11.97,8.04-19.61s-3.07-14.57-8.04-19.61c-.09-.1-.19-.19-.28-.28-5.04-4.97-11.97-8.04-19.61-8.04s-14.57,3.07-19.61,8.04c-.1.09-.19.19-.28.28-4.97,5.04-8.04,11.97-8.04,19.61s3.07,14.57,8.04,19.61c.09.1.19.19.28.28,2.68,2.75,4.33,6.52,4.33,10.66s-1.65,7.91-4.33,10.66c-.1.09-.19.19-.28.28-2.75,2.68-6.52,4.33-10.66,4.33s-7.91-1.65-10.66-4.33c-.09-.1-.19-.19-.28-.28-2.68-2.75-4.33-6.52-4.33-10.66s1.65-7.91,4.33-10.66c.1-.09.19-.19.28-.28,4.97-5.04,8.04-11.97,8.04-19.61s-3.07-14.57-8.04-19.61c-.09-.1-.19-.19-.28-.28-2.68-2.75-4.33-6.52-4.33-10.66s1.65-7.91,4.33-10.66c.1-.09.19-.19.28-.28,2.75-2.68,6.52-4.33,10.66-4.33s7.91,1.65,10.66,4.33c.09.1.19.19.28.28,5.04,4.97,11.97,8.04,19.61,8.04s14.57-3.07,19.61-8.04c.1-.09.19-.19.28-.28,2.75-2.68,6.52-4.33,10.66-4.33s7.91,1.65,10.66,4.33c.09.1.19.19.28.28,5.04,4.97,11.97,8.04,19.61,8.04s14.57-3.07,19.61-8.04c.1-.09.19-.19.28-.28,2.75-2.68,6.52-4.33,10.66-4.33s7.91,1.65,10.66,4.33c.09.1.19.19.28.28,2.68,2.75,4.33,6.52,4.33,10.66s-1.65,7.91-4.33,10.66c-.1.09-.19.19-.28.28-4.97,5.04-8.04,11.97-8.04,19.61s3.07,14.57,8.04,19.61c.09.1.19.19.28.28Z"/>
      <path class="cls-1" d="M209.59,187.98c2.68,2.75,4.33,6.52,4.33,10.66s-1.65,7.91-4.33,10.66c-.09.09-.19.19-.28.28-2.75,2.68-6.52,4.33-10.66,4.33s-7.91-1.65-10.66-4.33c-.09-.1-.19-.19-.28-.28-5.04-4.97-11.97-8.04-19.61-8.04s-14.57,3.07-19.61,8.04c-.09.09-.19.19-.28.28-2.75,2.68-6.52,4.33-10.66,4.33s-7.91-1.65-10.66-4.33c-.09-.1-.19-.19-.28-.28-5.04-4.97-11.97-8.04-19.61-8.04s-14.57,3.07-19.61,8.04c-.09.09-.19.19-.28.28-2.75,2.68-6.52,4.33-10.66,4.33s-7.91-1.65-10.66-4.33c-.09-.1-.19-.19-.28-.28-5.04-4.97-11.97-8.04-19.61-8.04s-14.57,3.07-19.61,8.04c-.09.09-.19.19-.28.28-2.75,2.68-6.52,4.33-10.66,4.33s-7.91-1.65-10.66-4.33c-.09-.1-.19-.19-.28-.28-2.68-2.75-4.33-6.52-4.33-10.66s1.65-7.91,4.33-10.66c.1-.09.19-.19.28-.28,4.97-5.04,8.04-11.97,8.04-19.61s-3.07-14.57-8.04-19.61c-.09-.1-.19-.19-.28-.28-2.68-2.75-4.33-6.52-4.33-10.66s1.65-7.91,4.33-10.66c.1-.09.19-.19.28-.28,4.97-5.04,8.04-11.97,8.04-19.61s-3.07-14.57-8.04-19.61c-.09-.1-.19-.19-.28-.28-2.68-2.75-4.33-6.52-4.33-10.66s1.65-7.9,4.33-10.66c.1-.09.2-.19.29-.29,4.97-5.04,8.04-11.97,8.04-19.61s-3.07-14.57-8.04-19.61c-.09-.1-.19-.19-.28-.28C1.65,23.19,0,19.43,0,15.28S1.65,7.37,4.33,4.62c.1-.09.19-.19.28-.28C7.37,1.65,11.13,0,15.28,0s7.91,1.65,10.66,4.33c.09.1.19.19.28.28,5.04,4.97,11.97,8.04,19.61,8.04s14.57-3.07,19.61-8.04c.1-.09.19-.19.28-.28,2.75-2.68,6.52-4.33,10.66-4.33s7.91,1.65,10.66,4.33c.09.1.19.19.28.28,5.04,4.97,11.97,8.04,19.61,8.04s14.57-3.07,19.61-8.04c.1-.09.19-.19.28-.28,2.75-2.68,6.52-4.33,10.66-4.33s7.9,1.65,10.66,4.33c.09.1.19.2.29.29,5.04,4.97,11.97,8.04,19.61,8.04s14.57-3.07,19.61-8.04c.1-.09.19-.19.28-.28,2.75-2.68,6.52-4.33,10.66-4.33s7.91,1.65,10.66,4.33c.09.1.19.19.28.28,2.68,2.75,4.33,6.52,4.33,10.66s-1.65,7.91-4.33,10.66c-.09.09-.19.19-.28.28-2.75,2.68-6.52,4.33-10.66,4.33s-7.91-1.65-10.66-4.33c-.09-.1-.19-.19-.28-.28-5.04-4.97-11.97-8.04-19.61-8.04s-14.57,3.07-19.61,8.04c-.09.09-.19.19-.28.28-2.75,2.68-6.52,4.33-10.66,4.33s-7.91-1.65-10.66-4.33c-.09-.1-.19-.19-.28-.28-5.04-4.97-11.97-8.04-19.61-8.04s-14.57,3.07-19.61,8.04c-.09.09-.19.19-.28.28-2.75,2.68-6.52,4.33-10.66,4.33s-7.91-1.65-10.66-4.33c-.09-.1-.19-.19-.28-.28-5.04-4.97-11.97-8.04-19.61-8.04s-14.57,3.07-19.61,8.04c-.09.09-.19.19-.28.28-4.97,5.04-8.04,11.97-8.04,19.61s3.07,14.57,8.04,19.61c.09.1.19.19.28.28,2.68,2.75,4.33,6.52,4.33,10.66s-1.65,7.91-4.33,10.66c-.09.09-.19.19-.28.28-4.97,5.04-8.04,11.97-8.04,19.61s3.07,14.57,8.04,19.61h.01c.08.1.17.19.26.27,0,0,0,0,.01.01,2.68,2.75,4.33,6.52,4.33,10.66s-1.65,7.91-4.33,10.66c-.09.09-.19.19-.28.28-4.97,5.04-8.04,11.97-8.04,19.61s3.07,14.57,8.04,19.61h.01c.08.1.17.19.26.27,0,0,0,0,.01.01,5.04,4.97,11.97,8.04,19.61,8.04s14.57-3.07,19.61-8.04c0,0,0,0,.01-.01.09-.08.17-.17.26-.26h.01c2.75-2.7,6.52-4.35,10.66-4.35s7.91,1.65,10.66,4.33h.01c.08.1.17.19.26.27,0,0,0,0,.01.01,5.04,4.97,11.97,8.04,19.61,8.04s14.57-3.07,19.61-8.04c0,0,0,0,.01-.01.09-.08.17-.17.26-.26h.01c2.75-2.7,6.52-4.35,10.66-4.35s7.91,1.65,10.66,4.33h.01c.08.1.17.19.26.27,0,0,0,0,.01.01,5.04,4.97,11.97,8.04,19.61,8.04s14.57-3.07,19.61-8.04c0,0,0,0,.01-.01.09-.08.17-.17.26-.26h.01c2.75-2.7,6.52-4.35,10.66-4.35s7.91,1.65,10.66,4.33h.01c.08.1.17.19.26.27,0,0,0,0,.01.01Z"/>
    </g>
  </g>
</svg>