<?xml version="1.0" encoding="UTF-8"?>
<svg id="Layer_2" data-name="Layer 2" xmlns="http://www.w3.org/2000/svg" viewBox="0 0 252 144">
  <defs>
    <style>
      .cls-1 {
        fill: #f37423;
      }

      .cls-2 {
        fill: none;
      }

      .cls-3 {
        fill: #f37321;
      }

      .cls-4 {
        fill: #7562ab;
      }

      .cls-5 {
        fill: #2e2664;
      }
    </style>
  </defs>
  <g id="Layer_1-2" data-name="Layer 1">
    <g>
      <path class="cls-1" d="M19.07,14.84c.13.14.21.32.21.52s-.08.39-.21.52c0,0,0,0-.01.01-.13.13-.32.21-.52.21s-.39-.08-.52-.21c0,0,0-.01-.01-.01-.13-.14-.21-.32-.21-.52s.08-.39.21-.52c0,0,0,0,.01-.01.24-.25.4-.59.4-.96s-.15-.71-.4-.96c0,0,0,0-.01-.01-.25-.24-.59-.4-.96-.4s-.71.15-.96.4c0,0,0,0-.01.01-.24.25-.39.59-.39.96s.15.72.39.96c0,0,0,0,.01.01.13.14.21.32.21.52s-.08.39-.21.52c0,0,0,0-.01.01-.13.13-.32.21-.52.21s-.39-.08-.52-.21c0,0,0-.01-.01-.01-.13-.14-.21-.32-.21-.52s.08-.39.21-.52c0,0,0,0,.01-.01.24-.25.39-.59.39-.96s-.15-.71-.39-.96c0,0,0,0-.01-.01-.25-.24-.59-.4-.96-.4s-.71.15-.96.4c0,0,0,0-.01.01-.24.25-.39.59-.39.96s.15.72.39.96c0,0,.01,0,.01.01.13.14.21.32.21.52s-.08.39-.21.52c0,0,0,0-.01.01-.14.13-.32.21-.52.21s-.39-.08-.52-.21c0,0,0-.01-.01-.01-.13-.14-.21-.32-.21-.52s.08-.39.21-.52c0,0,0,0,.01-.01.24-.25.39-.59.39-.96s-.15-.71-.39-.96c0,0,0,0-.01-.01-.13-.14-.21-.32-.21-.52s.08-.39.21-.52c0,0,0,0,.01-.01.14-.13.32-.21.52-.21s.39.08.52.21c0,0,.01,0,.01.01.25.24.59.4.96.4s.71-.15.96-.4c0,0,0,0,.01-.01.14-.13.32-.21.52-.21s.39.08.52.21c0,0,0,0,.01.01.25.24.59.4.96.4s.71-.15.96-.4c0,0,0,0,.01-.01.14-.13.32-.21.52-.21s.39.08.52.21c0,0,0,0,.01.01.13.13.21.32.21.52s-.08.39-.21.52c0,0,0,0-.01.01-.24.25-.39.59-.39.96s.15.72.39.96c0,0,0,0,.01.01"/>
      <path class="cls-5" d="M19.07,17.83c.13.14.21.32.21.52s-.08.39-.21.52c0,0,0,0-.01.01-.13.13-.32.21-.52.21s-.39-.08-.52-.21c0,0,0-.01-.01-.01-.25-.24-.59-.4-.96-.4s-.71.15-.96.4c0,0,0,0-.01.01-.13.13-.32.21-.52.21s-.39-.08-.52-.21c0,0,0-.01-.01-.01-.25-.24-.59-.4-.96-.4s-.71.15-.96.4c0,0,0,0-.01.01-.14.13-.32.21-.52.21s-.39-.08-.52-.21c0,0,0-.01-.01-.01-.25-.24-.59-.4-.96-.4s-.71.15-.96.4h-.01c-.14.14-.32.23-.52.23s-.39-.08-.52-.21c0,0,0-.01-.01-.01-.13-.14-.21-.32-.21-.52s.08-.39.21-.52c0,0,0,0,.01-.01.24-.25.39-.59.39-.96s-.15-.71-.39-.96c0,0,0-.01-.01-.01-.13-.14-.21-.32-.21-.52s.08-.39.21-.52c0,0,0,0,.01-.01.24-.25.39-.59.39-.96s-.15-.71-.39-.96c0,0,0,0-.01-.01-.13-.14-.21-.32-.21-.52s.08-.39.21-.52c0,0,.01-.01.01-.01.24-.25.39-.59.39-.96s-.15-.72-.39-.96c0,0,0,0-.01-.01-.13-.13-.21-.32-.21-.52s.08-.39.21-.52c0,0,0,0,.01-.01.14-.13.32-.21.52-.21s.39.08.52.21c0,0,.01.01.01.01.25.24.59.4.96.4s.72-.15.96-.4c0,0,0,0,.01-.01.14-.13.32-.21.52-.21s.39.08.52.21c0,0,.01.01.01.01.25.24.59.4.96.4s.71-.15.96-.4c0,0,0,0,.01-.01.14-.13.32-.21.52-.21s.39.08.52.21c0,0,0,.01.01.01.25.24.59.39.96.39s.71-.15.96-.4c0,0,0,0,.01-.01.14-.13.32-.21.52-.21s.39.08.52.21c0,0,0,.01.01.01.13.14.21.32.21.52s-.08.39-.21.52c0,0,0,0-.01.01-.13.13-.32.21-.52.21s-.39-.08-.52-.21c0,0,0,0-.01-.01-.25-.24-.59-.39-.96-.39s-.71.15-.96.39c0,0,0,0-.01.01-.13.13-.32.21-.52.21s-.39-.08-.52-.21c0,0,0,0-.01-.01-.25-.24-.59-.39-.96-.39s-.71.15-.96.39c0,0,0,0-.01.01-.14.13-.32.21-.52.21s-.39-.08-.52-.21c0,0,0,0-.01-.01-.25-.24-.59-.39-.96-.39s-.71.15-.96.39h-.01c-.24.26-.39.6-.39.98s.15.71.39.96c0,0,.01,0,.01.01.13.14.21.32.21.52s-.08.39-.21.52c0,0,0,0-.01.01-.24.25-.39.59-.39.96s.15.71.39.96h0s0,0,.01.01c.13.13.21.32.21.52s-.08.39-.21.52c0,0,0,0-.01.01-.24.25-.39.59-.39.96s.15.72.39.96h0s0,0,.01.01h0c.25.25.59.4.96.4s.72-.15.96-.39h0s0,0,.01-.01h0c.14-.13.32-.21.52-.21s.39.08.52.21h0s0,0,.01.01h0c.25.25.59.4.96.4s.71-.15.96-.39h0s0,0,.01-.01h0c.14-.13.32-.21.52-.21s.39.08.52.21h0s0,0,.01.01h0c.25.25.59.4.96.4s.71-.15.96-.39h0s0,0,.01-.01h0c.14-.13.32-.21.52-.21s.39.08.52.21h0s0,0,.01.01h0"/>
      <g>
        <path class="cls-3" d="M229.83,55.09c.07.07.11.17.11.27s-.04.2-.11.27c0,0,0,0,0,0-.07.07-.17.11-.28.11s-.2-.04-.27-.11c0,0,0,0,0,0-.07-.07-.11-.17-.11-.27s.04-.2.11-.27c0,0,0,0,0,0,.13-.13.21-.31.21-.5s-.08-.37-.21-.5c0,0,0,0,0,0-.13-.13-.31-.21-.5-.21s-.38.08-.51.21c0,0,0,0,0,0-.13.13-.21.31-.21.5s.08.38.21.5c0,0,0,0,0,0,.07.07.11.17.11.27s-.04.2-.11.27c0,0,0,0,0,0-.07.07-.17.11-.27.11s-.2-.04-.27-.11c0,0,0,0,0,0-.07-.07-.11-.17-.11-.27s.04-.2.11-.27c0,0,0,0,0,0,.13-.13.21-.31.21-.5s-.08-.37-.21-.5c0,0,0,0,0,0-.13-.13-.31-.21-.5-.21s-.38.08-.51.21c0,0,0,0,0,0-.13.13-.21.31-.21.5s.08.38.21.5c0,0,0,0,0,0,.07.07.11.17.11.27s-.04.2-.11.27c0,0,0,0,0,0-.07.07-.17.11-.27.11s-.2-.04-.27-.11c0,0,0,0,0,0-.07-.07-.11-.17-.11-.27s.04-.2.11-.27c0,0,0,0,0,0,.13-.13.21-.31.21-.5s-.08-.37-.21-.5c0,0,0,0,0,0-.07-.07-.11-.17-.11-.28s.04-.2.11-.27c0,0,0,0,0,0,.07-.07.17-.11.27-.11s.2.04.27.11c0,0,0,0,0,0,.13.13.31.21.51.21s.37-.08.5-.21c0,0,0,0,0,0,.07-.07.17-.11.27-.11s.2.04.27.11c0,0,0,0,0,0,.13.13.31.21.51.21s.37-.08.5-.21c0,0,0,0,0,0,.07-.07.17-.11.27-.11s.2.04.28.11c0,0,0,0,0,0,.07.07.11.17.11.27s-.04.2-.11.28c0,0,0,0,0,0-.13.13-.21.31-.21.5s.08.38.21.5c0,0,0,0,0,0"/>
        <path class="cls-5" d="M229.83,56.66c.07.07.11.17.11.27s-.04.2-.11.27c0,0,0,0,0,0-.07.07-.17.11-.28.11s-.2-.04-.27-.11c0,0,0,0,0,0-.13-.13-.31-.21-.5-.21s-.38.08-.51.21c0,0,0,0,0,0-.07.07-.17.11-.27.11s-.2-.04-.27-.11c0,0,0,0,0,0-.13-.13-.31-.21-.5-.21s-.38.08-.51.21c0,0,0,0,0,0-.07.07-.17.11-.27.11s-.2-.04-.27-.11c0,0,0,0,0,0-.13-.13-.31-.21-.5-.21s-.38.08-.5.21h0c-.07.08-.17.12-.27.12s-.2-.04-.27-.11c0,0,0,0,0,0-.07-.07-.11-.17-.11-.27s.04-.2.11-.27c0,0,0,0,0,0,.13-.13.21-.31.21-.5s-.08-.37-.21-.5c0,0,0,0,0,0-.07-.07-.11-.17-.11-.28s.04-.2.11-.27c0,0,0,0,0,0,.13-.13.21-.31.21-.51s-.08-.37-.21-.5c0,0,0,0,0,0-.07-.07-.11-.17-.11-.27s.04-.2.11-.28c0,0,0,0,0,0,.13-.13.21-.31.21-.5s-.08-.38-.21-.5c0,0,0,0,0,0-.07-.07-.11-.17-.11-.27s.04-.2.11-.27c0,0,0,0,0,0,.07-.07.17-.11.27-.11s.2.04.27.11c0,0,0,0,0,0,.13.13.31.21.5.21s.38-.08.5-.21c0,0,0,0,0,0,.07-.07.17-.11.27-.11s.2.04.27.11c0,0,0,0,0,0,.13.13.31.21.51.21s.37-.08.5-.21c0,0,0,0,0,0,.07-.07.17-.11.27-.11s.2.04.27.11c0,0,0,0,0,0,.13.13.31.21.51.21s.37-.08.5-.21c0,0,0,0,0,0,.07-.07.17-.11.27-.11s.2.04.28.11c0,0,0,0,0,0,.07.07.11.17.11.27s-.04.2-.11.27c0,0,0,0,0,0-.07.07-.17.11-.28.11s-.2-.04-.27-.11c0,0,0,0,0,0-.13-.13-.31-.21-.5-.21s-.38.08-.51.21c0,0,0,0,0,0-.07.07-.17.11-.27.11s-.2-.04-.27-.11c0,0,0,0,0,0-.13-.13-.31-.21-.5-.21s-.38.08-.51.21c0,0,0,0,0,0-.07.07-.17.11-.27.11s-.2-.04-.27-.11c0,0,0,0,0,0-.13-.13-.31-.21-.5-.21s-.38.08-.5.21h0c-.13.14-.21.32-.21.51s.08.37.21.5c0,0,0,0,0,0,.07.07.11.17.11.28s-.04.2-.11.27c0,0,0,0,0,0-.13.13-.21.31-.21.5s.08.38.21.51h0s0,0,0,0h0c.07.07.11.17.11.27s-.04.2-.11.28c0,0,0,0,0,0-.13.13-.21.31-.21.5s.08.38.21.5h0s0,0,0,0h0c.13.13.31.21.5.21s.38-.08.5-.21h0s0,0,0,0h0c.07-.07.17-.11.27-.11s.2.04.27.11c0,0,0,0,0,0,.13.13.31.21.51.21s.37-.08.5-.21c0,0,0,0,0,0,.07-.07.17-.11.27-.11s.2.04.27.11c0,0,0,0,0,0,.13.13.31.21.51.21s.37-.08.5-.21c0,0,0,0,0,0,.07-.07.17-.11.27-.11s.2.04.28.11c0,0,0,0,0,0"/>
        <path class="cls-3" d="M236.2,55.09c.07.07.11.17.11.27s-.04.2-.11.27c0,0,0,0,0,0-.07.07-.17.11-.28.11s-.2-.04-.27-.11c0,0,0,0,0,0-.07-.07-.11-.17-.11-.27s.04-.2.11-.27c0,0,0,0,0,0,.13-.13.21-.31.21-.5s-.08-.37-.21-.5c0,0,0,0,0,0-.13-.13-.31-.21-.5-.21s-.38.08-.51.21c0,0,0,0,0,0-.13.13-.21.31-.21.5s.08.38.21.5c0,0,0,0,0,0,.07.07.11.17.11.27s-.04.2-.11.27c0,0,0,0,0,0-.07.07-.17.11-.27.11s-.2-.04-.27-.11c0,0,0,0,0,0-.07-.07-.11-.17-.11-.27s.04-.2.11-.27c0,0,0,0,0,0,.13-.13.21-.31.21-.5s-.08-.37-.21-.5c0,0,0,0,0,0-.13-.13-.31-.21-.5-.21s-.38.08-.51.21c0,0,0,0,0,0-.13.13-.21.31-.21.5s.08.38.21.5c0,0,0,0,0,0,.07.07.11.17.11.27s-.04.2-.11.27c0,0,0,0,0,0-.07.07-.17.11-.27.11s-.2-.04-.27-.11c0,0,0,0,0,0-.07-.07-.11-.17-.11-.27s.04-.2.11-.27c0,0,0,0,0,0,.13-.13.21-.31.21-.5s-.08-.37-.21-.5c0,0,0,0,0,0-.07-.07-.11-.17-.11-.28s.04-.2.11-.27c0,0,0,0,0,0,.07-.07.17-.11.27-.11s.2.04.27.11c0,0,0,0,0,0,.13.13.31.21.51.21s.37-.08.5-.21c0,0,0,0,0,0,.07-.07.17-.11.27-.11s.2.04.27.11c0,0,0,0,0,0,.13.13.31.21.51.21s.37-.08.5-.21c0,0,0,0,0,0,.07-.07.17-.11.27-.11s.2.04.28.11c0,0,0,0,0,0,.07.07.11.17.11.27s-.04.2-.11.28c0,0,0,0,0,0-.13.13-.21.31-.21.5s.08.38.21.5c0,0,0,0,0,0"/>
        <path class="cls-5" d="M236.2,56.66c.07.07.11.17.11.27s-.04.2-.11.27c0,0,0,0,0,0-.07.07-.17.11-.28.11s-.2-.04-.27-.11c0,0,0,0,0,0-.13-.13-.31-.21-.5-.21s-.38.08-.51.21c0,0,0,0,0,0-.07.07-.17.11-.27.11s-.2-.04-.27-.11c0,0,0,0,0,0-.13-.13-.31-.21-.5-.21s-.38.08-.51.21c0,0,0,0,0,0-.07.07-.17.11-.27.11s-.2-.04-.27-.11c0,0,0,0,0,0-.13-.13-.31-.21-.5-.21s-.38.08-.5.21h0c-.07.08-.17.12-.27.12s-.2-.04-.27-.11c0,0,0,0,0,0-.07-.07-.11-.17-.11-.27s.04-.2.11-.27c0,0,0,0,0,0,.13-.13.21-.31.21-.5s-.08-.37-.21-.5c0,0,0,0,0,0-.07-.07-.11-.17-.11-.28s.04-.2.11-.27c0,0,0,0,0,0,.13-.13.21-.31.21-.51s-.08-.37-.21-.5c0,0,0,0,0,0-.07-.07-.11-.17-.11-.27s.04-.2.11-.28c0,0,0,0,0,0,.13-.13.21-.31.21-.5s-.08-.38-.21-.5c0,0,0,0,0,0-.07-.07-.11-.17-.11-.27s.04-.2.11-.27c0,0,0,0,0,0,.07-.07.17-.11.27-.11s.2.04.27.11c0,0,0,0,0,0,.13.13.31.21.5.21s.38-.08.5-.21c0,0,0,0,0,0,.07-.07.17-.11.27-.11s.2.04.27.11c0,0,0,0,0,0,.13.13.31.21.51.21s.37-.08.5-.21c0,0,0,0,0,0,.07-.07.17-.11.27-.11s.2.04.27.11c0,0,0,0,0,0,.13.13.31.21.51.21s.37-.08.5-.21c0,0,0,0,0,0,.07-.07.17-.11.27-.11s.2.04.28.11c0,0,0,0,0,0,.07.07.11.17.11.27s-.04.2-.11.27c0,0,0,0,0,0-.07.07-.17.11-.28.11s-.2-.04-.27-.11c0,0,0,0,0,0-.13-.13-.31-.21-.5-.21s-.38.08-.51.21c0,0,0,0,0,0-.07.07-.17.11-.27.11s-.2-.04-.27-.11c0,0,0,0,0,0-.13-.13-.31-.21-.5-.21s-.38.08-.51.21c0,0,0,0,0,0-.07.07-.17.11-.27.11s-.2-.04-.27-.11c0,0,0,0,0,0-.13-.13-.31-.21-.5-.21s-.38.08-.5.21h0c-.13.14-.21.32-.21.51s.08.37.21.5c0,0,0,0,0,0,.07.07.11.17.11.28s-.04.2-.11.27c0,0,0,0,0,0-.13.13-.21.31-.21.5s.08.38.21.51h0s0,0,0,0h0c.07.07.11.17.11.27s-.04.2-.11.28c0,0,0,0,0,0-.13.13-.21.31-.21.5s.08.38.21.5h0s0,0,0,0h0c.13.13.31.21.5.21s.38-.08.5-.21h0s0,0,0,0h0c.07-.07.17-.11.27-.11s.2.04.27.11c0,0,0,0,0,0,.13.13.31.21.51.21s.37-.08.5-.21c0,0,0,0,0,0,.07-.07.17-.11.27-.11s.2.04.27.11c0,0,0,0,0,0,.13.13.31.21.51.21s.37-.08.5-.21c0,0,0,0,0,0,.07-.07.17-.11.27-.11s.2.04.28.11c0,0,0,0,0,0"/>
        <path class="cls-3" d="M229.83,61.54c.07.07.11.17.11.27s-.04.2-.11.27c0,0,0,0,0,0-.07.07-.17.11-.28.11s-.2-.04-.27-.11c0,0,0,0,0,0-.07-.07-.11-.17-.11-.27s.04-.2.11-.27c0,0,0,0,0,0,.13-.13.21-.31.21-.5s-.08-.37-.21-.5c0,0,0,0,0,0-.13-.13-.31-.21-.5-.21s-.38.08-.51.21c0,0,0,0,0,0-.13.13-.21.31-.21.5s.08.38.21.5c0,0,0,0,0,0,.07.07.11.17.11.27s-.04.2-.11.27c0,0,0,0,0,0-.07.07-.17.11-.27.11s-.2-.04-.27-.11c0,0,0,0,0,0-.07-.07-.11-.17-.11-.27s.04-.2.11-.27c0,0,0,0,0,0,.13-.13.21-.31.21-.5s-.08-.37-.21-.5c0,0,0,0,0,0-.13-.13-.31-.21-.5-.21s-.38.08-.51.21c0,0,0,0,0,0-.13.13-.21.31-.21.5s.08.38.21.5c0,0,0,0,0,0,.07.07.11.17.11.27s-.04.2-.11.27c0,0,0,0,0,0-.07.07-.17.11-.27.11s-.2-.04-.27-.11c0,0,0,0,0,0-.07-.07-.11-.17-.11-.27s.04-.2.11-.27c0,0,0,0,0,0,.13-.13.21-.31.21-.5s-.08-.37-.21-.5c0,0,0,0,0,0-.07-.07-.11-.17-.11-.28s.04-.2.11-.27c0,0,0,0,0,0,.07-.07.17-.11.27-.11s.2.04.27.11c0,0,0,0,0,0,.13.13.31.21.51.21s.37-.08.5-.21c0,0,0,0,0,0,.07-.07.17-.11.27-.11s.2.04.27.11c0,0,0,0,0,0,.13.13.31.21.51.21s.37-.08.5-.21c0,0,0,0,0,0,.07-.07.17-.11.27-.11s.2.04.28.11c0,0,0,0,0,0,.07.07.11.17.11.27s-.04.2-.11.28c0,0,0,0,0,0-.13.13-.21.31-.21.5s.08.38.21.5c0,0,0,0,0,0"/>
        <path class="cls-5" d="M229.83,63.11c.07.07.11.17.11.27s-.04.2-.11.27c0,0,0,0,0,0-.07.07-.17.11-.28.11s-.2-.04-.27-.11c0,0,0,0,0,0-.13-.13-.31-.21-.5-.21s-.38.08-.51.21c0,0,0,0,0,0-.07.07-.17.11-.27.11s-.2-.04-.27-.11c0,0,0,0,0,0-.13-.13-.31-.21-.5-.21s-.38.08-.51.21c0,0,0,0,0,0-.07.07-.17.11-.27.11s-.2-.04-.27-.11c0,0,0,0,0,0-.13-.13-.31-.21-.5-.21s-.38.08-.5.21h0c-.07.08-.17.12-.27.12s-.2-.04-.27-.11c0,0,0,0,0,0-.07-.07-.11-.17-.11-.27s.04-.2.11-.27c0,0,0,0,0,0,.13-.13.21-.31.21-.5s-.08-.37-.21-.5c0,0,0,0,0,0-.07-.07-.11-.17-.11-.28s.04-.2.11-.27c0,0,0,0,0,0,.13-.13.21-.31.21-.51s-.08-.37-.21-.5c0,0,0,0,0,0-.07-.07-.11-.17-.11-.27s.04-.2.11-.28c0,0,0,0,0,0,.13-.13.21-.31.21-.5s-.08-.38-.21-.5c0,0,0,0,0,0-.07-.07-.11-.17-.11-.27s.04-.2.11-.27c0,0,0,0,0,0,.07-.07.17-.11.27-.11s.2.04.27.11c0,0,0,0,0,0,.13.13.31.21.5.21s.38-.08.5-.21c0,0,0,0,0,0,.07-.07.17-.11.27-.11s.2.04.27.11c0,0,0,0,0,0,.13.13.31.21.51.21s.37-.08.5-.21c0,0,0,0,0,0,.07-.07.17-.11.27-.11s.2.04.27.11c0,0,0,0,0,0,.13.13.31.21.51.21s.37-.08.5-.21c0,0,0,0,0,0,.07-.07.17-.11.27-.11s.2.04.28.11c0,0,0,0,0,0,.07.07.11.17.11.27s-.04.2-.11.27c0,0,0,0,0,0-.07.07-.17.11-.28.11s-.2-.04-.27-.11c0,0,0,0,0,0-.13-.13-.31-.21-.5-.21s-.38.08-.51.21c0,0,0,0,0,0-.07.07-.17.11-.27.11s-.2-.04-.27-.11c0,0,0,0,0,0-.13-.13-.31-.21-.5-.21s-.38.08-.51.21c0,0,0,0,0,0-.07.07-.17.11-.27.11s-.2-.04-.27-.11c0,0,0,0,0,0-.13-.13-.31-.21-.5-.21s-.38.08-.5.21h0c-.13.14-.21.32-.21.51s.08.37.21.5c0,0,0,0,0,0,.07.07.11.17.11.28s-.04.2-.11.27c0,0,0,0,0,0-.13.13-.21.31-.21.5s.08.38.21.51h0s0,0,0,0h0c.07.07.11.17.11.27s-.04.2-.11.28c0,0,0,0,0,0-.13.13-.21.31-.21.5s.08.38.21.5h0s0,0,0,0h0c.13.13.31.21.5.21s.38-.08.5-.21h0s0,0,0,0h0c.07-.07.17-.11.27-.11s.2.04.27.11c0,0,0,0,0,0,.13.13.31.21.51.21s.37-.08.5-.21c0,0,0,0,0,0,.07-.07.17-.11.27-.11s.2.04.27.11c0,0,0,0,0,0,.13.13.31.21.51.21s.37-.08.5-.21c0,0,0,0,0,0,.07-.07.17-.11.27-.11s.2.04.28.11h0"/>
        <path class="cls-3" d="M236.2,61.54c.07.07.11.17.11.27s-.04.2-.11.27c0,0,0,0,0,0-.07.07-.17.11-.28.11s-.2-.04-.27-.11c0,0,0,0,0,0-.07-.07-.11-.17-.11-.27s.04-.2.11-.27c0,0,0,0,0,0,.13-.13.21-.31.21-.5s-.08-.37-.21-.5c0,0,0,0,0,0-.13-.13-.31-.21-.5-.21s-.38.08-.51.21c0,0,0,0,0,0-.13.13-.21.31-.21.5s.08.38.21.5c0,0,0,0,0,0,.07.07.11.17.11.27s-.04.2-.11.27c0,0,0,0,0,0-.07.07-.17.11-.27.11s-.2-.04-.27-.11c0,0,0,0,0,0-.07-.07-.11-.17-.11-.27s.04-.2.11-.27c0,0,0,0,0,0,.13-.13.21-.31.21-.5s-.08-.37-.21-.5c0,0,0,0,0,0-.13-.13-.31-.21-.5-.21s-.38.08-.51.21c0,0,0,0,0,0-.13.13-.21.31-.21.5s.08.38.21.5c0,0,0,0,0,0,.07.07.11.17.11.27s-.04.2-.11.27c0,0,0,0,0,0-.07.07-.17.11-.27.11s-.2-.04-.27-.11c0,0,0,0,0,0-.07-.07-.11-.17-.11-.27s.04-.2.11-.27c0,0,0,0,0,0,.13-.13.21-.31.21-.5s-.08-.37-.21-.5c0,0,0,0,0,0-.07-.07-.11-.17-.11-.28s.04-.2.11-.27c0,0,0,0,0,0,.07-.07.17-.11.27-.11s.2.04.27.11c0,0,0,0,0,0,.13.13.31.21.51.21s.37-.08.5-.21c0,0,0,0,0,0,.07-.07.17-.11.27-.11s.2.04.27.11c0,0,0,0,0,0,.13.13.31.21.51.21s.37-.08.5-.21c0,0,0,0,0,0,.07-.07.17-.11.27-.11s.2.04.28.11c0,0,0,0,0,0,.07.07.11.17.11.27s-.04.2-.11.28c0,0,0,0,0,0-.13.13-.21.31-.21.5s.08.38.21.5c0,0,0,0,0,0"/>
        <path class="cls-5" d="M236.2,63.11c.07.07.11.17.11.27s-.04.2-.11.27c0,0,0,0,0,0-.07.07-.17.11-.28.11s-.2-.04-.27-.11c0,0,0,0,0,0-.13-.13-.31-.21-.5-.21s-.38.08-.51.21c0,0,0,0,0,0-.07.07-.17.11-.27.11s-.2-.04-.27-.11c0,0,0,0,0,0-.13-.13-.31-.21-.5-.21s-.38.08-.51.21c0,0,0,0,0,0-.07.07-.17.11-.27.11s-.2-.04-.27-.11c0,0,0,0,0,0-.13-.13-.31-.21-.5-.21s-.38.08-.5.21h0c-.07.08-.17.12-.27.12s-.2-.04-.27-.11c0,0,0,0,0,0-.07-.07-.11-.17-.11-.27s.04-.2.11-.27c0,0,0,0,0,0,.13-.13.21-.31.21-.5s-.08-.37-.21-.5c0,0,0,0,0,0-.07-.07-.11-.17-.11-.28s.04-.2.11-.27c0,0,0,0,0,0,.13-.13.21-.31.21-.51s-.08-.37-.21-.5c0,0,0,0,0,0-.07-.07-.11-.17-.11-.27s.04-.2.11-.28c0,0,0,0,0,0,.13-.13.21-.31.21-.5s-.08-.38-.21-.5c0,0,0,0,0,0-.07-.07-.11-.17-.11-.27s.04-.2.11-.27c0,0,0,0,0,0,.07-.07.17-.11.27-.11s.2.04.27.11c0,0,0,0,0,0,.13.13.31.21.5.21s.38-.08.5-.21c0,0,0,0,0,0,.07-.07.17-.11.27-.11s.2.04.27.11c0,0,0,0,0,0,.13.13.31.21.51.21s.37-.08.5-.21c0,0,0,0,0,0,.07-.07.17-.11.27-.11s.2.04.27.11c0,0,0,0,0,0,.13.13.31.21.51.21s.37-.08.5-.21c0,0,0,0,0,0,.07-.07.17-.11.27-.11s.2.04.28.11c0,0,0,0,0,0,.07.07.11.17.11.27s-.04.2-.11.27c0,0,0,0,0,0-.07.07-.17.11-.28.11s-.2-.04-.27-.11c0,0,0,0,0,0-.13-.13-.31-.21-.5-.21s-.38.08-.51.21c0,0,0,0,0,0-.07.07-.17.11-.27.11s-.2-.04-.27-.11c0,0,0,0,0,0-.13-.13-.31-.21-.5-.21s-.38.08-.51.21c0,0,0,0,0,0-.07.07-.17.11-.27.11s-.2-.04-.27-.11c0,0,0,0,0,0-.13-.13-.31-.21-.5-.21s-.38.08-.5.21h0c-.13.14-.21.32-.21.51s.08.37.21.5c0,0,0,0,0,0,.07.07.11.17.11.28s-.04.2-.11.27c0,0,0,0,0,0-.13.13-.21.31-.21.5s.08.38.21.51h0s0,0,0,0h0c.07.07.11.17.11.27s-.04.2-.11.28c0,0,0,0,0,0-.13.13-.21.31-.21.5s.08.38.21.5h0s0,0,0,0h0c.13.13.31.21.5.21s.38-.08.5-.21h0s0,0,0,0h0c.07-.07.17-.11.27-.11s.2.04.27.11c0,0,0,0,0,0,.13.13.31.21.51.21s.37-.08.5-.21c0,0,0,0,0,0,.07-.07.17-.11.27-.11s.2.04.27.11c0,0,0,0,0,0,.13.13.31.21.51.21s.37-.08.5-.21c0,0,0,0,0,0,.07-.07.17-.11.27-.11s.2.04.28.11c0,0,0,0,0,0"/>
        <path class="cls-3" d="M242.58,61.54c.07.07.11.17.11.27s-.04.2-.11.27c0,0,0,0,0,0-.07.07-.17.11-.28.11s-.2-.04-.27-.11c0,0,0,0,0,0-.07-.07-.11-.17-.11-.27s.04-.2.11-.27c0,0,0,0,0,0,.13-.13.21-.31.21-.5s-.08-.37-.21-.5c0,0,0,0,0,0-.13-.13-.31-.21-.5-.21s-.38.08-.51.21c0,0,0,0,0,0-.13.13-.21.31-.21.5s.08.38.21.5c0,0,0,0,0,0,.07.07.11.17.11.27s-.04.2-.11.27c0,0,0,0,0,0-.07.07-.17.11-.27.11s-.2-.04-.27-.11c0,0,0,0,0,0-.07-.07-.11-.17-.11-.27s.04-.2.11-.27c0,0,0,0,0,0,.13-.13.21-.31.21-.5s-.08-.37-.21-.5c0,0,0,0,0,0-.13-.13-.31-.21-.5-.21s-.38.08-.51.21c0,0,0,0,0,0-.13.13-.21.31-.21.5s.08.38.21.5c0,0,0,0,0,0,.07.07.11.17.11.27s-.04.2-.11.27c0,0,0,0,0,0-.07.07-.17.11-.27.11s-.2-.04-.27-.11c0,0,0,0,0,0-.07-.07-.11-.17-.11-.27s.04-.2.11-.27c0,0,0,0,0,0,.13-.13.21-.31.21-.5s-.08-.37-.21-.5c0,0,0,0,0,0-.07-.07-.11-.17-.11-.28s.04-.2.11-.27c0,0,0,0,0,0,.07-.07.17-.11.27-.11s.2.04.27.11c0,0,0,0,0,0,.13.13.31.21.51.21s.37-.08.5-.21c0,0,0,0,0,0,.07-.07.17-.11.27-.11s.2.04.27.11c0,0,0,0,0,0,.13.13.31.21.51.21s.37-.08.5-.21c0,0,0,0,0,0,.07-.07.17-.11.27-.11s.2.04.28.11c0,0,0,0,0,0,.07.07.11.17.11.27s-.04.2-.11.28c0,0,0,0,0,0-.13.13-.21.31-.21.5s.08.38.21.5c0,0,0,0,0,0"/>
        <path class="cls-5" d="M242.58,63.11c.07.07.11.17.11.27s-.04.2-.11.27c0,0,0,0,0,0-.07.07-.17.11-.28.11s-.2-.04-.27-.11c0,0,0,0,0,0-.13-.13-.31-.21-.5-.21s-.38.08-.51.21c0,0,0,0,0,0-.07.07-.17.11-.27.11s-.2-.04-.27-.11c0,0,0,0,0,0-.13-.13-.31-.21-.5-.21s-.38.08-.51.21c0,0,0,0,0,0-.07.07-.17.11-.27.11s-.2-.04-.27-.11c0,0,0,0,0,0-.13-.13-.31-.21-.5-.21s-.38.08-.5.21h0c-.07.08-.17.12-.27.12s-.2-.04-.27-.11c0,0,0,0,0,0-.07-.07-.11-.17-.11-.27s.04-.2.11-.27c0,0,0,0,0,0,.13-.13.21-.31.21-.5s-.08-.37-.21-.5c0,0,0,0,0,0-.07-.07-.11-.17-.11-.28s.04-.2.11-.27c0,0,0,0,0,0,.13-.13.21-.31.21-.51s-.08-.37-.21-.5c0,0,0,0,0,0-.07-.07-.11-.17-.11-.27s.04-.2.11-.28c0,0,0,0,0,0,.13-.13.21-.31.21-.5s-.08-.38-.21-.5c0,0,0,0,0,0-.07-.07-.11-.17-.11-.27s.04-.2.11-.27c0,0,0,0,0,0,.07-.07.17-.11.27-.11s.2.04.27.11c0,0,0,0,0,0,.13.13.31.21.5.21s.38-.08.5-.21c0,0,0,0,0,0,.07-.07.17-.11.27-.11s.2.04.27.11c0,0,0,0,0,0,.13.13.31.21.51.21s.37-.08.5-.21c0,0,0,0,0,0,.07-.07.17-.11.27-.11s.2.04.27.11c0,0,0,0,0,0,.13.13.31.21.51.21s.37-.08.5-.21c0,0,0,0,0,0,.07-.07.17-.11.27-.11s.2.04.28.11c0,0,0,0,0,0,.07.07.11.17.11.27s-.04.2-.11.27c0,0,0,0,0,0-.07.07-.17.11-.28.11s-.2-.04-.27-.11c0,0,0,0,0,0-.13-.13-.31-.21-.5-.21s-.38.08-.51.21c0,0,0,0,0,0-.07.07-.17.11-.27.11s-.2-.04-.27-.11c0,0,0,0,0,0-.13-.13-.31-.21-.5-.21s-.38.08-.51.21c0,0,0,0,0,0-.07.07-.17.11-.27.11s-.2-.04-.27-.11c0,0,0,0,0,0-.13-.13-.31-.21-.5-.21s-.38.08-.5.21h0c-.13.14-.21.32-.21.51s.08.37.21.5c0,0,0,0,0,0,.07.07.11.17.11.28s-.04.2-.11.27c0,0,0,0,0,0-.13.13-.21.31-.21.5s.08.38.21.51h0s0,0,0,0h0c.07.07.11.17.11.27s-.04.2-.11.28c0,0,0,0,0,0-.13.13-.21.31-.21.5s.08.38.21.5h0s0,0,0,0h0c.13.13.31.21.5.21s.38-.08.5-.21h0s0,0,0,0h0c.07-.07.17-.11.27-.11s.2.04.27.11c0,0,0,0,0,0,.13.13.31.21.51.21s.37-.08.5-.21c0,0,0,0,0,0,.07-.07.17-.11.27-.11s.2.04.27.11c0,0,0,0,0,0,.13.13.31.21.51.21s.37-.08.5-.21c0,0,0,0,0,0,.07-.07.17-.11.27-.11s.2.04.28.11h0"/>
        <path class="cls-3" d="M236.2,67.99c.07.07.11.17.11.27s-.04.2-.11.27c0,0,0,0,0,0-.07.07-.17.11-.28.11s-.2-.04-.27-.11c0,0,0,0,0,0-.07-.07-.11-.17-.11-.27s.04-.2.11-.27c0,0,0,0,0,0,.13-.13.21-.31.21-.5s-.08-.37-.21-.5c0,0,0,0,0,0-.13-.13-.31-.21-.5-.21s-.38.08-.51.21c0,0,0,0,0,0-.13.13-.21.31-.21.5s.08.38.21.5c0,0,0,0,0,0,.07.07.11.17.11.27s-.04.2-.11.27c0,0,0,0,0,0-.07.07-.17.11-.27.11s-.2-.04-.27-.11c0,0,0,0,0,0-.07-.07-.11-.17-.11-.27s.04-.2.11-.27c0,0,0,0,0,0,.13-.13.21-.31.21-.5s-.08-.37-.21-.5c0,0,0,0,0,0-.13-.13-.31-.21-.5-.21s-.38.08-.51.21c0,0,0,0,0,0-.13.13-.21.31-.21.5s.08.38.21.5c0,0,0,0,0,0,.07.07.11.17.11.27s-.04.2-.11.27c0,0,0,0,0,0-.07.07-.17.11-.27.11s-.2-.04-.27-.11c0,0,0,0,0,0-.07-.07-.11-.17-.11-.27s.04-.2.11-.27c0,0,0,0,0,0,.13-.13.21-.31.21-.5s-.08-.37-.21-.5c0,0,0,0,0,0-.07-.07-.11-.17-.11-.28s.04-.2.11-.27c0,0,0,0,0,0,.07-.07.17-.11.27-.11s.2.04.27.11c0,0,0,0,0,0,.13.13.31.21.51.21s.37-.08.5-.21c0,0,0,0,0,0,.07-.07.17-.11.27-.11s.2.04.27.11c0,0,0,0,0,0,.13.13.31.21.51.21s.37-.08.5-.21c0,0,0,0,0,0,.07-.07.17-.11.27-.11s.2.04.28.11c0,0,0,0,0,0,.07.07.11.17.11.27s-.04.2-.11.28c0,0,0,0,0,0-.13.13-.21.31-.21.5s.08.38.21.5c0,0,0,0,0,0"/>
        <path class="cls-5" d="M236.2,69.56c.07.07.11.17.11.27s-.04.2-.11.27c0,0,0,0,0,0-.07.07-.17.11-.28.11s-.2-.04-.27-.11c0,0,0,0,0,0-.13-.13-.31-.21-.5-.21s-.38.08-.51.21c0,0,0,0,0,0-.07.07-.17.11-.27.11s-.2-.04-.27-.11c0,0,0,0,0,0-.13-.13-.31-.21-.5-.21s-.38.08-.51.21c0,0,0,0,0,0-.07.07-.17.11-.27.11s-.2-.04-.27-.11c0,0,0,0,0,0-.13-.13-.31-.21-.5-.21s-.38.08-.5.21h0c-.07.08-.17.12-.27.12s-.2-.04-.27-.11c0,0,0,0,0,0-.07-.07-.11-.17-.11-.27s.04-.2.11-.27c0,0,0,0,0,0,.13-.13.21-.31.21-.5s-.08-.37-.21-.5c0,0,0,0,0,0-.07-.07-.11-.17-.11-.28s.04-.2.11-.27c0,0,0,0,0,0,.13-.13.21-.31.21-.51s-.08-.37-.21-.5c0,0,0,0,0,0-.07-.07-.11-.17-.11-.27s.04-.2.11-.28c0,0,0,0,0,0,.13-.13.21-.31.21-.5s-.08-.38-.21-.5c0,0,0,0,0,0-.07-.07-.11-.17-.11-.27s.04-.2.11-.27c0,0,0,0,0,0,.07-.07.17-.11.27-.11s.2.04.27.11c0,0,0,0,0,0,.13.13.31.21.5.21s.38-.08.5-.21c0,0,0,0,0,0,.07-.07.17-.11.27-.11s.2.04.27.11c0,0,0,0,0,0,.13.13.31.21.51.21s.37-.08.5-.21c0,0,0,0,0,0,.07-.07.17-.11.27-.11s.2.04.27.11c0,0,0,0,0,0,.13.13.31.21.51.21s.37-.08.5-.21c0,0,0,0,0,0,.07-.07.17-.11.27-.11s.2.04.28.11c0,0,0,0,0,0,.07.07.11.17.11.27s-.04.2-.11.27c0,0,0,0,0,0-.07.07-.17.11-.28.11s-.2-.04-.27-.11c0,0,0,0,0,0-.13-.13-.31-.21-.5-.21s-.38.08-.51.21c0,0,0,0,0,0-.07.07-.17.11-.27.11s-.2-.04-.27-.11c0,0,0,0,0,0-.13-.13-.31-.21-.5-.21s-.38.08-.51.21c0,0,0,0,0,0-.07.07-.17.11-.27.11s-.2-.04-.27-.11c0,0,0,0,0,0-.13-.13-.31-.21-.5-.21s-.38.08-.5.21h0c-.13.14-.21.32-.21.51s.08.37.21.5c0,0,0,0,0,0,.07.07.11.17.11.28s-.04.2-.11.27c0,0,0,0,0,0-.13.13-.21.31-.21.5s.08.38.21.51h0s0,0,0,0h0c.07.07.11.17.11.27s-.04.2-.11.28c0,0,0,0,0,0-.13.13-.21.31-.21.5s.08.38.21.5h0s0,0,0,0h0c.13.13.31.21.5.21s.38-.08.5-.21h0s0,0,0,0h0c.07-.07.17-.11.27-.11s.2.04.27.11c0,0,0,0,0,0,.13.13.31.21.51.21s.37-.08.5-.21c0,0,0,0,0,0,.07-.07.17-.11.27-.11s.2.04.27.11c0,0,0,0,0,0,.13.13.31.21.51.21s.37-.08.5-.21c0,0,0,0,0,0,.07-.07.17-.11.27-.11s.2.04.28.11c0,0,0,0,0,0"/>
        <path class="cls-3" d="M242.58,67.99c.07.07.11.17.11.27s-.04.2-.11.27c0,0,0,0,0,0-.07.07-.17.11-.28.11s-.2-.04-.27-.11c0,0,0,0,0,0-.07-.07-.11-.17-.11-.27s.04-.2.11-.27c0,0,0,0,0,0,.13-.13.21-.31.21-.5s-.08-.37-.21-.5c0,0,0,0,0,0-.13-.13-.31-.21-.5-.21s-.38.08-.51.21c0,0,0,0,0,0-.13.13-.21.31-.21.5s.08.38.21.5c0,0,0,0,0,0,.07.07.11.17.11.27s-.04.2-.11.27c0,0,0,0,0,0-.07.07-.17.11-.27.11s-.2-.04-.27-.11c0,0,0,0,0,0-.07-.07-.11-.17-.11-.27s.04-.2.11-.27c0,0,0,0,0,0,.13-.13.21-.31.21-.5s-.08-.37-.21-.5c0,0,0,0,0,0-.13-.13-.31-.21-.5-.21s-.38.08-.51.21c0,0,0,0,0,0-.13.13-.21.31-.21.5s.08.38.21.5c0,0,0,0,0,0,.07.07.11.17.11.27s-.04.2-.11.27c0,0,0,0,0,0-.07.07-.17.11-.27.11s-.2-.04-.27-.11c0,0,0,0,0,0-.07-.07-.11-.17-.11-.27s.04-.2.11-.27c0,0,0,0,0,0,.13-.13.21-.31.21-.5s-.08-.37-.21-.5c0,0,0,0,0,0-.07-.07-.11-.17-.11-.28s.04-.2.11-.27c0,0,0,0,0,0,.07-.07.17-.11.27-.11s.2.04.27.11c0,0,0,0,0,0,.13.13.31.21.51.21s.37-.08.5-.21c0,0,0,0,0,0,.07-.07.17-.11.27-.11s.2.04.27.11c0,0,0,0,0,0,.13.13.31.21.51.21s.37-.08.5-.21c0,0,0,0,0,0,.07-.07.17-.11.27-.11s.2.04.28.11c0,0,0,0,0,0,.07.07.11.17.11.27s-.04.2-.11.28c0,0,0,0,0,0-.13.13-.21.31-.21.5s.08.38.21.5c0,0,0,0,0,0"/>
        <path class="cls-5" d="M242.58,69.56c.07.07.11.17.11.27s-.04.2-.11.27c0,0,0,0,0,0-.07.07-.17.11-.28.11s-.2-.04-.27-.11c0,0,0,0,0,0-.13-.13-.31-.21-.5-.21s-.38.08-.51.21c0,0,0,0,0,0-.07.07-.17.11-.27.11s-.2-.04-.27-.11c0,0,0,0,0,0-.13-.13-.31-.21-.5-.21s-.38.08-.51.21c0,0,0,0,0,0-.07.07-.17.11-.27.11s-.2-.04-.27-.11c0,0,0,0,0,0-.13-.13-.31-.21-.5-.21s-.38.08-.5.21h0c-.07.08-.17.12-.27.12s-.2-.04-.27-.11c0,0,0,0,0,0-.07-.07-.11-.17-.11-.27s.04-.2.11-.27c0,0,0,0,0,0,.13-.13.21-.31.21-.5s-.08-.37-.21-.5c0,0,0,0,0,0-.07-.07-.11-.17-.11-.28s.04-.2.11-.27c0,0,0,0,0,0,.13-.13.21-.31.21-.51s-.08-.37-.21-.5c0,0,0,0,0,0-.07-.07-.11-.17-.11-.27s.04-.2.11-.28c0,0,0,0,0,0,.13-.13.21-.31.21-.5s-.08-.38-.21-.5c0,0,0,0,0,0-.07-.07-.11-.17-.11-.27s.04-.2.11-.27c0,0,0,0,0,0,.07-.07.17-.11.27-.11s.2.04.27.11c0,0,0,0,0,0,.13.13.31.21.5.21s.38-.08.5-.21c0,0,0,0,0,0,.07-.07.17-.11.27-.11s.2.04.27.11c0,0,0,0,0,0,.13.13.31.21.51.21s.37-.08.5-.21c0,0,0,0,0,0,.07-.07.17-.11.27-.11s.2.04.27.11c0,0,0,0,0,0,.13.13.31.21.51.21s.37-.08.5-.21c0,0,0,0,0,0,.07-.07.17-.11.27-.11s.2.04.28.11c0,0,0,0,0,0,.07.07.11.17.11.27s-.04.2-.11.27c0,0,0,0,0,0-.07.07-.17.11-.28.11s-.2-.04-.27-.11c0,0,0,0,0,0-.13-.13-.31-.21-.5-.21s-.38.08-.51.21c0,0,0,0,0,0-.07.07-.17.11-.27.11s-.2-.04-.27-.11c0,0,0,0,0,0-.13-.13-.31-.21-.5-.21s-.38.08-.51.21c0,0,0,0,0,0-.07.07-.17.11-.27.11s-.2-.04-.27-.11c0,0,0,0,0,0-.13-.13-.31-.21-.5-.21s-.38.08-.5.21h0c-.13.14-.21.32-.21.51s.08.37.21.5c0,0,0,0,0,0,.07.07.11.17.11.28s-.04.2-.11.27c0,0,0,0,0,0-.13.13-.21.31-.21.5s.08.38.21.51h0s0,0,0,0h0c.07.07.11.17.11.27s-.04.2-.11.28c0,0,0,0,0,0-.13.13-.21.31-.21.5s.08.38.21.5h0s0,0,0,0h0c.13.13.31.21.5.21s.38-.08.5-.21h0s0,0,0,0h0c.07-.07.17-.11.27-.11s.2.04.27.11c0,0,0,0,0,0,.13.13.31.21.51.21s.37-.08.5-.21c0,0,0,0,0,0,.07-.07.17-.11.27-.11s.2.04.27.11c0,0,0,0,0,0,.13.13.31.21.51.21s.37-.08.5-.21c0,0,0,0,0,0,.07-.07.17-.11.27-.11s.2.04.28.11c0,0,0,0,0,0"/>
      </g>
      <rect class="cls-2" width="252" height="144"/>
      <path class="cls-5" d="M202.87,15.49h-1.25v-3.23h1.25c.92,0,1.42.58,1.42,1.61s-.5,1.61-1.42,1.61ZM201.99,12.61v2.53h.9c.67,0,1.03-.47,1.03-1.27s-.36-1.26-1.03-1.26h-.9Z"/>
      <g>
        <path class="cls-5" d="M207.2,14.62c-.11.61-.54.92-1.12.92-.69,0-1.16-.42-1.16-1.25s.47-1.24,1.16-1.24,1.15.43,1.15,1.29h-1.94c.02.57.34.87.79.87.36,0,.64-.2.74-.59h.38ZM206.82,14.01c-.1-.41-.38-.63-.74-.63-.38,0-.67.22-.76.63h1.5Z"/>
        <path class="cls-5" d="M207.95,13.1l.76,1.92.76-1.92h.37l-.94,2.4h-.37l-.94-2.4h.37Z"/>
      </g>
      <g>
        <path class="cls-5" d="M212.48,14.62c-.11.61-.54.92-1.12.92-.69,0-1.16-.42-1.16-1.25s.47-1.24,1.16-1.24,1.15.43,1.15,1.29h-1.94c.02.57.34.87.79.87.36,0,.64-.2.74-.59h.38ZM212.1,14.01c-.1-.41-.38-.63-.74-.63s-.67.22-.76.63h1.5Z"/>
        <path class="cls-5" d="M213.24,12.27h.35v3.23h-.35v-3.23Z"/>
        <path class="cls-5" d="M215.49,13.05c.68,0,1.15.42,1.15,1.24s-.47,1.25-1.15,1.25-1.16-.42-1.16-1.25.47-1.24,1.16-1.24ZM215.49,15.21c.45,0,.78-.31.78-.92s-.33-.9-.78-.9-.79.31-.79.9.33.92.79.92Z"/>
        <path class="cls-5" d="M217.33,16.32c.01-2.6.01-2.61.02-3.23h.35v.23c.2-.18.47-.28.8-.28.68,0,1.15.42,1.15,1.24s-.47,1.25-1.15,1.25c-.33,0-.61-.1-.81-.29v1.07h-.36ZM219.28,14.29c0-.59-.33-.9-.79-.9-.57,0-.8.42-.8.94,0,.58.34.88.8.88s.79-.31.79-.92Z"/>
      </g>
      <path class="cls-5" d="M224.8,12.61v2.88h-.37v-2.88h-1.12v-.35h2.6v.35h-1.12Z"/>
      <path class="cls-5" d="M227.27,13.1h.37v.35h-.37c-.45,0-.76.26-.76.85v1.2h-.35v-1.2c0-.82.45-1.2,1.11-1.2Z"/>
      <path class="cls-5" d="M230.08,15.25c-.2.19-.47.29-.8.29-.69,0-1.16-.42-1.16-1.25s.47-1.24,1.16-1.24,1.15.42,1.15,1.24v1.2h-.35v-.24ZM229.29,15.21c.45,0,.78-.31.78-.92s-.33-.9-.78-.9-.79.31-.79.9.33.92.79.92Z"/>
      <path class="cls-5" d="M232.31,13.05c.64,0,1.09.42,1.09,1.24v1.2h-.35v-1.21c0-.59-.3-.9-.74-.9s-.74.31-.74.9v1.21h-.35v-1.2c0-.82.45-1.24,1.09-1.24Z"/>
      <path class="cls-5" d="M234.49,13.77c0,.28.3.32.63.38.46.08,1,.12.97.72-.02.45-.38.66-.95.66h-.07c-.61-.01-.99-.29-.97-.77h.38c0,.25.23.43.6.44h.03c.36,0,.62-.14.62-.35,0-.25-.29-.31-.63-.37-.46-.09-1-.11-.97-.72.02-.47.4-.68,1.03-.68.57,0,.96.25.97.7h-.37c0-.23-.26-.36-.59-.36-.24,0-.66.05-.67.35Z"/>
      <path class="cls-5" d="M237.96,12.27h.18v.35h-.18c-.42,0-.66-.06-.66.48h.74v.31h-.74v2.09h-.35v-2.09s-.23,0-.23,0v-.31h.23c0-.82.45-.83,1.01-.83Z"/>
      <path class="cls-5" d="M240.7,14.62c-.11.61-.54.92-1.12.92-.69,0-1.16-.42-1.16-1.25s.47-1.24,1.16-1.24,1.15.43,1.15,1.29h-1.94c.02.57.34.87.79.87.36,0,.64-.2.74-.59h.38ZM240.33,14.01c-.1-.41-.38-.63-.74-.63s-.67.22-.76.63h1.5Z"/>
      <path class="cls-5" d="M242.53,13.1h.37v.35h-.37c-.45,0-.76.26-.76.85v1.2h-.35v-1.2c0-.82.45-1.2,1.11-1.2Z"/>
      <g>
        <path class="cls-5" d="M181.6,15.49h-1.25v-3.23h1.25c.92,0,1.42.58,1.42,1.61s-.5,1.61-1.42,1.61ZM180.71,12.61v2.53h.9c.67,0,1.03-.47,1.03-1.27s-.36-1.26-1.03-1.26h-.9Z"/>
        <path class="cls-5" d="M185.92,14.62c-.11.61-.54.92-1.12.92-.69,0-1.16-.42-1.16-1.25s.47-1.24,1.16-1.24,1.15.43,1.15,1.29h-1.94c.02.57.34.87.79.87.36,0,.64-.2.74-.59h.38ZM185.54,14.01c-.1-.41-.38-.63-.74-.63s-.67.22-.76.63h1.5Z"/>
        <path class="cls-5" d="M186.95,13.77c0,.28.3.32.63.38.46.08,1,.12.97.72-.02.45-.38.66-.95.66h-.07c-.61-.01-.99-.29-.97-.77h.38c0,.25.23.43.6.44h.03c.36,0,.62-.14.62-.35,0-.25-.29-.31-.63-.37-.46-.09-1-.11-.97-.72.02-.47.4-.68,1.03-.68.57,0,.96.25.97.7h-.37c0-.23-.26-.36-.59-.36-.24,0-.66.05-.67.35Z"/>
        <path class="cls-5" d="M189.32,12.27h.35v.46h-.35v-.46ZM189.32,13.1h.35v2.4h-.35v-2.4Z"/>
        <path class="cls-5" d="M192.34,12.67h.37c0,.34-.13.55-.35.65.23.21.36.53.36.97s-.13.77-.36.98c.22.1.36.32.36.66,0,.48-.27.72-.67.72h-1.53v-.33h1.53c.18,0,.3-.13.3-.39s-.12-.39-.3-.39h-.47c-.69,0-1.16-.42-1.16-1.25s.47-1.24,1.16-1.24h.5c.16,0,.27-.13.27-.38ZM191.56,15.21c.45,0,.78-.31.78-.92s-.33-.9-.78-.9-.79.31-.79.9.33.92.79.92Z"/>
      </g>
      <path class="cls-5" d="M194.58,13.05c.64,0,1.09.42,1.09,1.24v1.2h-.35v-1.21c0-.59-.3-.9-.74-.9s-.74.31-.74.9v1.21h-.35v-1.2c0-.82.45-1.24,1.09-1.24Z"/>
      <path class="cls-4" d="M198.63,14.11c0,.22-.17.39-.39.39s-.39-.17-.39-.39.17-.39.39-.39.39.17.39.39"/>
      <path class="cls-1" d="M222.26,14.11c0,.22-.17.39-.39.39s-.39-.17-.39-.39.17-.39.39-.39.39.17.39.39"/>
      <rect class="cls-2" width="252" height="144"/>
    </g>
  </g>
</svg>