<?xml version="1.0" encoding="UTF-8"?>
<svg id="Layer_2" data-name="Layer 2" xmlns="http://www.w3.org/2000/svg" viewBox="0 0 550.69 216.94">
  <defs>
    <style>
      .cls-1 {
        fill: #302364;
      }

      .cls-2 {
        fill: #f37321;
      }

      .cls-3 {
        fill: #7562ab;
      }
    </style>
  </defs>
  <g id="Layer_1-2" data-name="Layer 1">
    <g>
      <g>
        <path class="cls-1" d="M250.21,211.22h-5.96v-15.34h5.96c4.36,0,6.75,2.78,6.75,7.67s-2.39,7.67-6.75,7.67ZM246,197.53v12.05h4.27c3.18,0,4.91-2.23,4.91-6.05s-1.73-6-4.91-6h-4.27Z"/>
        <path class="cls-1" d="M270.76,207.06c-.53,2.91-2.56,4.38-5.32,4.38-3.26,0-5.5-1.99-5.5-5.94s2.23-5.89,5.5-5.89,5.46,2.04,5.46,6.14h-9.2c.09,2.72,1.62,4.12,3.75,4.12,1.71,0,3.05-.94,3.53-2.8h1.8ZM268.96,204.17c-.46-1.97-1.8-2.98-3.53-2.98-1.82,0-3.2,1.03-3.62,2.98h7.14Z"/>
        <path class="cls-1" d="M275.65,203.01c-.04,1.34,1.42,1.51,3,1.8,2.21.39,4.73.55,4.62,3.42-.09,2.13-1.8,3.16-4.54,3.16h-.35c-2.91-.07-4.69-1.4-4.62-3.66h1.8c-.04,1.21,1.1,2.06,2.87,2.08h.15c1.73,0,2.94-.68,2.94-1.64,0-1.18-1.36-1.47-3-1.78-2.21-.42-4.73-.53-4.62-3.44.09-2.21,1.88-3.22,4.91-3.22,2.7,0,4.56,1.18,4.6,3.31h-1.77c-.04-1.07-1.23-1.71-2.8-1.71-1.12,0-3.11.22-3.18,1.69Z"/>
        <path class="cls-1" d="M286.91,195.89h1.67v2.19h-1.67v-2.19ZM286.91,199.83h1.67v11.39h-1.67v-11.39Z"/>
        <path class="cls-1" d="M301.26,197.81h1.75c0,1.62-.64,2.63-1.69,3.09,1.07.99,1.71,2.52,1.71,4.6s-.64,3.66-1.73,4.65c1.05.46,1.71,1.51,1.71,3.13,0,2.28-1.29,3.42-3.2,3.42h-7.3v-1.58h7.3c.88,0,1.45-.64,1.45-1.84s-.57-1.84-1.45-1.84h-2.24c-3.26,0-5.5-1.99-5.5-5.94s2.23-5.89,5.5-5.89h2.39c.77,0,1.29-.61,1.29-1.8ZM297.58,209.87c2.15,0,3.7-1.49,3.7-4.38s-1.56-4.29-3.7-4.29-3.75,1.49-3.75,4.29,1.56,4.38,3.75,4.38Z"/>
        <path class="cls-1" d="M311.93,199.61c3.05,0,5.17,1.99,5.17,5.92v5.7h-1.67v-5.74c0-2.83-1.45-4.29-3.51-4.29s-3.51,1.47-3.51,4.29v5.74h-1.67v-5.7c0-3.92,2.13-5.92,5.17-5.92Z"/>
      </g>
      <g>
        <path class="cls-1" d="M352.73,211.22h-5.96v-15.34h5.96c4.36,0,6.75,2.78,6.75,7.67s-2.39,7.67-6.75,7.67ZM348.52,197.53v12.05h4.27c3.18,0,4.91-2.23,4.91-6.05s-1.73-6-4.91-6h-4.27Z"/>
        <path class="cls-1" d="M373.28,207.06c-.53,2.91-2.56,4.38-5.32,4.38-3.26,0-5.5-1.99-5.5-5.94s2.23-5.89,5.5-5.89,5.46,2.04,5.46,6.14h-9.2c.09,2.72,1.62,4.12,3.75,4.12,1.71,0,3.05-.94,3.53-2.8h1.8ZM371.48,204.17c-.46-1.97-1.8-2.98-3.53-2.98-1.82,0-3.2,1.03-3.62,2.98h7.14Z"/>
        <path class="cls-1" d="M376.87,199.83l3.62,9.14,3.59-9.14h1.77l-4.49,11.39h-1.77l-4.49-11.39h1.77Z"/>
        <path class="cls-1" d="M398.37,207.06c-.53,2.91-2.56,4.38-5.32,4.38-3.26,0-5.5-1.99-5.5-5.94s2.23-5.89,5.5-5.89,5.46,2.04,5.46,6.14h-9.2c.09,2.72,1.62,4.12,3.75,4.12,1.71,0,3.05-.94,3.53-2.8h1.8ZM396.57,204.17c-.46-1.97-1.8-2.98-3.53-2.98-1.82,0-3.2,1.03-3.62,2.98h7.14Z"/>
        <path class="cls-1" d="M402.01,195.89h1.67v15.34h-1.67v-15.34Z"/>
        <path class="cls-1" d="M412.68,199.61c3.22,0,5.46,1.99,5.46,5.89s-2.23,5.94-5.46,5.94-5.5-1.99-5.5-5.94,2.23-5.89,5.5-5.89ZM412.68,209.87c2.15,0,3.7-1.49,3.7-4.38s-1.56-4.29-3.7-4.29-3.75,1.49-3.75,4.29,1.56,4.38,3.75,4.38Z"/>
        <path class="cls-1" d="M421.46,215.17c.07-12.36.07-12.4.11-15.34h1.67v1.09c.96-.88,2.26-1.31,3.79-1.31,3.22,0,5.46,1.99,5.46,5.89s-2.23,5.94-5.46,5.94c-1.58,0-2.89-.46-3.86-1.38l-.04,5.11h-1.67ZM430.73,205.48c0-2.8-1.58-4.29-3.75-4.29-2.72,0-3.79,2.02-3.79,4.47,0,2.78,1.62,4.21,3.79,4.21s3.75-1.49,3.75-4.38Z"/>
      </g>
      <g>
        <path class="cls-1" d="M464.62,197.53v13.69h-1.75v-13.69h-5.3v-1.64h12.38v1.64h-5.32Z"/>
        <path class="cls-1" d="M476.36,199.83h1.75v1.67h-1.75c-2.15,0-3.59,1.23-3.59,4.03v5.7h-1.67v-5.7c0-3.92,2.15-5.7,5.26-5.7Z"/>
        <path class="cls-1" d="M489.75,210.08c-.94.9-2.26,1.36-3.79,1.36-3.26,0-5.5-1.99-5.5-5.94s2.23-5.89,5.5-5.89,5.46,1.99,5.46,5.89v5.72h-1.67v-1.14ZM485.96,209.87c2.15,0,3.7-1.49,3.7-4.38s-1.56-4.29-3.7-4.29-3.75,1.49-3.75,4.29,1.56,4.38,3.75,4.38Z"/>
        <path class="cls-1" d="M500.31,199.61c3.05,0,5.17,1.99,5.17,5.92v5.7h-1.67v-5.74c0-2.83-1.45-4.29-3.51-4.29s-3.51,1.47-3.51,4.29v5.74h-1.67v-5.7c0-3.92,2.13-5.92,5.17-5.92Z"/>
        <path class="cls-1" d="M510.68,203.01c-.04,1.34,1.42,1.51,3,1.8,2.21.39,4.73.55,4.62,3.42-.09,2.13-1.8,3.16-4.54,3.16h-.35c-2.91-.07-4.69-1.4-4.62-3.66h1.8c-.04,1.21,1.1,2.06,2.87,2.08h.15c1.73,0,2.94-.68,2.94-1.64,0-1.18-1.36-1.47-3-1.78-2.21-.42-4.73-.53-4.62-3.44.09-2.21,1.88-3.22,4.91-3.22,2.7,0,4.56,1.18,4.6,3.31h-1.77c-.04-1.07-1.23-1.71-2.8-1.71-1.12,0-3.11.22-3.18,1.69Z"/>
        <path class="cls-1" d="M527.2,195.89h.88v1.67h-.88c-1.99,0-3.16-.29-3.16,2.28h3.51v1.47h-3.51l-.02,9.93h-1.67l.02-9.93h-1.1v-1.47h1.1c0-3.92,2.15-3.94,4.82-3.94Z"/>
        <path class="cls-1" d="M540.26,207.06c-.53,2.91-2.56,4.38-5.32,4.38-3.26,0-5.5-1.99-5.5-5.94s2.23-5.89,5.5-5.89,5.46,2.04,5.46,6.14h-9.2c.09,2.72,1.62,4.12,3.75,4.12,1.71,0,3.05-.94,3.53-2.8h1.8ZM538.46,204.17c-.46-1.97-1.8-2.98-3.53-2.98-1.82,0-3.2,1.03-3.62,2.98h7.14Z"/>
        <path class="cls-1" d="M548.93,199.83h1.75v1.67h-1.75c-2.15,0-3.59,1.23-3.59,4.03v5.7h-1.67v-5.7c0-3.92,2.15-5.7,5.26-5.7Z"/>
      </g>
      <g>
        <path class="cls-2" d="M209.59,129.88c2.68,2.75,4.33,6.52,4.33,10.66s-1.65,7.91-4.33,10.66c-.1.09-.19.19-.28.28-2.75,2.68-6.52,4.33-10.66,4.33s-7.91-1.65-10.66-4.33c-.09-.1-.19-.19-.28-.28-2.68-2.75-4.33-6.52-4.33-10.66s1.65-7.91,4.33-10.66c.1-.09.19-.19.28-.28,4.97-5.04,8.04-11.97,8.04-19.61s-3.07-14.57-8.04-19.61c-.09-.1-.19-.19-.28-.28-5.04-4.97-11.97-8.04-19.61-8.04s-14.57,3.07-19.61,8.04c-.1.09-.19.19-.28.28-4.97,5.04-8.04,11.97-8.04,19.61s3.07,14.57,8.04,19.61c.09.1.19.19.28.28,2.68,2.75,4.33,6.52,4.33,10.66s-1.65,7.91-4.33,10.66c-.1.09-.19.19-.28.28-2.75,2.68-6.52,4.33-10.66,4.33s-7.91-1.65-10.66-4.33c-.09-.1-.19-.19-.28-.28-2.68-2.75-4.33-6.52-4.33-10.66s1.65-7.91,4.33-10.66c.1-.09.19-.19.28-.28,4.97-5.04,8.04-11.97,8.04-19.61s-3.07-14.57-8.04-19.61c-.09-.1-.19-.19-.28-.28-5.04-4.97-11.97-8.04-19.61-8.04s-14.57,3.07-19.61,8.04c-.1.09-.19.19-.28.28-4.97,5.04-8.04,11.97-8.04,19.61s3.07,14.57,8.04,19.61c.09.1.19.19.28.28,2.68,2.75,4.33,6.52,4.33,10.66s-1.65,7.91-4.33,10.66c-.1.09-.19.19-.28.28-2.75,2.68-6.52,4.33-10.66,4.33s-7.91-1.65-10.66-4.33c-.09-.1-.19-.19-.28-.28-2.68-2.75-4.33-6.52-4.33-10.66s1.65-7.91,4.33-10.66c.1-.09.19-.19.28-.28,4.97-5.04,8.04-11.97,8.04-19.61s-3.07-14.57-8.04-19.61c-.09-.1-.19-.19-.28-.28-2.68-2.75-4.33-6.52-4.33-10.66s1.65-7.91,4.33-10.66c.1-.09.19-.19.28-.28,2.75-2.68,6.52-4.33,10.66-4.33s7.91,1.65,10.66,4.33c.09.1.19.19.28.28,5.04,4.97,11.97,8.04,19.61,8.04s14.57-3.07,19.61-8.04c.1-.09.19-.19.28-.28,2.75-2.68,6.52-4.33,10.66-4.33s7.91,1.65,10.66,4.33c.09.1.19.19.28.28,5.04,4.97,11.97,8.04,19.61,8.04s14.57-3.07,19.61-8.04c.1-.09.19-.19.28-.28,2.75-2.68,6.52-4.33,10.66-4.33s7.91,1.65,10.66,4.33c.09.1.19.19.28.28,2.68,2.75,4.33,6.52,4.33,10.66s-1.65,7.91-4.33,10.66c-.1.09-.19.19-.28.28-4.97,5.04-8.04,11.97-8.04,19.61s3.07,14.57,8.04,19.61c.09.1.19.19.28.28Z"/>
        <path class="cls-1" d="M209.59,191c2.68,2.75,4.33,6.52,4.33,10.66s-1.65,7.91-4.33,10.66c-.09.09-.19.19-.28.28-2.75,2.68-6.52,4.33-10.66,4.33s-7.91-1.65-10.66-4.33c-.09-.1-.19-.19-.28-.28-5.04-4.97-11.97-8.04-19.61-8.04s-14.57,3.07-19.61,8.04c-.09.09-.19.19-.28.28-2.75,2.68-6.52,4.33-10.66,4.33s-7.91-1.65-10.66-4.33c-.09-.1-.19-.19-.28-.28-5.04-4.97-11.97-8.04-19.61-8.04s-14.57,3.07-19.61,8.04c-.09.09-.19.19-.28.28-2.75,2.68-6.52,4.33-10.66,4.33s-7.91-1.65-10.66-4.33c-.09-.1-.19-.19-.28-.28-5.04-4.97-11.97-8.04-19.61-8.04s-14.57,3.07-19.61,8.04c-.09.09-.19.19-.28.28-2.75,2.68-6.52,4.33-10.66,4.33s-7.91-1.65-10.66-4.33c-.09-.1-.19-.19-.28-.28-2.68-2.75-4.33-6.52-4.33-10.66s1.65-7.91,4.33-10.66c.1-.09.19-.19.28-.28,4.97-5.04,8.04-11.97,8.04-19.61s-3.07-14.57-8.04-19.61c-.09-.1-.19-.19-.28-.28-2.68-2.75-4.33-6.52-4.33-10.66s1.65-7.91,4.33-10.66c.1-.09.19-.19.28-.28,4.97-5.04,8.04-11.97,8.04-19.61s-3.07-14.57-8.04-19.61c-.09-.1-.19-.19-.28-.28-2.68-2.75-4.33-6.52-4.33-10.66s1.65-7.9,4.33-10.66c.1-.09.2-.19.29-.29,4.97-5.04,8.04-11.97,8.04-19.61s-3.07-14.57-8.04-19.61c-.09-.1-.19-.19-.28-.28C1.65,26.21,0,22.45,0,18.3s1.65-7.91,4.33-10.66c.1-.09.19-.19.28-.28,2.75-2.68,6.52-4.33,10.66-4.33s7.91,1.65,10.66,4.33c.09.1.19.19.28.28,5.04,4.97,11.97,8.04,19.61,8.04s14.57-3.07,19.61-8.04c.1-.09.19-.19.28-.28,2.75-2.68,6.52-4.33,10.66-4.33s7.91,1.65,10.66,4.33c.09.1.19.19.28.28,5.04,4.97,11.97,8.04,19.61,8.04s14.57-3.07,19.61-8.04c.1-.09.19-.19.28-.28,2.75-2.68,6.52-4.33,10.66-4.33s7.9,1.65,10.66,4.33c.09.1.19.2.29.29,5.04,4.97,11.97,8.04,19.61,8.04s14.57-3.07,19.61-8.04c.1-.09.19-.19.28-.28,2.75-2.68,6.52-4.33,10.66-4.33s7.91,1.65,10.66,4.33c.09.1.19.19.28.28,2.68,2.75,4.33,6.52,4.33,10.66s-1.65,7.91-4.33,10.66c-.09.09-.19.19-.28.28-2.75,2.68-6.52,4.33-10.66,4.33s-7.91-1.65-10.66-4.33c-.09-.1-.19-.19-.28-.28-5.04-4.97-11.97-8.04-19.61-8.04s-14.57,3.07-19.61,8.04c-.09.09-.19.19-.28.28-2.75,2.68-6.52,4.33-10.66,4.33s-7.91-1.65-10.66-4.33c-.09-.1-.19-.19-.28-.28-5.04-4.97-11.97-8.04-19.61-8.04s-14.57,3.07-19.61,8.04c-.09.09-.19.19-.28.28-2.75,2.68-6.52,4.33-10.66,4.33s-7.91-1.65-10.66-4.33c-.09-.1-.19-.19-.28-.28-5.04-4.97-11.97-8.04-19.61-8.04s-14.57,3.07-19.61,8.04c-.09.09-.19.19-.28.28-4.97,5.04-8.04,11.97-8.04,19.61s3.07,14.57,8.04,19.61c.09.1.19.19.28.28,2.68,2.75,4.33,6.52,4.33,10.66s-1.65,7.91-4.33,10.66c-.09.09-.19.19-.28.28-4.97,5.04-8.04,11.97-8.04,19.61s3.07,14.57,8.04,19.61h.01c.08.1.17.19.26.27,0,0,0,0,.01.01,2.68,2.75,4.33,6.52,4.33,10.66s-1.65,7.91-4.33,10.66c-.09.09-.19.19-.28.28-4.97,5.04-8.04,11.97-8.04,19.61s3.07,14.57,8.04,19.61h.01c.08.1.17.19.26.27,0,0,0,0,.01.01,5.04,4.97,11.97,8.04,19.61,8.04s14.57-3.07,19.61-8.04c0,0,0,0,.01-.01.09-.08.17-.17.26-.26h.01c2.75-2.7,6.52-4.35,10.66-4.35s7.91,1.65,10.66,4.33h.01c.08.1.17.19.26.27,0,0,0,0,.01.01,5.04,4.97,11.97,8.04,19.61,8.04s14.57-3.07,19.61-8.04c0,0,0,0,.01-.01.09-.08.17-.17.26-.26h.01c2.75-2.7,6.52-4.35,10.66-4.35s7.91,1.65,10.66,4.33h.01c.08.1.17.19.26.27,0,0,0,0,.01.01,5.04,4.97,11.97,8.04,19.61,8.04s14.57-3.07,19.61-8.04c0,0,0,0,.01-.01.09-.08.17-.17.26-.26h.01c2.75-2.7,6.52-4.35,10.66-4.35s7.91,1.65,10.66,4.33h.01c.08.1.17.19.26.27,0,0,0,0,.01.01Z"/>
      </g>
      <g>
        <path class="cls-1" d="M246.59,0h5.61l15.83,37.7L283.86,0h5.61v43.62h-4.99V10.53l-13.9,33.09h-5.11l-13.9-33.09v33.09h-4.99V0Z"/>
        <path class="cls-1" d="M298.81,0h4.74v6.23h-4.74V0ZM298.81,11.22h4.74v32.4h-4.74V11.22Z"/>
        <path class="cls-1" d="M336.83,40.38c-2.74,2.55-6.48,3.86-10.91,3.86-9.16,0-15.52-5.67-15.52-16.89s6.36-16.76,15.52-16.76c4.42,0,8.16,1.31,10.91,3.86V0h4.74v43.62h-4.74v-3.24ZM326.04,15.08c-6.17,0-10.66,4.24-10.66,12.21s4.49,12.46,10.66,12.46,10.78-4.24,10.78-12.46-4.49-12.21-10.78-12.21Z"/>
        <path class="cls-1" d="M374.84,40.38c-2.74,2.55-6.48,3.86-10.91,3.86-9.16,0-15.52-5.67-15.52-16.89s6.36-16.76,15.52-16.76c4.42,0,8.16,1.31,10.91,3.86V0h4.74v43.62h-4.74v-3.24ZM364.06,15.08c-6.17,0-10.66,4.24-10.66,12.21s4.49,12.46,10.66,12.46,10.78-4.24,10.78-12.46-4.49-12.21-10.78-12.21Z"/>
        <path class="cls-1" d="M388.3,0h4.74v43.62h-4.74V0Z"/>
        <path class="cls-1" d="M430.67,31.78c-1.5,8.29-7.29,12.46-15.14,12.46-9.29,0-15.64-5.67-15.64-16.89s6.36-16.76,15.64-16.76,15.52,5.8,15.52,17.45h-26.17c.25,7.73,4.61,11.72,10.66,11.72,4.86,0,8.66-2.68,10.03-7.98h5.11ZM425.56,23.56c-1.31-5.61-5.11-8.47-10.03-8.47-5.17,0-9.1,2.93-10.28,8.47h20.32Z"/>
        <path class="cls-1" d="M441.45,20.25c-.12,3.8,4.05,4.3,8.54,5.11,6.29,1.12,13.46,1.56,13.15,9.72-.25,6.04-5.11,8.97-12.9,8.97h-1c-8.29-.19-13.34-3.99-13.15-10.41h5.11c-.12,3.43,3.12,5.86,8.16,5.92h.44c4.92,0,8.35-1.93,8.35-4.67,0-3.37-3.86-4.17-8.54-5.05-6.29-1.18-13.46-1.5-13.15-9.78.25-6.29,5.36-9.16,13.96-9.16,7.66,0,12.96,3.37,13.09,9.41h-5.05c-.12-3.05-3.49-4.86-7.98-4.86-3.18,0-8.85.62-9.04,4.8Z"/>
        <path class="cls-1" d="M499.28,31.78c-1.5,8.29-7.29,12.46-15.14,12.46-9.29,0-15.64-5.67-15.64-16.89s6.36-16.76,15.64-16.76,15.52,5.8,15.52,17.45h-26.17c.25,7.73,4.61,11.72,10.66,11.72,4.86,0,8.66-2.68,10.03-7.98h5.11ZM494.17,23.56c-1.31-5.61-5.11-8.47-10.03-8.47-5.17,0-9.1,2.93-10.28,8.47h20.32Z"/>
        <path class="cls-1" d="M507.63,11.22l9.6,12.34,9.53-12.34h5.98l-12.53,16.2,12.53,16.2h-5.98l-9.53-12.34-9.6,12.34h-5.98l12.59-16.2-12.59-16.2h5.98Z"/>
      </g>
      <g>
        <path class="cls-1" d="M284.54,74.25h-5.36c-1.56-7.73-6.54-12.15-14.46-12.15-8.79,0-14.96,6.61-14.96,17.7s5.3,17.82,14.96,17.82c7.91,0,12.9-4.42,14.46-12.15h5.36c-1.68,10.78-8.54,16.83-19.82,16.83-13.15,0-20.25-8.16-20.25-22.43s8.35-22.43,20.25-22.43c11.28,0,18.13,6.04,19.82,16.83Z"/>
        <path class="cls-1" d="M305.54,68.64c9.16,0,15.52,5.67,15.52,16.76s-6.36,16.89-15.52,16.89-15.64-5.67-15.64-16.89,6.36-16.76,15.64-16.76ZM305.54,97.8c6.11,0,10.53-4.24,10.53-12.46s-4.42-12.21-10.53-12.21-10.66,4.24-10.66,12.21,4.42,12.46,10.66,12.46Z"/>
        <path class="cls-1" d="M342,68.64c8.66,0,14.71,5.67,14.71,16.83v16.2h-4.74v-16.33c0-8.04-4.11-12.21-9.97-12.21s-9.97,4.17-9.97,12.21v16.33h-4.74v-16.2c0-11.16,6.04-16.83,14.71-16.83Z"/>
        <path class="cls-1" d="M368.36,78.3c-.12,3.8,4.05,4.3,8.54,5.11,6.29,1.12,13.46,1.56,13.15,9.72-.25,6.04-5.11,8.97-12.9,8.97h-1c-8.29-.19-13.34-3.99-13.15-10.41h5.11c-.12,3.43,3.12,5.86,8.16,5.92h.44c4.92,0,8.35-1.93,8.35-4.67,0-3.37-3.86-4.17-8.54-5.05-6.29-1.18-13.46-1.5-13.15-9.78.25-6.29,5.36-9.16,13.96-9.16,7.67,0,12.96,3.37,13.09,9.41h-5.05c-.12-3.05-3.49-4.86-7.98-4.86-3.18,0-8.85.62-9.04,4.8Z"/>
        <path class="cls-1" d="M396.65,69.26h4.74v16.33c0,8.04,4.11,12.21,9.97,12.21s9.97-4.18,9.97-12.21v-16.33h4.74v16.2c0,11.15-6.04,16.83-14.71,16.83s-14.71-5.67-14.71-16.83v-16.2Z"/>
        <path class="cls-1" d="M434.16,58.04h4.74v43.62h-4.74v-43.62Z"/>
        <path class="cls-1" d="M447.37,73.75h-3.05v-4.49h3.05v-9.35h4.74v9.35h8.79v4.49h-8.79l.06,16.7c0,7.29,3.3,6.73,10.22,6.73h.62v4.49h-.62c-8.85,0-14.96-.06-14.96-11.22l-.06-16.7Z"/>
        <path class="cls-1" d="M468.62,58.04h4.74v6.23h-4.74v-6.23ZM468.62,69.26h4.74v32.4h-4.74v-32.4Z"/>
        <path class="cls-1" d="M496.17,68.64c8.66,0,14.71,5.67,14.71,16.83v16.2h-4.74v-16.33c0-8.04-4.11-12.21-9.97-12.21s-9.97,4.17-9.97,12.21v16.33h-4.74v-16.2c0-11.16,6.04-16.83,14.71-16.83Z"/>
        <path class="cls-1" d="M543.21,63.53h4.99c0,4.61-1.81,7.48-4.8,8.79,3.05,2.8,4.86,7.17,4.86,13.09s-1.81,10.41-4.92,13.21c2.99,1.31,4.86,4.3,4.86,8.91,0,6.48-3.68,9.72-9.1,9.72h-20.75v-4.49h20.75c2.49,0,4.11-1.81,4.11-5.24s-1.62-5.23-4.11-5.23h-6.36c-9.29,0-15.64-5.67-15.64-16.89s6.36-16.76,15.64-16.76h6.79c2.18,0,3.68-1.74,3.68-5.11ZM532.74,97.8c6.11,0,10.53-4.24,10.53-12.46s-4.42-12.21-10.53-12.21-10.66,4.24-10.66,12.21,4.42,12.46,10.66,12.46Z"/>
      </g>
      <g>
        <path class="cls-1" d="M264.73,157.01c-13.15,0-20.25-8.16-20.25-22.43s8.35-22.43,20.25-22.43c11.28,0,18.13,6.04,19.82,16.83h-5.36c-1.56-7.73-6.54-12.15-14.46-12.15-8.79,0-14.96,6.61-14.96,17.7s5.3,17.82,14.96,17.82c8.23,0,13.27-4.8,14.58-13.09h-14.27v-4.74h19.94c0,14.27-7.17,22.5-20.25,22.5Z"/>
        <path class="cls-1" d="M306.54,123.98h4.99v4.74h-4.99c-6.11,0-10.22,3.49-10.22,11.47v16.2h-4.74v-16.2c0-11.16,6.11-16.2,14.96-16.2Z"/>
        <path class="cls-1" d="M330.72,123.36c9.16,0,15.52,5.67,15.52,16.76s-6.36,16.89-15.52,16.89-15.64-5.67-15.64-16.89,6.36-16.76,15.64-16.76ZM330.72,152.52c6.11,0,10.53-4.24,10.53-12.46s-4.42-12.21-10.53-12.21-10.66,4.24-10.66,12.21,4.42,12.46,10.66,12.46Z"/>
        <path class="cls-1" d="M352.47,123.98h4.74v16.33c0,8.04,4.11,12.21,9.97,12.21s9.97-4.18,9.97-12.21v-16.33h4.74v16.2c0,11.15-6.04,16.83-14.71,16.83s-14.71-5.67-14.71-16.83v-16.2Z"/>
        <path class="cls-1" d="M389.48,167.6c.19-35.15.19-35.27.31-43.62h4.74v3.12c2.74-2.49,6.42-3.74,10.78-3.74,9.16,0,15.52,5.67,15.52,16.76s-6.36,16.89-15.52,16.89c-4.49,0-8.23-1.31-10.97-3.93l-.12,14.52h-4.74ZM415.84,140.06c0-7.98-4.49-12.21-10.66-12.21-7.73,0-10.78,5.73-10.78,12.71,0,7.91,4.61,11.96,10.78,11.96s10.66-4.24,10.66-12.46Z"/>
      </g>
      <g>
        <path class="cls-1" d="M435.57,132.81v-7.59h-2.71v-1.54h7.26v1.54h-2.7v7.59h-1.84Z"/>
        <path class="cls-1" d="M441.28,132.81v-9.13h2.76l1.66,6.23,1.64-6.23h2.77v9.13h-1.71v-7.19l-1.81,7.19h-1.78l-1.81-7.19v7.19h-1.71Z"/>
      </g>
      <circle class="cls-3" cx="332.58" cy="204.65" r="3.04"/>
      <circle class="cls-2" cx="446.75" cy="204.65" r="3.04"/>
    </g>
  </g>
</svg>